<?xml version="1.0" encoding="utf-8"?>
<!-- Generator: Adobe Illustrator 27.5.0, SVG Export Plug-In . SVG Version: 6.00 Build 0)  -->
<svg version="1.1" xmlns="http://www.w3.org/2000/svg" xmlns:xlink="http://www.w3.org/1999/xlink" x="0px" y="0px"
	 viewBox="0 0 500 500" style="enable-background:new 0 0 500 500;" xml:space="preserve">
<g id="BACKGROUND">
	<g>
		<g>
			<rect style="fill:#FFFFFF;" width="500" height="500"/>
		</g>
	</g>
</g>
<g id="OBJECTS">
	<g>
		<g>
			<g>
				<path style="fill:#A1C2FF;" d="M292.045,417.754c0,0-6.455-52.562,39.453-68.546c6.49-0.553-19.96,26.769-15.801,20.65
					c0,0,16.727-18.872,27.253-19.267c4.055,1.279,4.055,1.279,4.055,1.279s-22.55,19.079-17.761,24.212
					c5.855,1.754,20.926-22.47,26.741-23.237c5.814-0.767,5.814-0.767,5.814-0.767s-19.625,19.816-18.432,24.279
					c4.018-0.962,19.108-24.066,25.616-23.499c6.509,0.567,9.284,5.901,9.284,5.901s-20.02,9.289-20.16,14.446
					c-0.141,5.157,5.978,9.316,10.794,2.29s7.642-12.45,15.021-13.466c7.379-1.016,19.117,4.172,23.227,8.812
					c3.878,4.195-27.843,10.536-21.512,14.019c6.332,3.483,24.714-10.037,31.045-6.554c6.332,3.483,28.96,30.682,26.969,32.283
					c-1.991,1.601-23.027,3.511-23.027,3.511s-8.468-10.844-17.466-12.94c-8.999-2.095-0.676,6.926-0.676,6.926l-27.154-9.388
					l-43.405,4.513L292.045,417.754z"/>
			</g>
			<path style="fill:#8BA5EF;" d="M302.468,424.757c0,0-15.576,3.446-23.315-7.354c-7.739-10.8-4.871-10.174-3.232-12.722
				c1.64-2.548,11.419,9.732,12.552,7.024c1.133-2.708-11.94-10.732-12.675-14.586c-0.735-3.854-0.657-9.402,2.024-9.95
				c2.68-0.548,27.587,22.076,33.254,19.127c5.667-2.949-5.739-11.841-11.834-14.6c-6.096-2.759-17.379-4.088-15.233-6.476
				c2.146-2.388,11.198-14.301,37.472-11.029c7.63,4.079,8.45,23.563,12.318,23.668c3.868,0.105-7.916-21.723-4.555-21.777
				c3.361-0.055,4.868-0.415,6.63,4.599c1.762,5.014,3.82,17.923,10.035,17.654c6.215-0.269-5.674-18.229-1.98-18.457
				c3.694-0.228,10.443,1.344,12.338,4.17c1.895,2.827,1.045,12.589,5.912,12.174c4.868-0.415-1.51-10.229,3.718-9.137
				c5.228,1.092,38.003,21.739,38.003,21.739S379.881,392.582,302.468,424.757z"/>
		</g>
		<path style="fill:#E7E8FA;" d="M270.044,80.937c0,0,48.751-37.144,112.592-1.161s67.323,149.736,8.125,195.005
			c-59.198,45.269-44.108,140.45-116.074,160.182c-71.966,19.733-152.057,0-191.522-71.966c-39.465-71.966,0-134.646,45.269-154.379
			c45.269-19.733,81.252-37.144,89.377-63.841S247.99,89.062,270.044,80.937z"/>
		<path style="fill:#8BA5EF;" d="M258.759,311.036c-1.883-0.872-1.584,8.714-4.793,15.232c-3.209,6.517-7.219,9.736-8.643,7.358
			c-1.424-2.377,8.653-15.396,8.934-21.122c0.282-5.726-6.753-11.483-8.289-11.57c-1.536-0.087-2.021,21.513-4.859,24.415
			c-2.839,2.902-3.822-0.599-1.695-4.689c2.127-4.09,4.849-16.377,2.676-19.179c-2.173-2.802-9.157-5.685-9.798-4.382
			s2.533,7.225,3.278,11.669c0.744,4.444-0.048,8.801-3.813,7.057c-3.766-1.744,0.676-13.742,0.039-16.458
			c-0.637-2.715-8.772-5.663-10.51-5.57c-1.738,0.093-14.427,11.433-14.596,14.869c1.859,5.273,12.622,13.537,15.31,13.689
			c2.689,0.152,6.178,3.603,1.695,4.689c-5.03,0.481-16.884-13.012-17.634-13.438c-0.749-0.425-2.801,2.138-2.806,6.157
			c-0.005,4.019,11.034,10.576,15.221,11.579c4.187,1.002,13.217,5.341,5.021,7.557c-8.197,2.216-19.887-10.694-22.248-9.679
			c-2.361,1.015-1.144,7.591-0.689,10.105c0.454,2.514,4.566,5.043,9.156,5.685c4.59,0.642,17.818-2.055,16.239,2.641
			c-1.579,4.696-23.171-2.65-24.764-1.592c-1.593,1.058-1.654,6.223,1.596,10.617c3.068,4.193,22.905-3.681,24.253,0.223
			c-3.209,6.517-19.171,2.169-21.387,4.149c-2.215,1.98,0.796,7.318,2.95,10.502c2.154,3.184,4.679,2.753,10.37,0.586
			c5.691-2.166,11.884-10.62,12.282-6.961c-1.34,3.752-13.163,9.208-14.812,11.412c-0.352,3.234,5.587,7.78,7.231,9.596
			c1.644,1.815,12.775-20.905,14.161-17.764c1.386,3.141-10.17,14.928-10.629,16.433c-0.459,1.505,4.44,3.696,7.424,1.759
			c15.431-10.551,12.111-24.527,10.25-29.538c6.585,14.634,14.952,13.279,18.361,11.634c3.551-1.713,6.835-9.757,5.776-11.731
			c-1.058-1.974-4.778,3.175-10.759,3.411c-5.981,0.236-8.079-4.093-8.004-5.62c0.075-1.527,12.618,1.862,16.652-5.757
			c4.034-7.619,1.397-20.591,0.081-21.24c-1.316-0.649-8.099,11.982-11.228,12.954c-3.129,0.972-4.426-0.059-3.489-3.451
			c0.937-3.392,12.23-9.835,12.072-14.437C264.183,318.233,260.642,311.908,258.759,311.036z M239.239,354.917
			c1.576,4.224-2.453,5.572-2.453,5.572c-3.407,0.792-4.775-3.618-4.544-8.33C232.474,347.446,237.664,350.693,239.239,354.917z
			 M233.154,345.712c-3.045-2.535-0.689-6.143,1.962-3.63C237.766,344.595,233.154,345.712,233.154,345.712z"/>
		<g>
			
				<ellipse transform="matrix(0.7071 -0.7071 0.7071 0.7071 -17.7285 185.559)" style="fill:none;stroke:#C2D6FF;stroke-width:2;stroke-linecap:round;stroke-linejoin:round;stroke-miterlimit:10;stroke-dasharray:0,8;" cx="215.125" cy="114.18" rx="42.006" ry="42.006"/>
			<path style="fill:none;stroke:#FFFFFF;stroke-miterlimit:10;" d="M394.582,243.441H293.017c-4.648,0-8.415-3.768-8.415-8.415
				v-94.601c0-4.648,3.768-8.415,8.415-8.415h101.565c4.648,0,8.415,3.768,8.415,8.415v94.601
				C402.998,239.673,399.23,243.441,394.582,243.441z"/>
			<g>
				<g>
					<linearGradient id="SVGID_1_" gradientUnits="userSpaceOnUse" x1="295.7917" y1="263.1735" x2="295.7917" y2="167.929">
						<stop  offset="0" style="stop-color:#D8E2F6"/>
						<stop  offset="0.0097" style="stop-color:#DAE3F6"/>
						<stop  offset="0.1219" style="stop-color:#EBF0FA"/>
						<stop  offset="0.2609" style="stop-color:#F6F9FD"/>
						<stop  offset="0.4566" style="stop-color:#FDFEFF"/>
						<stop  offset="1" style="stop-color:#FFFFFF"/>
					</linearGradient>
					<path style="fill:url(#SVGID_1_);" d="M196.13,119.185v104.893c0,5.107,4.14,9.247,9.247,9.247h180.829
						c5.107,0,9.247-4.14,9.247-9.247V119.185H196.13z"/>
					
						<linearGradient id="SVGID_00000095299529504606017640000004178019369566391428_" gradientUnits="userSpaceOnUse" x1="295.7917" y1="144.7777" x2="295.7917" y2="92.1556">
						<stop  offset="0" style="stop-color:#6060E7"/>
						<stop  offset="1" style="stop-color:#8182EE"/>
					</linearGradient>
					<path style="fill:url(#SVGID_00000095299529504606017640000004178019369566391428_);" d="M386.206,98.294H205.377
						c-5.107,0-9.247,4.14-9.247,9.247v18.702h199.323v-18.702C395.453,102.434,391.313,98.294,386.206,98.294z"/>
					<g>
						
							<linearGradient id="SVGID_00000067916606517897422920000015055763044238068110_" gradientUnits="userSpaceOnUse" x1="217.1928" y1="53.0791" x2="217.1928" y2="137.1668">
							<stop  offset="0" style="stop-color:#D8E2F6"/>
							<stop  offset="0.0097" style="stop-color:#DAE3F6"/>
							<stop  offset="0.1219" style="stop-color:#EBF0FA"/>
							<stop  offset="0.2609" style="stop-color:#F6F9FD"/>
							<stop  offset="0.4566" style="stop-color:#FDFEFF"/>
							<stop  offset="1" style="stop-color:#FFFFFF"/>
						</linearGradient>
						<path style="fill:url(#SVGID_00000067916606517897422920000015055763044238068110_);" d="M217.193,112.268L217.193,112.268
							c-2.459,0-4.452-1.993-4.452-4.452V92.129c0-2.459,1.993-4.452,4.452-4.452l0,0c2.459,0,4.452,1.993,4.452,4.452v15.687
							C221.645,110.275,219.652,112.268,217.193,112.268z"/>
						
							<linearGradient id="SVGID_00000093149705322214951870000014362049455657608621_" gradientUnits="userSpaceOnUse" x1="269.5921" y1="53.0791" x2="269.5921" y2="137.1668">
							<stop  offset="0" style="stop-color:#D8E2F6"/>
							<stop  offset="0.0097" style="stop-color:#DAE3F6"/>
							<stop  offset="0.1219" style="stop-color:#EBF0FA"/>
							<stop  offset="0.2609" style="stop-color:#F6F9FD"/>
							<stop  offset="0.4566" style="stop-color:#FDFEFF"/>
							<stop  offset="1" style="stop-color:#FFFFFF"/>
						</linearGradient>
						<path style="fill:url(#SVGID_00000093149705322214951870000014362049455657608621_);" d="M269.592,112.268L269.592,112.268
							c-2.459,0-4.452-1.993-4.452-4.452V92.129c0-2.459,1.993-4.452,4.452-4.452l0,0c2.459,0,4.452,1.993,4.452,4.452v15.687
							C274.044,110.275,272.051,112.268,269.592,112.268z"/>
						
							<linearGradient id="SVGID_00000115497763833718768820000013259582117950117268_" gradientUnits="userSpaceOnUse" x1="321.9913" y1="53.0791" x2="321.9913" y2="137.1668">
							<stop  offset="0" style="stop-color:#D8E2F6"/>
							<stop  offset="0.0097" style="stop-color:#DAE3F6"/>
							<stop  offset="0.1219" style="stop-color:#EBF0FA"/>
							<stop  offset="0.2609" style="stop-color:#F6F9FD"/>
							<stop  offset="0.4566" style="stop-color:#FDFEFF"/>
							<stop  offset="1" style="stop-color:#FFFFFF"/>
						</linearGradient>
						<path style="fill:url(#SVGID_00000115497763833718768820000013259582117950117268_);" d="M321.991,112.268L321.991,112.268
							c-2.459,0-4.452-1.993-4.452-4.452V92.129c0-2.459,1.993-4.452,4.452-4.452l0,0c2.459,0,4.452,1.993,4.452,4.452v15.687
							C326.444,110.275,324.45,112.268,321.991,112.268z"/>
						
							<linearGradient id="SVGID_00000089538747018958142830000014941763107175939490_" gradientUnits="userSpaceOnUse" x1="374.3906" y1="53.0791" x2="374.3906" y2="137.1668">
							<stop  offset="0" style="stop-color:#D8E2F6"/>
							<stop  offset="0.0097" style="stop-color:#DAE3F6"/>
							<stop  offset="0.1219" style="stop-color:#EBF0FA"/>
							<stop  offset="0.2609" style="stop-color:#F6F9FD"/>
							<stop  offset="0.4566" style="stop-color:#FDFEFF"/>
							<stop  offset="1" style="stop-color:#FFFFFF"/>
						</linearGradient>
						<path style="fill:url(#SVGID_00000089538747018958142830000014941763107175939490_);" d="M374.391,112.268L374.391,112.268
							c-2.459,0-4.452-1.993-4.452-4.452V92.129c0-2.459,1.993-4.452,4.452-4.452l0,0c2.459,0,4.452,1.993,4.452,4.452v15.687
							C378.843,110.275,376.849,112.268,374.391,112.268z"/>
					</g>
				</g>
				<g>
					<g>
						<path style="fill:#C2D6FF;" d="M244.472,162.716h-21.173c-0.855,0-1.548-0.693-1.548-1.548v-21.173
							c0-0.855,0.693-1.548,1.548-1.548h21.173c0.855,0,1.548,0.693,1.548,1.548v21.173
							C246.02,162.023,245.327,162.716,244.472,162.716z"/>
						<path style="fill:#A6C7FF;" d="M275.425,162.716h-21.173c-0.855,0-1.548-0.693-1.548-1.548v-21.173
							c0-0.855,0.693-1.548,1.548-1.548h21.173c0.855,0,1.548,0.693,1.548,1.548v21.173
							C276.973,162.023,276.28,162.716,275.425,162.716z"/>
						<path style="fill:#C2D6FF;" d="M306.378,162.716h-21.173c-0.855,0-1.548-0.693-1.548-1.548v-21.173
							c0-0.855,0.693-1.548,1.548-1.548h21.173c0.855,0,1.548,0.693,1.548,1.548v21.173
							C307.926,162.023,307.233,162.716,306.378,162.716z"/>
						<path style="fill:#C2D6FF;" d="M337.331,162.716h-21.173c-0.855,0-1.548-0.693-1.548-1.548v-21.173
							c0-0.855,0.693-1.548,1.548-1.548h21.173c0.855,0,1.548,0.693,1.548,1.548v21.173
							C338.879,162.023,338.186,162.716,337.331,162.716z"/>
						<path style="fill:#C2D6FF;" d="M368.284,162.716h-21.173c-0.855,0-1.548-0.693-1.548-1.548v-21.173
							c0-0.855,0.693-1.548,1.548-1.548h21.173c0.855,0,1.548,0.693,1.548,1.548v21.173
							C369.832,162.023,369.139,162.716,368.284,162.716z"/>
					</g>
					<g>
						<path style="fill:#C2D6FF;" d="M244.472,192.121h-21.173c-0.855,0-1.548-0.693-1.548-1.548V169.4
							c0-0.855,0.693-1.548,1.548-1.548h21.173c0.855,0,1.548,0.693,1.548,1.548v21.173
							C246.02,191.428,245.327,192.121,244.472,192.121z"/>
						
							<linearGradient id="SVGID_00000012462177461015871110000009903601762926319250_" gradientUnits="userSpaceOnUse" x1="252.7044" y1="179.9869" x2="276.9728" y2="179.9869">
							<stop  offset="0" style="stop-color:#6060E7"/>
							<stop  offset="1" style="stop-color:#8182EE"/>
						</linearGradient>
						<path style="fill:url(#SVGID_00000012462177461015871110000009903601762926319250_);" d="M275.425,192.121h-21.173
							c-0.855,0-1.548-0.693-1.548-1.548V169.4c0-0.855,0.693-1.548,1.548-1.548h21.173c0.855,0,1.548,0.693,1.548,1.548v21.173
							C276.973,191.428,276.28,192.121,275.425,192.121z"/>
						<path style="fill:#C2D6FF;" d="M306.378,192.121h-21.173c-0.855,0-1.548-0.693-1.548-1.548V169.4
							c0-0.855,0.693-1.548,1.548-1.548h21.173c0.855,0,1.548,0.693,1.548,1.548v21.173
							C307.926,191.428,307.233,192.121,306.378,192.121z"/>
						<path style="fill:#D4E5FF;" d="M337.331,192.121h-21.173c-0.855,0-1.548-0.693-1.548-1.548V169.4
							c0-0.855,0.693-1.548,1.548-1.548h21.173c0.855,0,1.548,0.693,1.548,1.548v21.173
							C338.879,191.428,338.186,192.121,337.331,192.121z"/>
						<path style="fill:#D4E5FF;" d="M368.284,192.121h-21.173c-0.855,0-1.548-0.693-1.548-1.548V169.4
							c0-0.855,0.693-1.548,1.548-1.548h21.173c0.855,0,1.548,0.693,1.548,1.548v21.173
							C369.832,191.428,369.139,192.121,368.284,192.121z"/>
					</g>
					<g>
						<path style="fill:#A6C7FF;" d="M244.472,221.527h-21.173c-0.855,0-1.548-0.693-1.548-1.548v-21.173
							c0-0.855,0.693-1.548,1.548-1.548h21.173c0.855,0,1.548,0.693,1.548,1.548v21.173
							C246.02,220.834,245.327,221.527,244.472,221.527z"/>
						<path style="fill:#C2D6FF;" d="M275.425,221.527h-21.173c-0.855,0-1.548-0.693-1.548-1.548v-21.173
							c0-0.855,0.693-1.548,1.548-1.548h21.173c0.855,0,1.548,0.693,1.548,1.548v21.173
							C276.973,220.834,276.28,221.527,275.425,221.527z"/>
						<path style="fill:#C2D6FF;" d="M306.378,221.527h-21.173c-0.855,0-1.548-0.693-1.548-1.548v-21.173
							c0-0.855,0.693-1.548,1.548-1.548h21.173c0.855,0,1.548,0.693,1.548,1.548v21.173
							C307.926,220.834,307.233,221.527,306.378,221.527z"/>
						<path style="fill:#C2D6FF;" d="M337.331,221.527h-21.173c-0.855,0-1.548-0.693-1.548-1.548v-21.173
							c0-0.855,0.693-1.548,1.548-1.548h21.173c0.855,0,1.548,0.693,1.548,1.548v21.173
							C338.879,220.834,338.186,221.527,337.331,221.527z"/>
						<path style="fill:#C2D6FF;" d="M368.284,221.527h-21.173c-0.855,0-1.548-0.693-1.548-1.548v-21.173
							c0-0.855,0.693-1.548,1.548-1.548h21.173c0.855,0,1.548,0.693,1.548,1.548v21.173
							C369.832,220.834,369.139,221.527,368.284,221.527z"/>
					</g>
				</g>
			</g>
		</g>
		
			<path style="fill:none;stroke:#8182EE;stroke-width:2;stroke-linecap:round;stroke-linejoin:round;stroke-miterlimit:10;stroke-dasharray:0,8;" d="
			M145.199,290.513c-46.691,0-84.541-37.85-84.541-84.541"/>
		
			<line style="fill:none;stroke:#8182EE;stroke-width:2;stroke-linecap:round;stroke-linejoin:round;stroke-miterlimit:10;stroke-dasharray:0,8;" x1="412.816" y1="142.843" x2="412.816" y2="174.57"/>
		<g>
			
				<linearGradient id="SVGID_00000090989091385751942610000016778881268933918393_" gradientUnits="userSpaceOnUse" x1="360.0173" y1="309.0451" x2="372.7855" y2="255.0706">
				<stop  offset="0" style="stop-color:#6060E7"/>
				<stop  offset="1" style="stop-color:#8182EE"/>
			</linearGradient>
			<path style="fill:url(#SVGID_00000090989091385751942610000016778881268933918393_);" d="M415.568,285.146h-93.633
				c-2.333,0-4.224-1.891-4.224-4.224v-17.6c0-2.333,1.891-4.224,4.224-4.224h93.633c2.333,0,4.224,1.891,4.224,4.224v17.6
				C419.792,283.255,417.901,285.146,415.568,285.146z"/>
			<path style="fill:#FFFFFF;" d="M404.691,269.848h-69.935c-1.122,0-2.031-0.909-2.031-2.031l0,0c0-1.122,0.909-2.031,2.031-2.031
				h69.935c1.122,0,2.031,0.909,2.031,2.031l0,0C406.722,268.938,405.812,269.848,404.691,269.848z"/>
			<path style="fill:#FFFFFF;" d="M348.201,278.166h-13.445c-1.122,0-2.031-0.909-2.031-2.031l0,0c0-1.122,0.909-2.031,2.031-2.031
				h13.445c1.122,0,2.031,0.91,2.031,2.031l0,0C350.232,277.257,349.323,278.166,348.201,278.166z"/>
		</g>
		<g>
			
				<linearGradient id="SVGID_00000086649918232286945410000008570007203541677978_" gradientUnits="userSpaceOnUse" x1="381.4647" y1="268.9534" x2="398.4487" y2="197.1575">
				<stop  offset="0" style="stop-color:#6060E7"/>
				<stop  offset="1" style="stop-color:#8182EE"/>
			</linearGradient>
			<circle style="fill:url(#SVGID_00000086649918232286945410000008570007203541677978_);" cx="393.083" cy="219.839" r="31.34"/>
			
				<linearGradient id="SVGID_00000036240232852559924860000016631000512913066164_" gradientUnits="userSpaceOnUse" x1="383.4728" y1="260.4645" x2="397.5213" y2="201.0778">
				<stop  offset="0" style="stop-color:#D8E2F6"/>
				<stop  offset="0.0097" style="stop-color:#DAE3F6"/>
				<stop  offset="0.1219" style="stop-color:#EBF0FA"/>
				<stop  offset="0.2609" style="stop-color:#F6F9FD"/>
				<stop  offset="0.4566" style="stop-color:#FDFEFF"/>
				<stop  offset="1" style="stop-color:#FFFFFF"/>
			</linearGradient>
			<circle style="fill:url(#SVGID_00000036240232852559924860000016631000512913066164_);" cx="393.083" cy="219.839" r="25.923"/>
			
				<linearGradient id="SVGID_00000152977933865327570530000002801306579005727113_" gradientUnits="userSpaceOnUse" x1="393.5958" y1="223.7878" x2="398.6501" y2="202.4218">
				<stop  offset="0" style="stop-color:#6060E7"/>
				<stop  offset="1" style="stop-color:#8182EE"/>
			</linearGradient>
			
				<polyline style="fill:none;stroke:url(#SVGID_00000152977933865327570530000002801306579005727113_);stroke-width:2;stroke-linecap:round;stroke-linejoin:round;stroke-miterlimit:10;" points="
				392.696,202.041 392.696,222.547 402.176,213.068 			"/>
		</g>
		
			<linearGradient id="SVGID_00000028290787608036174330000011793631680794644914_" gradientUnits="userSpaceOnUse" x1="359.0158" y1="315.645" x2="362.149" y2="302.4005">
			<stop  offset="0" style="stop-color:#6060E7"/>
			<stop  offset="1" style="stop-color:#8182EE"/>
		</linearGradient>
		
			<path style="fill:none;stroke:url(#SVGID_00000028290787608036174330000011793631680794644914_);stroke-width:2;stroke-linecap:round;stroke-linejoin:round;stroke-miterlimit:10;" d="
			M366.386,309.023c0,3.205-2.598,5.804-5.804,5.804c-3.205,0-5.804-2.599-5.804-5.804s2.598-5.804,5.804-5.804
			C363.788,303.219,366.386,305.817,366.386,309.023z"/>
		
			<linearGradient id="SVGID_00000132051989289388010610000003124415417117220258_" gradientUnits="userSpaceOnUse" x1="362.6412" y1="329.7604" x2="363.9404" y2="324.2681">
			<stop  offset="0" style="stop-color:#6060E7"/>
			<stop  offset="1" style="stop-color:#8182EE"/>
		</linearGradient>
		
			<path style="fill:none;stroke:url(#SVGID_00000132051989289388010610000003124415417117220258_);stroke-linecap:round;stroke-linejoin:round;stroke-miterlimit:10;" d="
			M365.612,327.014c0,1.282-1.039,2.321-2.322,2.321c-1.282,0-2.322-1.039-2.322-2.321c0-1.282,1.039-2.322,2.322-2.322
			C364.573,324.693,365.612,325.732,365.612,327.014z"/>
		
			<linearGradient id="SVGID_00000142156964029737389620000016699108613555423383_" gradientUnits="userSpaceOnUse" x1="67.8283" y1="261.1323" x2="76.3404" y2="306.0143">
			<stop  offset="0" style="stop-color:#6060E7"/>
			<stop  offset="1" style="stop-color:#8182EE"/>
		</linearGradient>
		<path style="fill:url(#SVGID_00000142156964029737389620000016699108613555423383_);" d="M77.748,276.715
			c0,3.846-3.118,6.965-6.965,6.965c-3.846,0-6.964-3.118-6.964-6.965c0-3.846,3.118-6.964,6.964-6.964
			C74.63,269.751,77.748,272.869,77.748,276.715z"/>
		
			<linearGradient id="SVGID_00000137838393278088988860000013886019414915365022_" gradientUnits="userSpaceOnUse" x1="178.2516" y1="81.5655" x2="182.9805" y2="106.5">
			<stop  offset="0" style="stop-color:#6060E7"/>
			<stop  offset="1" style="stop-color:#8182EE"/>
		</linearGradient>
		<path style="fill:url(#SVGID_00000137838393278088988860000013886019414915365022_);" d="M183.763,90.223
			c0,2.137-1.732,3.869-3.869,3.869s-3.869-1.732-3.869-3.869c0-2.137,1.732-3.869,3.869-3.869S183.763,88.086,183.763,90.223z"/>
		
			<linearGradient id="SVGID_00000135684475946987002690000010380956298967451306_" gradientUnits="userSpaceOnUse" x1="387.1852" y1="287.4038" x2="391.9142" y2="312.3383">
			<stop  offset="0" style="stop-color:#6060E7"/>
			<stop  offset="1" style="stop-color:#8182EE"/>
		</linearGradient>
		<path style="fill:url(#SVGID_00000135684475946987002690000010380956298967451306_);" d="M392.696,296.061
			c0,2.137-1.732,3.869-3.869,3.869s-3.869-1.732-3.869-3.869c0-2.137,1.732-3.869,3.869-3.869S392.696,293.924,392.696,296.061z"/>
		<g>
			<g>
				<path style="fill:#A1C2FF;" d="M230.473,430.488c0,0,16.73-61.504-35.209-88.441c-7.636-1.776,19.173,35.322,15.271,27.318
					c0,0-16.68-25.359-29.152-27.64c-5.05,0.826-5.05,0.826-5.05,0.826s23.581,26.606,16.993,31.897
					c-7.277,1.082-21.064-30.367-27.859-32.28c-6.795-1.913-6.795-1.913-6.795-1.913s19.97,26.981,17.781,32.092
					c-4.622-1.837-18.623-31.955-26.474-32.399c-7.851-0.444-12.075,5.432-12.075,5.432s22.251,14.509,21.531,20.676
					s-8.724,10.069-13.253,0.872c-4.529-9.198-6.962-16.146-15.578-18.625c-8.616-2.48-23.491,1.682-29.184,6.503
					c-5.341,4.331,31.356,17.341,23.214,20.401c-8.142,3.06-27.714-16.208-35.855-13.148c-8.142,3.06-39.776,31.569-37.679,33.819
					c2.097,2.25,26.827,8.143,26.827,8.143s11.953-11.462,23.033-12.41c11.08-0.948-2.2,9.002-2.2,9.002l35.776-7.149l50.93,12.842
					L230.473,430.488z"/>
			</g>
			<path style="fill:#8BA5EF;" d="M216.852,437.037c0,0,17.962,6.784,29.039-4.75c11.077-11.534,7.553-11.282,6.038-14.599
				c-1.515-3.317-15.277,9.629-16.161,6.209c-0.884-3.421,16.069-10.731,17.608-15.196c1.538-4.465,2.399-11.087-0.7-12.201
				c-3.099-1.114-36.661,21.553-42.904,17.065c-6.244-4.488,8.873-13.118,16.609-15.356s21.406-1.881,19.26-5.095
				c-2.146-3.214-10.88-18.962-42.742-19.583c-9.791,3.546-14.119,26.616-18.744,26.076c-4.626-0.54,13.166-24.516,9.172-25.159
				s-5.727-1.332-8.689,4.338c-2.962,5.67-7.634,20.694-14.991,19.305c-7.357-1.389,9.895-20.74,5.533-21.647
				c-4.361-0.907-12.671-0.196-15.415,2.846c-2.743,3.041-3.41,14.818-9.137,13.486c-5.727-1.332,3.559-11.925-2.857-11.524
				c-6.416,0.401-49.011,19.36-49.011,19.36S149.045,377.154,216.852,437.037z"/>
		</g>
		<g>
			
				<linearGradient id="SVGID_00000014626260498370295480000004747411486935842177_" gradientUnits="userSpaceOnUse" x1="210.4482" y1="380.0358" x2="166.7494" y2="322.2645">
				<stop  offset="0" style="stop-color:#FF8D02"/>
				<stop  offset="1" style="stop-color:#FFC757"/>
			</linearGradient>
			<path style="fill:url(#SVGID_00000014626260498370295480000004747411486935842177_);" d="M251.859,334.753
				c0,0-16.25,6.191-24.762,20.12s-32.501,35.596-52.62,27.858c-20.12-7.738-36.37-42.561-44.882-44.108
				c-8.512-1.548-16.25,4.643-11.607,16.25c4.643,11.607,31.727,55.716,70.418,65.001c38.691,9.286,69.644-20.12,69.644-20.12
				S272.753,349.455,251.859,334.753z"/>
			<g>
				<g>
					
						<linearGradient id="SVGID_00000160907122897138970410000012721767985299657147_" gradientUnits="userSpaceOnUse" x1="278.747" y1="220.5532" x2="324.0159" y2="387.6997">
						<stop  offset="0" style="stop-color:#842C01"/>
						<stop  offset="1" style="stop-color:#410C2B"/>
					</linearGradient>
					<path style="fill:url(#SVGID_00000160907122897138970410000012721767985299657147_);" d="M280.491,257.37
						c0,0,16.25,0.774,25.536,20.12c9.286,19.346,11.607,17.024,27.858,22.441s11.607,30.179,20.893,34.822
						c9.286,4.643,26.31,13.929,27.084,39.465c0.774,25.536-41.787,53.394-78.157,30.953s-31.727-50.299-39.465-63.454
						c-7.738-13.155-17.024-11.607-22.441-25.536c-5.417-13.929,6.191-25.536,6.964-33.275
						C249.538,275.168,258.824,251.953,280.491,257.37z"/>
					
						<linearGradient id="SVGID_00000026148202452782027590000004162730872573611689_" gradientUnits="userSpaceOnUse" x1="250.9163" y1="246.5366" x2="269.0318" y2="313.4245">
						<stop  offset="0" style="stop-color:#842C01"/>
						<stop  offset="1" style="stop-color:#410C2B"/>
					</linearGradient>
					<path style="fill:url(#SVGID_00000026148202452782027590000004162730872573611689_);" d="M283.027,257.722
						c0,0-21.667-7.667-41.333,10.333c-19.667,18-11,45.667,11.333,61.667c18.333-9.667,36-67,36-67L283.027,257.722z"/>
				</g>
				
					<linearGradient id="SVGID_00000176756586408101895940000015664941700233123720_" gradientUnits="userSpaceOnUse" x1="281.0779" y1="414.2167" x2="162.6824" y2="263.3207">
					<stop  offset="0" style="stop-color:#FF8D02"/>
					<stop  offset="1" style="stop-color:#FFC757"/>
				</linearGradient>
				<path style="fill:url(#SVGID_00000176756586408101895940000015664941700233123720_);" d="M314.733,354.292
					c-13.349-22.054-36.563-25.536-36.563-25.536c-11.027-2.322-27.277,5.223-34.242,11.607
					c-6.965,6.384-12.768,29.018-12.768,29.018s-15.09,20.313-15.09,29.599c0,9.286,7.545,16.831,7.545,22.054
					c0,3.984-0.339,14.717-1.787,21.133c17.636,0.017,35.485-2.439,52.86-7.204c23.421-6.422,37.618-20.839,48.16-38.922
					C323.292,383.432,322.146,366.539,314.733,354.292z"/>
				<path style="opacity:0.54;fill:#FFFFFF;" d="M290.263,332.698c-0.182-0.083-0.361-0.163-0.541-0.243
					c-16.81,24.339-40.088,28.134-42.686,28.483c-2.288-7.701-2.066-16.212-1.491-21.94c-0.22,0.174-0.424,0.347-0.632,0.521
					c-0.541,5.829-0.673,14.228,1.638,21.822l0.069,0.228l0.237-0.024C247.13,361.518,272.371,358.681,290.263,332.698z"/>
				<g>
					
						<linearGradient id="SVGID_00000059288548058027291480000010985536496508866726_" gradientUnits="userSpaceOnUse" x1="260.4818" y1="354.0289" x2="270.1127" y2="319.839">
						<stop  offset="0" style="stop-color:#FFB58E"/>
						<stop  offset="0.3031" style="stop-color:#FEB28B"/>
						<stop  offset="0.5455" style="stop-color:#FDA981"/>
						<stop  offset="0.7669" style="stop-color:#FA9A70"/>
						<stop  offset="0.9747" style="stop-color:#F68558"/>
						<stop  offset="1" style="stop-color:#F58255"/>
					</linearGradient>
					<path style="fill:url(#SVGID_00000059288548058027291480000010985536496508866726_);" d="M260.348,308.53
						c0,0-11.189,12.828-10.81,47.116c6.453-0.809,18.773-6.215,28.859-16.238c4.253-4.227,4.229-7.039,2.323-12.724
						c-0.938-2.799-0.056-9.798,1.374-17.721C281.967,297.533,260.348,308.53,260.348,308.53z"/>
					<g>
						<g>
							<g>
								
									<linearGradient id="SVGID_00000121241782450580652280000001147818253072808075_" gradientUnits="userSpaceOnUse" x1="259.8648" y1="257.4052" x2="278.4367" y2="320.0853">
									<stop  offset="0" style="stop-color:#FFB58E"/>
									<stop  offset="0.3282" style="stop-color:#FEB38B"/>
									<stop  offset="0.5908" style="stop-color:#FCAD81"/>
									<stop  offset="0.8298" style="stop-color:#F9A370"/>
									<stop  offset="1" style="stop-color:#F5985F"/>
								</linearGradient>
								<path style="fill:url(#SVGID_00000121241782450580652280000001147818253072808075_);" d="M252.948,271.067
									c-2.503,3.814-8.774,13.855-11.899,23.197c-2.735,8.178,1.662,17.157,9.863,19.821c11.784,3.828,28.865,4.513,33.407-1.436
									c6.744-8.831,21.903-23.775,11.872-40.084c-9.743-15.838-26.044-17.924-40.861-4.342
									C254.416,269.061,253.628,270.031,252.948,271.067z"/>
							</g>
							<g>
								<circle style="fill:#FF6E77;" cx="269.485" cy="302.43" r="5.625"/>
								<path style="fill:#FF6E77;" d="M240.271,299.994c2.733-0.383,4.839-2.725,4.839-5.564c0-1.896-0.941-3.569-2.378-4.588
									c-0.618,1.474-1.192,2.956-1.683,4.422C240.415,296.161,240.18,298.099,240.271,299.994z"/>
								<g>
									
										<linearGradient id="SVGID_00000166667720990483028220000006164677951917075623_" gradientUnits="userSpaceOnUse" x1="246.2847" y1="275.8494" x2="257.5348" y2="299.0995">
										<stop  offset="0" style="stop-color:#842C01"/>
										<stop  offset="1" style="stop-color:#410C2B"/>
									</linearGradient>
									<circle style="fill:url(#SVGID_00000166667720990483028220000006164677951917075623_);" cx="250.86" cy="285.305" r="2"/>
									
										<linearGradient id="SVGID_00000037664205685166647790000010645026978050631322_" gradientUnits="userSpaceOnUse" x1="260.5347" y1="280.0994" x2="271.7848" y2="303.3495">
										<stop  offset="0" style="stop-color:#842C01"/>
										<stop  offset="1" style="stop-color:#410C2B"/>
									</linearGradient>
									<circle style="fill:url(#SVGID_00000037664205685166647790000010645026978050631322_);" cx="265.11" cy="289.555" r="2"/>
									<path style="fill:#FFFFFF;" d="M249.36,298.68c0,0,5.5,1.25,7.75,1.25c0,2.25-2.867,4.754-6.625,2.875
										C247.985,301.555,249.36,298.68,249.36,298.68z"/>
								</g>
							</g>
						</g>
						
							<linearGradient id="SVGID_00000032642441972591454220000000899573472459240604_" gradientUnits="userSpaceOnUse" x1="265.576" y1="224.1204" x2="310.8451" y2="391.2675">
							<stop  offset="0" style="stop-color:#842C01"/>
							<stop  offset="1" style="stop-color:#410C2B"/>
						</linearGradient>
						<path style="fill:url(#SVGID_00000032642441972591454220000000899573472459240604_);" d="M259.125,263.418
							c0,0-8.023,18.109,27.192,38.364l4.494,2.925c0,0,12.232-9.321,10.162-22.419c-2.07-13.099-9.135-19.232-15.918-23.443
							C278.274,254.633,262.668,259.442,259.125,263.418z"/>
					</g>
					
						<linearGradient id="SVGID_00000170998259351567716820000011823313299406097315_" gradientUnits="userSpaceOnUse" x1="286.0969" y1="264.2222" x2="287.838" y2="300.2051">
						<stop  offset="0" style="stop-color:#FFB58E"/>
						<stop  offset="0.3282" style="stop-color:#FEB38B"/>
						<stop  offset="0.5908" style="stop-color:#FCAD81"/>
						<stop  offset="0.8298" style="stop-color:#F9A370"/>
						<stop  offset="1" style="stop-color:#F5985F"/>
					</linearGradient>
					<path style="fill:url(#SVGID_00000170998259351567716820000011823313299406097315_);" d="M285.93,304.557
						c0,0,7.247-4.458,8.155,1.292c0.909,5.75-9.727,9.401-11.369,6.731C281.074,309.91,285.93,304.557,285.93,304.557z"/>
				</g>
			</g>
			<path style="opacity:0.54;fill:#FFFFFF;" d="M287.345,430.329c8.435-25.818,3.838-51.252,3.776-51.576l-1.14,0.215
				c0.061,0.325,4.715,26.155-4.079,52.004C286.384,430.759,286.872,430.55,287.345,430.329z"/>
			
				<linearGradient id="SVGID_00000046304100753508159840000002151819741437660805_" gradientUnits="userSpaceOnUse" x1="322.8294" y1="403.3095" x2="295.1598" y2="345.3351">
				<stop  offset="0" style="stop-color:#FF8D02"/>
				<stop  offset="1" style="stop-color:#FFC757"/>
			</linearGradient>
			<path style="fill:url(#SVGID_00000046304100753508159840000002151819741437660805_);" d="M282.838,329.887l-0.026,0.029
				c0,0,39.169,35.58,28.668,82.139c4.278-4.875,8.01-10.256,11.367-16.014c0.444-12.609-0.702-29.502-8.114-41.749
				C305.092,338.363,290.309,332.125,282.838,329.887z"/>
			<g>
				
					<linearGradient id="SVGID_00000115497710985133921280000013007272220659557810_" gradientUnits="userSpaceOnUse" x1="100.0516" y1="328.1778" x2="117.2384" y2="328.1778">
					<stop  offset="0" style="stop-color:#FFB58E"/>
					<stop  offset="0.3282" style="stop-color:#FEB38B"/>
					<stop  offset="0.5908" style="stop-color:#FCAD81"/>
					<stop  offset="0.8298" style="stop-color:#F9A370"/>
					<stop  offset="1" style="stop-color:#F5985F"/>
				</linearGradient>
				<path style="fill:url(#SVGID_00000115497710985133921280000013007272220659557810_);" d="M117.238,321.158
					c0,0-11.916-7.266-15.113-5.232c-3.197,2.034-1.744,4.941-1.744,8.429s0,12.788,5.522,15.113
					c5.522,2.325,9.882,0.872,9.882,0.872L117.238,321.158z"/>
				<g>
					<path style="fill:#FF957A;" d="M113.997,331.798c-2.079,0.72-4.14,0.925-6.03,0.865c-0.028-0.005-0.061-0.014-0.088-0.018
						l-0.002,0.016c-3.049-0.111-5.609-0.922-7.035-1.474c0.077,0.449,0.172,0.898,0.277,1.345c1.588,0.56,3.972,1.21,6.765,1.298
						c0.537,0.118,2.178,0.578,2.089,1.818c-0.025,0.346-0.22,0.617-0.598,0.83c-1.183,0.665-3.887,0.549-7.317-1.121
						c0.271,0.604,0.591,1.168,0.957,1.689c1.641,0.635,3.206,0.974,4.523,0.974c0.953,0,1.777-0.174,2.407-0.528
						c0.714-0.402,1.135-1.027,1.189-1.762c0.061-0.852-0.301-1.49-0.819-1.968c1.316-0.126,2.68-0.387,4.061-0.866L113.997,331.798
						z"/>
					<path style="fill:#FF957A;" d="M100.464,317.726c-0.198,0.423-0.299,0.874-0.351,1.341c1.854,1.859,6.103,4.935,14.976,6.73
						l0.229-1.14C105.771,322.726,101.808,319.259,100.464,317.726z"/>
					<path style="fill:#FF957A;" d="M113.945,329.148l-0.098-1.158c-6.199,0.506-11.235-1.95-13.465-3.283
						c0,0.402,0.004,0.854,0.014,1.36c2.307,1.306,6.476,3.157,11.72,3.157C112.713,329.224,113.323,329.201,113.945,329.148z"/>
				</g>
				
					<linearGradient id="SVGID_00000065040248535626608280000013615938365506545598_" gradientUnits="userSpaceOnUse" x1="111.9461" y1="327.7035" x2="130.0267" y2="327.7035">
					<stop  offset="0" style="stop-color:#FFB58E"/>
					<stop  offset="0.3282" style="stop-color:#FEB38B"/>
					<stop  offset="0.5908" style="stop-color:#FCAD81"/>
					<stop  offset="0.8298" style="stop-color:#F9A370"/>
					<stop  offset="1" style="stop-color:#F5985F"/>
				</linearGradient>
				<path style="fill:url(#SVGID_00000065040248535626608280000013615938365506545598_);" d="M130.027,340.922
					c0,0-6.104-5.232-6.976-7.847c-0.872-2.616-0.291-8.429-2.034-11.044c-1.744-2.616-1.744-9.882-1.163-12.498
					c0.291-2.616-3.778-1.453-4.069,1.744c-0.291,3.197,0,5.813-0.291,8.429c-0.291,2.616-4.069,8.138-3.488,12.498
					c0.581,4.36-0.872,7.266,1.744,9.301c2.616,2.034,4.65,2.034,4.65,2.034l3.197,3.778L130.027,340.922z"/>
			</g>
			<g>
				
					<linearGradient id="SVGID_00000111882605538962822280000016719581579701489540_" gradientUnits="userSpaceOnUse" x1="120.9495" y1="333.5624" x2="123.2917" y2="343.1116">
					<stop  offset="0" style="stop-color:#6060E7"/>
					<stop  offset="1" style="stop-color:#8182EE"/>
				</linearGradient>
				<path style="fill:url(#SVGID_00000111882605538962822280000016719581579701489540_);" d="M115.956,343.555
					c0.239-0.837,9.286-2.322,10.447-7.255c2.031-1.161,4.933,2.322,4.353,5.513c-0.58,3.192-5.223,7.255-10.157,7.545
					C115.666,349.649,115.376,345.586,115.956,343.555z"/>
			</g>
		</g>
		<g>
			
				<linearGradient id="SVGID_00000062179275818257988780000010852573541439012751_" gradientUnits="userSpaceOnUse" x1="139.6144" y1="281.7653" x2="149.1037" y2="156.8223">
				<stop  offset="0" style="stop-color:#6060E7"/>
				<stop  offset="1" style="stop-color:#8182EE"/>
			</linearGradient>
			<circle style="fill:url(#SVGID_00000062179275818257988780000010852573541439012751_);" cx="145.265" cy="207.371" r="73.707"/>
			<g>
				
					<linearGradient id="SVGID_00000183949278783185930580000005548118978174772610_" gradientUnits="userSpaceOnUse" x1="268.1642" y1="174.993" x2="249.0119" y2="211.5563">
					<stop  offset="0" style="stop-color:#FFB58E"/>
					<stop  offset="0.3282" style="stop-color:#FEB38B"/>
					<stop  offset="0.5908" style="stop-color:#FCAD81"/>
					<stop  offset="0.8298" style="stop-color:#F9A370"/>
					<stop  offset="1" style="stop-color:#F5985F"/>
				</linearGradient>
				<path style="fill:url(#SVGID_00000183949278783185930580000005548118978174772610_);" d="M245.447,205.628
					c0,0,0-3.489,0.969-6.396c0.969-2.907,3.683-8.141,3.683-8.141c1.163-1.551,2.132,2.132,1.938,4.07
					c-0.194,1.939-1.163,3.877-0.775,4.264c0.388,0.388,0.388,0.388,0.388,0.388s-2.326-0.388,3.489-3.489
					c5.815-3.101,6.784-2.714,7.947-4.846c1.357-2.132,2.907-3.295,2.907-0.969c0,2.326,1.939,6.202-2.52,10.66
					c-4.458,4.458-8.528,3.877-9.497,5.04c-0.969,1.163-1.551,2.52-1.551,2.52L245.447,205.628z"/>
				<path style="fill:#FFFFFF;" d="M177.284,218.291c0,0,3.618-1.034,11.371,7.236c7.753,8.27,18.09,18.09,28.428,17.574
					c10.337-0.517,26.877-39.282,26.877-39.282s4.652,0.517,9.821,4.652c0,0-5.047,48.752-23.259,57.89
					c-15.53,7.791-36.181,5.169-49.103-5.686C168.497,249.821,155.575,219.325,177.284,218.291z"/>
			</g>
			<g>
				<defs>
					
						<ellipse id="SVGID_00000166672995352414544440000008736817129568923043_" transform="matrix(0.7071 -0.7071 0.7071 0.7071 -104.0866 163.4552)" cx="145.265" cy="207.371" rx="73.707" ry="73.707"/>
				</defs>
				<clipPath id="SVGID_00000136396192240705094670000004031728797297540270_">
					<use xlink:href="#SVGID_00000166672995352414544440000008736817129568923043_"  style="overflow:visible;"/>
				</clipPath>
				<g style="clip-path:url(#SVGID_00000136396192240705094670000004031728797297540270_);">
					<g>
						<polygon style="fill:#A1CAFF;" points="104.914,412.078 189.423,412.078 143.292,320.591 111.116,377.189 						"/>
						<g>
							<g>
								<path style="fill:#0D1B4A;" d="M190.46,473.225c0,0,4.693,5.797,5.521,6.349c0.828,0.552,13.802,6.901,12.974,7.453
									c-0.828,0.552-26.5-2.208-26.5-2.208l1.104-7.453l-0.276-3.864L190.46,473.225z"/>
								<path style="fill:#0D1B4A;" d="M95.503,473.776c0,0,4.693,5.797,5.521,6.349c0.828,0.552,13.802,6.901,12.974,7.453
									c-0.828,0.552-26.5-2.208-26.5-2.208l1.104-7.453l-0.276-3.865L95.503,473.776z"/>
								
									<linearGradient id="SVGID_00000107588512166301972290000005252338169782807979_" gradientUnits="userSpaceOnUse" x1="146.9697" y1="284.888" x2="196.8817" y2="472.928">
									<stop  offset="0" style="stop-color:#25437F"/>
									<stop  offset="1" style="stop-color:#6060E7"/>
								</linearGradient>
								<path style="fill:url(#SVGID_00000107588512166301972290000005252338169782807979_);" d="M175.922,300.241
									c0,0,7.361,54.471,10.305,80.235c2.944,25.764,7.361,92.749,7.361,92.749s-3.68,3.681-12.514,1.472
									c0,0-19.139-80.236-22.083-91.277c-2.945-11.042-31.653-78.763-31.653-78.763L175.922,300.241z"/>
								
									<linearGradient id="SVGID_00000144297899188976607940000011544482317839348915_" gradientUnits="userSpaceOnUse" x1="87.5901" y1="387.8043" x2="150.1591" y2="387.8043">
									<stop  offset="0" style="stop-color:#6060E7"/>
									<stop  offset="1" style="stop-color:#25437F"/>
								</linearGradient>
								<path style="fill:url(#SVGID_00000144297899188976607940000011544482317839348915_);" d="M102.312,315.699
									c0,0,0.736,47.846,2.944,68.457c0,0-16.93,83.916-17.666,91.277c0,0,6.625,4.416,13.25,1.472c0,0,26.5-75.082,31.653-92.749
									c5.153-17.667,17.667-80.235,17.667-80.235s-25.764-11.778-43.43-2.945C106.729,300.976,101.576,303.921,102.312,315.699z"
									/>
								<g>
									
										<linearGradient id="SVGID_00000085217647805670035110000017356541192199398824_" gradientUnits="userSpaceOnUse" x1="153.8565" y1="182.0705" x2="137.606" y2="206.4462">
										<stop  offset="0" style="stop-color:#FFB58E"/>
										<stop  offset="0.3282" style="stop-color:#FEB38B"/>
										<stop  offset="0.5908" style="stop-color:#FCAD81"/>
										<stop  offset="0.8298" style="stop-color:#F9A370"/>
										<stop  offset="1" style="stop-color:#F5985F"/>
									</linearGradient>
									<polygon style="fill:url(#SVGID_00000085217647805670035110000017356541192199398824_);" points="151.263,186.145 
										154.207,209.7 131.756,209.7 135.805,180.992 									"/>
									<path style="fill:#FF6746;" d="M151.579,188.673l-16.232-4.435l-0.764,5.419c0.678,2.85,2.747,7.756,9.097,11.148
										c4.038,1.758,7.347,2.005,9.643,1.819L151.579,188.673z"/>
									<g>
										<g>
											
												<linearGradient id="SVGID_00000031182246394310742590000014499715513028486321_" gradientUnits="userSpaceOnUse" x1="164.4059" y1="156.5774" x2="138.8696" y2="187.337">
												<stop  offset="0" style="stop-color:#FFB58E"/>
												<stop  offset="0.3282" style="stop-color:#FEB38B"/>
												<stop  offset="0.5908" style="stop-color:#FCAD81"/>
												<stop  offset="0.8298" style="stop-color:#F9A370"/>
												<stop  offset="1" style="stop-color:#F5985F"/>
											</linearGradient>
											<path style="fill:url(#SVGID_00000031182246394310742590000014499715513028486321_);" d="M129.51,174.768
												c0.883,9.393,13.042,25.734,22.435,24.851c9.392-0.883,12.461-18.657,11.578-28.05
												c-0.883-9.393-9.213-16.29-18.605-15.407C135.525,157.046,128.627,165.376,129.51,174.768z"/>
											
												<linearGradient id="SVGID_00000168802187036322134210000010873618885675352762_" gradientUnits="userSpaceOnUse" x1="149.3074" y1="145.3478" x2="145.8252" y2="190.2298">
												<stop  offset="0" style="stop-color:#6060E7"/>
												<stop  offset="1" style="stop-color:#25437F"/>
											</linearGradient>
											<path style="fill:url(#SVGID_00000168802187036322134210000010873618885675352762_);" d="M128.813,166.121
												c0,0-1.052-8.295,4.79-11.099c5.842-2.804,21.264,0.935,26.872-6.075c5.608-7.01,12.852,3.972,9.347,9.58
												c-3.505,5.608-5.099,11.962-22.666,9.113c-8.646-1.402-10.515,4.44-10.048,7.244c0.467,2.804,3.505,7.477,3.505,8.646
												c0,1.169-1.87,1.169-2.57,0.234c-0.701-0.934-1.636-6.075-4.907-5.374c-3.271,0.701,0.701,7.711,3.505,8.646
												c0,0,0.935,1.402,0.234,2.57c-0.701,1.169-11.683-7.244-11.917-15.188C124.723,166.472,128.813,166.121,128.813,166.121z
												"/>
										</g>
									</g>
									
										<linearGradient id="SVGID_00000085224207153941345700000009841484127373042832_" gradientUnits="userSpaceOnUse" x1="135.2196" y1="312.4574" x2="142.184" y2="220.7587">
										<stop  offset="0" style="stop-color:#1196C3"/>
										<stop  offset="1" style="stop-color:#02B2CA"/>
									</linearGradient>
									<path style="fill:url(#SVGID_00000085224207153941345700000009841484127373042832_);" d="M154.207,204.731l-7.177,3.313
										l-14.354-4.417l-4.141,4.969c0,0-27.88,10.489-28.432,13.25c-0.552,2.76,13.802,82.259,13.802,82.259v6.073h63.489
										l1.045-89.472L156.968,209.7L154.207,204.731z"/>
									
										<linearGradient id="SVGID_00000147934203080112220270000017140874079859782844_" gradientUnits="userSpaceOnUse" x1="152.6042" y1="145.6035" x2="149.122" y2="190.4855">
										<stop  offset="0" style="stop-color:#6060E7"/>
										<stop  offset="1" style="stop-color:#25437F"/>
									</linearGradient>
									<path style="fill:url(#SVGID_00000147934203080112220270000017140874079859782844_);" d="M138.911,180.252
										c0,0,1.84,2.025,3.128,6.073c1.288,4.049,4.233-1.656,10.121-3.129c5.889-1.472,10.305,1.288,10.122,4.601
										c-0.184,3.313-4.481,12.051-10.89,12.559c-6.409,0.507-11.378-4.83-12.113-8.694c-0.736-3.865-0.92-7.545-2.392-9.937
										C136.703,179.516,138.911,180.252,138.911,180.252z"/>
								</g>
								<polygon style="fill:#254DA1;" points="147.951,216.141 152.735,274.477 148.134,281.286 142.982,274.477 145.374,215.773 
																	"/>
							</g>
						</g>
						<path style="fill:#FFFFFF;" d="M125.847,209.334c0,0,13.956,38.378,5.039,94.588c-8.916,56.21-13.18,113.583-13.18,113.583
							s-29.462,0.387-36.827-1.551c0,0,9.304-53.884,16.669-93.813s6.59-36.44,6.59-37.602c0-1.163-4.652-45.356-4.652-45.356
							l-2.695-18.442C96.792,220.742,116.544,211.66,125.847,209.334z"/>
						<path style="fill:#FFFFFF;" d="M160.995,211.789c0,0,17.057,159.714,17.057,207.783h26.878c0,0-3.618-65.126-11.371-97.172
							c-7.753-32.046-13.439-103.375-13.439-103.375S173.917,214.891,160.995,211.789z"/>
						<polyline style="fill:none;stroke:#218498;stroke-width:0.25;stroke-miterlimit:10;" points="130.693,209.722 
							139.415,219.413 146.587,215.343 152.208,219.995 157.248,211.079 						"/>
						
							<linearGradient id="SVGID_00000150806969578420913670000004257492486854807231_" gradientUnits="userSpaceOnUse" x1="90.0951" y1="376.7933" x2="81.97" y2="338.4889">
							<stop  offset="0" style="stop-color:#FFB58E"/>
							<stop  offset="0.3282" style="stop-color:#FEB38B"/>
							<stop  offset="0.5908" style="stop-color:#FCAD81"/>
							<stop  offset="0.8298" style="stop-color:#F9A370"/>
							<stop  offset="1" style="stop-color:#F5985F"/>
						</linearGradient>
						<path style="fill:url(#SVGID_00000150806969578420913670000004257492486854807231_);" d="M79.91,348.696
							c0,0-0.582,9.497,1.551,13.762c1.357,1.744,8.528,6.396,8.916,4.652c0.387-1.744-2.326-9.497-2.132-10.467
							c0,0,1.938,3.683,3.295,3.101c1.357-0.581-0.194-4.458-1.357-6.59c-1.163-2.132-3.101-4.652-3.101-4.652L79.91,348.696z"/>
						<path style="fill:#FFFFFF;" d="M96.792,220.742c0,0-19.53,22.06-19.53,72.714c0,50.137,0.775,56.339,0.775,56.339h11.63
							c0,0,5.169-46.519,8.787-67.193c3.618-20.675,22.225-33.597,20.675-49.103C117.578,217.992,103.916,216.255,96.792,220.742z"
							/>
						<polygon style="fill:none;stroke:#A6D0F4;stroke-width:0.25;stroke-miterlimit:10;" points="99.487,329.12 117.319,329.12 
							113.055,354.705 95.223,354.317 						"/>
						<path style="fill:none;stroke:#A6D0F4;stroke-width:0.25;stroke-miterlimit:10;" d="M175.273,326.6l16.282-0.194
							c0,0,2.907,21.127,2.907,23.065l-16.863,0.387L175.273,326.6z"/>
					</g>
					<path style="fill:#FFFFFF;" d="M180.119,219.025c0,0,10.639,5.428,13.639,32.095c3,26.667,3,26.667,3,26.667l-22.333,0.667
						L180.119,219.025z"/>
				</g>
			</g>
		</g>
		<g>
			
				<linearGradient id="SVGID_00000165944228485861684910000000878193053367008933_" gradientUnits="userSpaceOnUse" x1="102.2335" y1="225.1149" x2="80.8399" y2="139.5401">
				<stop  offset="0" style="stop-color:#FF8D02"/>
				<stop  offset="1" style="stop-color:#FFC757"/>
			</linearGradient>
			<path style="fill:url(#SVGID_00000165944228485861684910000000878193053367008933_);" d="M108.605,159.287h-36.37
				c-6.144,0-11.124,4.98-11.124,11.124v14.896c0,6.143,4.98,11.124,11.124,11.124h27.955l7.545,7.545v-7.545h0.871
				c6.143,0,11.124-4.98,11.124-11.124v-14.896C119.728,164.267,114.748,159.287,108.605,159.287z"/>
			<g>
				<path style="fill:#FFFFFF;" d="M107.831,175.828H71.848c-1.122,0-2.031-0.91-2.031-2.031l0,0c0-1.122,0.91-2.031,2.031-2.031
					h35.983c1.122,0,2.031,0.909,2.031,2.031l0,0C109.862,174.918,108.953,175.828,107.831,175.828z"/>
				<path style="fill:#FFFFFF;" d="M85.293,184.146H71.848c-1.122,0-2.031-0.909-2.031-2.031l0,0c0-1.122,0.91-2.031,2.031-2.031
					h13.445c1.122,0,2.031,0.91,2.031,2.031l0,0C87.324,183.237,86.415,184.146,85.293,184.146z"/>
			</g>
		</g>
		<g>
			
				<linearGradient id="SVGID_00000030464800423619738970000003643556045595997081_" gradientUnits="userSpaceOnUse" x1="209.2338" y1="424.5089" x2="285.9017" y2="424.5089">
				<stop  offset="0" style="stop-color:#6060E7"/>
				<stop  offset="1" style="stop-color:#8182EE"/>
			</linearGradient>
			<path style="fill:url(#SVGID_00000030464800423619738970000003643556045595997081_);" d="M285.902,430.973
				c0,0-4.542-25.918-19.875-24.585c-15.333,1.333-15.333,14.667-15.333,14.667s-6-7.333-14.667-2c-8.667,5.333-8,12.667-8,12.667
				s-8-4.667-14,1.333s-4.667,9.333-4.667,9.333S253.777,445.557,285.902,430.973z"/>
			
				<linearGradient id="SVGID_00000003073026327449233050000000394187640790580621_" gradientUnits="userSpaceOnUse" x1="306.1053" y1="391.7889" x2="342.2498" y2="391.7889">
				<stop  offset="0" style="stop-color:#6060E7"/>
				<stop  offset="1" style="stop-color:#8182EE"/>
			</linearGradient>
			<path style="fill:url(#SVGID_00000003073026327449233050000000394187640790580621_);" d="M307.36,400.388
				c0,0-4.667-11.333,4-16.667c4.667-0.667,6,5.333,6,5.333s0.667-11.333,11.333-12c10.667-0.667,4.667,13.333,4.667,13.333
				s6.667-1.333,8.667,4c2,5.333-10.101,12.158-10.101,12.158L307.36,400.388z"/>
			<path style="fill:#A1C2FF;" d="M311.36,423.055c-1.99,3.316-3.979,7.95-5.476,11.772c10.318,1.212,18.037,2.621,27.226,5.228
				c2.166-2.996,7.606-5.867,10.25-7c0.359,1.795-0.635,6.103-1.63,9.698c20.67,6.483,35.438,14.137,35.438,14.137
				c-0.787-7.989-4.967-19.928-4.967-19.928c-4.939-14.106-12.386-23.535-22.841-30.907c-2.819,0.585-8.023,1.386-10.25,2.5
				c0.808-2.424,2.597-6.097,3.687-7.438c-15.08-8.451-32.797-9.775-47.847-2.329c-27.796,13.754-29.674,39.059-29.674,39.059
				c9.064-2.285,20.228-4.268,29.82-3.883C297.767,431.319,304.984,424.649,311.36,423.055z"/>
		</g>
	</g>
</g>
</svg>
