<?xml version="1.0" encoding="utf-8"?>
<!-- Generator: Adobe Illustrator 27.5.0, SVG Export Plug-In . SVG Version: 6.00 Build 0)  -->
<svg version="1.1" xmlns="http://www.w3.org/2000/svg" xmlns:xlink="http://www.w3.org/1999/xlink" x="0px" y="0px"
	 viewBox="0 0 500 500" style="enable-background:new 0 0 500 500;" xml:space="preserve">
<g id="BACKGROUND">
	<rect y="-0.001" style="fill-rule:evenodd;clip-rule:evenodd;fill:#FFFFFF;" width="500" height="500.001"/>
</g>
<g id="OBJECTS">
	<g>
		<g>
			<g>
				<path style="fill-rule:evenodd;clip-rule:evenodd;fill:#B7DDF0;" d="M99.521,401.711
					c-81.961-34.116-57.483-139.527,9.598-180.297c30.512-18.545,64.905-30.238,67.145-78.256
					c4.065-87.284,94.003-87.999,151.193-42.453c47.619,37.923,35.906,84.402,72.311,114.761
					c40.538,33.803,109.759,104.578,36.275,177.436l-152.366,24.352L99.521,401.711L99.521,401.711z M142.955,187.281
					c48.848-42.189,2.748-108.787-43.19-70.875C52.017,155.811,68.837,251.296,142.955,187.281z"/>
				<g>
					<defs>
						<path id="SVGID_1_" d="M99.521,401.711c-81.961-34.116-57.483-139.527,9.598-180.297
							c30.512-18.545,64.905-30.238,67.145-78.256c4.065-87.284,94.003-87.999,151.193-42.453
							c47.619,37.923,35.906,84.402,72.311,114.761c40.538,33.803,109.759,104.578,36.275,177.436l-152.366,24.352L99.521,401.711
							L99.521,401.711z M142.955,187.281c48.848-42.189,2.748-108.787-43.19-70.875C52.017,155.811,68.837,251.296,142.955,187.281z
							"/>
					</defs>
					<clipPath id="SVGID_00000011004301422103565280000000786712995642476440_">
						<use xlink:href="#SVGID_1_"  style="overflow:visible;"/>
					</clipPath>
					<g style="clip-path:url(#SVGID_00000011004301422103565280000000786712995642476440_);">
						<path style="fill-rule:evenodd;clip-rule:evenodd;fill:#94CDE3;" d="M448.822,434.923h-0.333v-5.397h-18.891h-0.005h-0.004
							h-18.891v5.397h-0.334v-5.397h-18.891h-0.004h-0.004h-18.891v5.397h-0.334v-5.397h-18.892h-0.004h-0.005h-18.891v5.397h-0.333
							v-5.397h-18.891h-0.005h-0.004h-18.892v5.397h-0.332v-5.397h-18.892H277.1h-0.004h-18.891v5.397h-0.335v-5.397h-18.89h-0.004
							h-0.004h-18.891v5.397h-0.333v-5.397h-18.891h-0.004h-0.004h-18.891v5.397h-0.333v-5.397h-18.891h-0.004h-0.004h-18.891v5.397
							H143.5v-5.397h-18.891h-0.004h-0.004h-18.891v5.397h-0.333v-5.397H86.485H86.48h-0.004H67.586v5.397h-0.334v-5.397H48.362
							h-0.004h-0.004H37v-0.289h11.19v-9.467H37v-0.288h11.354h0.008h18.891v-9.47H48.362h-0.004h-0.004H37v-0.287h11.19v-9.468H37
							v-0.289h11.354h0.008h18.891V390.5H48.362h-0.004h-0.004H37v-0.287h11.19v-9.469H37v-0.287h11.354h0.008h18.891v-9.468H48.362
							h-0.004h-0.004H37v-0.288h11.19v-9.469H37v-0.288h11.354h0.008h18.891v-9.468H48.362h-0.004h-0.004H37v-0.288h11.19v-9.468H37
							v-0.287h11.354h0.008h18.891v-9.469H48.362h-0.004h-0.004H37v-0.288h11.19v-9.468H37v-0.289h11.354h0.008h18.891v-9.468
							H48.362h-0.004h-0.004H37v-0.287h11.19v-9.47H37v-0.286h11.354h0.008h18.891v-9.469H48.362h-0.004h-0.004H37v-0.288h11.19
							v-9.469H37v-0.288h11.354h0.008h18.891v-9.468H48.362h-0.004h-0.004H37v-0.288h11.19v-9.468H37v-0.287h11.354h0.008h18.891
							v-9.467H48.362h-0.004h-0.004H37v-0.29h11.19v-9.467H37v-0.289h11.354h0.008h18.891v-9.468H48.362h-0.004h-0.004H37v-0.287
							h11.19v-9.468H37v-0.288h11.354h0.008h18.891v-9.469H48.362h-0.004h-0.004H37v-0.289h11.19v-9.468H37v-0.287h11.354h0.008
							h18.891v-9.468H48.362h-0.004h-0.004H37v-0.287h11.19v-9.468H37v-0.288h11.354h0.008h18.891v-9.468H48.362h-0.004h-0.004H37
							v-0.289h11.19v-9.467H37v-0.288h11.354h0.008h18.891v-9.469H48.362h-0.004h-0.004H37v-0.287h11.19v-9.468H37v-0.288h11.354
							h0.008h18.891v-9.468H48.362h-0.004h-0.004H37v-0.289h11.19v-9.468H37v-0.288h11.354h0.008h18.891v-9.468H48.362h-0.004
							h-0.004H37v-0.288h11.19v-9.468H37v-0.288h11.354h0.008h18.891V97.82H48.362h-0.004h-0.004H37v-0.288h11.19v-9.468H37v-0.288
							h11.354h0.008h18.891v-9.468H48.362h-0.004h-0.004H37v-0.288h11.19v-9.468H37v-0.288h11.354h0.008h18.891v-9.468H48.362
							h-0.004h-0.004H37v-0.288h11.19V53.11h0.333v5.399h18.891h0.008h18.891V53.11h0.334v5.399h18.891h0.009h18.891V53.11h0.333
							v5.399h18.891h0.009h18.891V53.11h0.333v5.399h18.891h0.008h18.891V53.11h0.333v5.399h18.89h0.009h18.891V53.11h0.334v5.399
							h18.89h0.009h18.891V53.11h0.333v5.399h18.892h0.01h18.889V53.11h0.334v5.399h18.892h0.008h18.892V53.11h0.333v5.399h18.891
							h0.009h18.891V53.11h0.333v5.399h18.892h0.01h18.89V53.11h0.334v5.399h18.891h0.008h18.892V53.11h0.333v5.399h11.189v0.288
							h-11.353h-0.003h-0.006h-18.891v9.468h18.891h0.009h11.353v0.288h-11.189v9.468h11.189v0.288h-11.353h-0.003h-0.006h-18.891
							v9.468h18.891h0.009h11.353v0.288h-11.189v9.468h11.189v0.288h-11.353h-0.003h-0.006h-18.891v9.469h18.891h0.009h11.353v0.288
							h-11.189v9.468h11.189v0.288h-11.353h-0.003h-0.006h-18.891v9.468h18.891h0.009h11.353v0.288h-11.189v9.468h11.189v0.289
							h-11.353h-0.003h-0.006h-18.891v9.468h18.891h0.009h11.353v0.288h-11.189v9.468h11.189v0.287h-11.353h-0.003h-0.006h-18.891
							v9.469h18.891h0.009h11.353v0.288h-11.189v9.467h11.189v0.289h-11.353h-0.003h-0.006h-18.891v9.468h18.891h0.009h11.353v0.288
							h-11.189v9.468h11.189v0.287h-11.353h-0.003h-0.006h-18.891v9.468h18.891h0.009h11.353v0.287h-11.189v9.468h11.189v0.289
							h-11.353h-0.003h-0.006h-18.891v9.469h18.891h0.009h11.353v0.288h-11.189v9.468h11.189v0.287h-11.353h-0.003h-0.006h-18.891
							v9.468h18.891h0.009h11.353v0.289h-11.189v9.467h11.189v0.29h-11.353h-0.003h-0.006h-18.891v9.467h18.891h0.009h11.353v0.287
							h-11.189v9.468h11.189v0.288h-11.353h-0.003h-0.006h-18.891v9.468h18.891h0.009h11.353v0.288h-11.189v9.469h11.189v0.288
							h-11.353h-0.003h-0.006h-18.891v9.469h18.891h0.009h11.353v0.286h-11.189v9.47h11.189v0.287h-11.353h-0.003h-0.006h-18.891
							v9.468h18.891h0.009h11.353v0.289h-11.189v9.468h11.189v0.288h-11.353h-0.003h-0.006h-18.891v9.469h18.891h0.009h11.353v0.287
							h-11.189v9.468h11.189v0.288h-11.353h-0.003h-0.006h-18.891v9.468h18.891h0.009h11.353v0.288h-11.189v9.469h11.189v0.288
							h-11.353h-0.003h-0.006h-18.891v9.468h18.891h0.009h11.353v0.287h-11.189v9.469h11.189v0.287h-11.353h-0.003h-0.006h-18.891
							v9.468h18.891h0.009h11.353v0.289h-11.189v9.468h11.189v0.287h-11.353h-0.003h-0.006h-18.891v9.47h18.891h0.009h11.353v0.288
							h-11.189v9.467h11.189v0.289h-11.353h-0.003h-0.006h-18.891V434.923L448.822,434.923z M467.552,419.77H448.66h-0.003h-0.005
							h-18.891v9.467h18.891h0.008h18.892V419.77L467.552,419.77z M429.428,419.77h-18.89h-0.006h-0.004h-18.892v9.467h18.892h0.01
							h18.89V419.77L429.428,419.77z M391.304,419.77h-18.891h-0.005h-0.004h-18.891v9.467h18.891h0.009h18.891V419.77
							L391.304,419.77z M353.181,419.77h-18.892h-0.004h-0.004H315.39v9.467h18.892h0.008h18.892V419.77L353.181,419.77z
							 M315.056,419.77h-18.889h-0.006h-0.004h-18.892v9.467h18.892h0.01h18.889V419.77L315.056,419.77z M276.933,419.77h-18.891
							h-0.004h-0.005h-18.89v9.467h18.89h0.009h18.891V419.77L276.933,419.77z M238.809,419.77h-18.891h-0.005h-0.004h-18.89v9.467
							h18.89h0.009h18.891V419.77L238.809,419.77z M200.686,419.77h-18.891h-0.004h-0.004h-18.891v9.467h18.891h0.008h18.891V419.77
							L200.686,419.77z M162.562,419.77h-18.891h-0.004h-0.004h-18.891v9.467h18.891h0.009h18.891V419.77L162.562,419.77z
							 M124.438,419.77h-18.891h-0.004h-0.005H86.647v9.467h18.891h0.009h18.891V419.77L124.438,419.77z M86.314,419.77H67.423
							h-0.004h-0.004H48.524v9.467h18.891h0.008h18.891V419.77L86.314,419.77z M448.489,410.012h-18.891h-0.005h-0.004h-18.891v9.47
							h18.891h0.009h18.891V410.012L448.489,410.012z M410.365,410.012h-18.891h-0.004h-0.004h-18.891v9.47h18.891h0.008h18.891
							V410.012L410.365,410.012z M372.242,410.012h-18.892h-0.004h-0.005h-18.891v9.47h18.891h0.009h18.892V410.012L372.242,410.012
							z M334.118,410.012h-18.891h-0.005h-0.004h-18.892v9.47h18.892h0.009h18.891V410.012L334.118,410.012z M295.995,410.012
							h-18.892H277.1h-0.004h-18.891v9.47h18.891h0.008h18.892V410.012L295.995,410.012z M257.87,410.012h-18.89h-0.004h-0.004
							h-18.891v9.47h18.891h0.008h18.89V410.012L257.87,410.012z M219.747,410.012h-18.891h-0.004h-0.004h-18.891v9.47h18.891h0.008
							h18.891V410.012L219.747,410.012z M181.624,410.012h-18.891h-0.004h-0.004h-18.891v9.47h18.891h0.009h18.891V410.012
							L181.624,410.012z M143.5,410.012h-18.891h-0.004h-0.004h-18.891v9.47h18.891h0.008H143.5V410.012L143.5,410.012z
							 M105.376,410.012H86.485H86.48h-0.004H67.586v9.47h18.891h0.009h18.891V410.012L105.376,410.012z M467.552,400.257H448.66
							h-0.003h-0.005h-18.891v9.468h18.891h0.008h18.892V400.257L467.552,400.257z M429.428,400.257h-18.89h-0.006h-0.004h-18.892
							v9.468h18.892h0.01h18.89V400.257L429.428,400.257z M391.304,400.257h-18.891h-0.005h-0.004h-18.891v9.468h18.891h0.009
							h18.891V400.257L391.304,400.257z M353.181,400.257h-18.892h-0.004h-0.004H315.39v9.468h18.892h0.008h18.892V400.257
							L353.181,400.257z M315.056,400.257h-18.889h-0.006h-0.004h-18.892v9.468h18.892h0.01h18.889V400.257L315.056,400.257z
							 M276.933,400.257h-18.891h-0.004h-0.005h-18.89v9.468h18.89h0.009h18.891V400.257L276.933,400.257z M238.809,400.257h-18.891
							h-0.005h-0.004h-18.89v9.468h18.89h0.009h18.891V400.257L238.809,400.257z M200.686,400.257h-18.891h-0.004h-0.004h-18.891
							v9.468h18.891h0.008h18.891V400.257L200.686,400.257z M162.562,400.257h-18.891h-0.004h-0.004h-18.891v9.468h18.891h0.009
							h18.891V400.257L162.562,400.257z M124.438,400.257h-18.891h-0.004h-0.005H86.647v9.468h18.891h0.009h18.891V400.257
							L124.438,400.257z M86.314,400.257H67.423h-0.004h-0.004H48.524v9.468h18.891h0.008h18.891V400.257L86.314,400.257z
							 M448.489,390.5h-18.891h-0.005h-0.004h-18.891v9.468h18.891h0.009h18.891V390.5L448.489,390.5z M410.365,390.5h-18.891
							h-0.004h-0.004h-18.891v9.468h18.891h0.008h18.891V390.5L410.365,390.5z M372.242,390.5h-18.892h-0.004h-0.005h-18.891v9.468
							h18.891h0.009h18.892V390.5L372.242,390.5z M334.118,390.5h-18.891h-0.005h-0.004h-18.892v9.468h18.892h0.009h18.891V390.5
							L334.118,390.5z M295.995,390.5h-18.892H277.1h-0.004h-18.891v9.468h18.891h0.008h18.892V390.5L295.995,390.5z M257.87,390.5
							h-18.89h-0.004h-0.004h-18.891v9.468h18.891h0.008h18.89V390.5L257.87,390.5z M219.747,390.5h-18.891h-0.004h-0.004h-18.891
							v9.468h18.891h0.008h18.891V390.5L219.747,390.5z M181.624,390.5h-18.891h-0.004h-0.004h-18.891v9.468h18.891h0.009h18.891
							V390.5L181.624,390.5z M143.5,390.5h-18.891h-0.004h-0.004h-18.891v9.468h18.891h0.008H143.5V390.5L143.5,390.5z
							 M105.376,390.5H86.485H86.48h-0.004H67.586v9.468h18.891h0.009h18.891V390.5L105.376,390.5z M467.552,380.745H448.66h-0.003
							h-0.005h-18.891v9.469h18.891h0.008h18.892V380.745L467.552,380.745z M429.428,380.745h-18.89h-0.006h-0.004h-18.892v9.469
							h18.892h0.01h18.89V380.745L429.428,380.745z M391.304,380.745h-18.891h-0.005h-0.004h-18.891v9.469h18.891h0.009h18.891
							V380.745L391.304,380.745z M353.181,380.745h-18.892h-0.004h-0.004H315.39v9.469h18.892h0.008h18.892V380.745L353.181,380.745
							z M315.056,380.745h-18.889h-0.006h-0.004h-18.892v9.469h18.892h0.01h18.889V380.745L315.056,380.745z M276.933,380.745
							h-18.891h-0.004h-0.005h-18.89v9.469h18.89h0.009h18.891V380.745L276.933,380.745z M238.809,380.745h-18.891h-0.005h-0.004
							h-18.89v9.469h18.89h0.009h18.891V380.745L238.809,380.745z M200.686,380.745h-18.891h-0.004h-0.004h-18.891v9.469h18.891
							h0.008h18.891V380.745L200.686,380.745z M162.562,380.745h-18.891h-0.004h-0.004h-18.891v9.469h18.891h0.009h18.891V380.745
							L162.562,380.745z M124.438,380.745h-18.891h-0.004h-0.005H86.647v9.469h18.891h0.009h18.891V380.745L124.438,380.745z
							 M86.314,380.745H67.423h-0.004h-0.004H48.524v9.469h18.891h0.008h18.891V380.745L86.314,380.745z M448.489,370.99h-18.891
							h-0.005h-0.004h-18.891v9.468h18.891h0.009h18.891V370.99L448.489,370.99z M410.365,370.99h-18.891h-0.004h-0.004h-18.891
							v9.468h18.891h0.008h18.891V370.99L410.365,370.99z M372.242,370.99h-18.892h-0.004h-0.005h-18.891v9.468h18.891h0.009h18.892
							V370.99L372.242,370.99z M334.118,370.99h-18.891h-0.005h-0.004h-18.892v9.468h18.892h0.009h18.891V370.99L334.118,370.99z
							 M295.995,370.99h-18.892H277.1h-0.004h-18.891v9.468h18.891h0.008h18.892V370.99L295.995,370.99z M257.87,370.99h-18.89
							h-0.004h-0.004h-18.891v9.468h18.891h0.008h18.89V370.99L257.87,370.99z M219.747,370.99h-18.891h-0.004h-0.004h-18.891v9.468
							h18.891h0.008h18.891V370.99L219.747,370.99z M181.624,370.99h-18.891h-0.004h-0.004h-18.891v9.468h18.891h0.009h18.891
							V370.99L181.624,370.99z M143.5,370.99h-18.891h-0.004h-0.004h-18.891v9.468h18.891h0.008H143.5V370.99L143.5,370.99z
							 M105.376,370.99H86.485H86.48h-0.004H67.586v9.468h18.891h0.009h18.891V370.99L105.376,370.99z M467.552,361.233H448.66
							h-0.003h-0.005h-18.891v9.469h18.891h0.008h18.892V361.233L467.552,361.233z M429.428,361.233h-18.89h-0.006h-0.004h-18.892
							v9.469h18.892h0.01h18.89V361.233L429.428,361.233z M391.304,361.233h-18.891h-0.005h-0.004h-18.891v9.469h18.891h0.009
							h18.891V361.233L391.304,361.233z M353.181,361.233h-18.892h-0.004h-0.004H315.39v9.469h18.892h0.008h18.892V361.233
							L353.181,361.233z M315.056,361.233h-18.889h-0.006h-0.004h-18.892v9.469h18.892h0.01h18.889V361.233L315.056,361.233z
							 M276.933,361.233h-18.891h-0.004h-0.005h-18.89v9.469h18.89h0.009h18.891V361.233L276.933,361.233z M238.809,361.233h-18.891
							h-0.005h-0.004h-18.89v9.469h18.89h0.009h18.891V361.233L238.809,361.233z M200.686,361.233h-18.891h-0.004h-0.004h-18.891
							v9.469h18.891h0.008h18.891V361.233L200.686,361.233z M162.562,361.233h-18.891h-0.004h-0.004h-18.891v9.469h18.891h0.009
							h18.891V361.233L162.562,361.233z M124.438,361.233h-18.891h-0.004h-0.005H86.647v9.469h18.891h0.009h18.891V361.233
							L124.438,361.233z M86.314,361.233H67.423h-0.004h-0.004H48.524v9.469h18.891h0.008h18.891V361.233L86.314,361.233z
							 M448.489,351.477h-18.891h-0.005h-0.004h-18.891v9.468h18.891h0.009h18.891V351.477L448.489,351.477z M410.365,351.477
							h-18.891h-0.004h-0.004h-18.891v9.468h18.891h0.008h18.891V351.477L410.365,351.477z M372.242,351.477h-18.892h-0.004h-0.005
							h-18.891v9.468h18.891h0.009h18.892V351.477L372.242,351.477z M334.118,351.477h-18.891h-0.005h-0.004h-18.892v9.468h18.892
							h0.009h18.891V351.477L334.118,351.477z M295.995,351.477h-18.892H277.1h-0.004h-18.891v9.468h18.891h0.008h18.892V351.477
							L295.995,351.477z M257.87,351.477h-18.89h-0.004h-0.004h-18.891v9.468h18.891h0.008h18.89V351.477L257.87,351.477z
							 M219.747,351.477h-18.891h-0.004h-0.004h-18.891v9.468h18.891h0.008h18.891V351.477L219.747,351.477z M181.624,351.477
							h-18.891h-0.004h-0.004h-18.891v9.468h18.891h0.009h18.891V351.477L181.624,351.477z M143.5,351.477h-18.891h-0.004h-0.004
							h-18.891v9.468h18.891h0.008H143.5V351.477L143.5,351.477z M105.376,351.477H86.485H86.48h-0.004H67.586v9.468h18.891h0.009
							h18.891V351.477L105.376,351.477z M467.552,341.721H448.66h-0.003h-0.005h-18.891v9.468h18.891h0.008h18.892V341.721
							L467.552,341.721z M429.428,341.721h-18.89h-0.006h-0.004h-18.892v9.468h18.892h0.01h18.89V341.721L429.428,341.721z
							 M391.304,341.721h-18.891h-0.005h-0.004h-18.891v9.468h18.891h0.009h18.891V341.721L391.304,341.721z M353.181,341.721
							h-18.892h-0.004h-0.004H315.39v9.468h18.892h0.008h18.892V341.721L353.181,341.721z M315.056,341.721h-18.889h-0.006h-0.004
							h-18.892v9.468h18.892h0.01h18.889V341.721L315.056,341.721z M276.933,341.721h-18.891h-0.004h-0.005h-18.89v9.468h18.89
							h0.009h18.891V341.721L276.933,341.721z M238.809,341.721h-18.891h-0.005h-0.004h-18.89v9.468h18.89h0.009h18.891V341.721
							L238.809,341.721z M200.686,341.721h-18.891h-0.004h-0.004h-18.891v9.468h18.891h0.008h18.891V341.721L200.686,341.721z
							 M162.562,341.721h-18.891h-0.004h-0.004h-18.891v9.468h18.891h0.009h18.891V341.721L162.562,341.721z M124.438,341.721
							h-18.891h-0.004h-0.005H86.647v9.468h18.891h0.009h18.891V341.721L124.438,341.721z M86.314,341.721H67.423h-0.004h-0.004
							H48.524v9.468h18.891h0.008h18.891V341.721L86.314,341.721z M448.489,331.965h-18.891h-0.005h-0.004h-18.891v9.469h18.891
							h0.009h18.891V331.965L448.489,331.965z M410.365,331.965h-18.891h-0.004h-0.004h-18.891v9.469h18.891h0.008h18.891V331.965
							L410.365,331.965z M372.242,331.965h-18.892h-0.004h-0.005h-18.891v9.469h18.891h0.009h18.892V331.965L372.242,331.965z
							 M334.118,331.965h-18.891h-0.005h-0.004h-18.892v9.469h18.892h0.009h18.891V331.965L334.118,331.965z M295.995,331.965
							h-18.892H277.1h-0.004h-18.891v9.469h18.891h0.008h18.892V331.965L295.995,331.965z M257.87,331.965h-18.89h-0.004h-0.004
							h-18.891v9.469h18.891h0.008h18.89V331.965L257.87,331.965z M219.747,331.965h-18.891h-0.004h-0.004h-18.891v9.469h18.891
							h0.008h18.891V331.965L219.747,331.965z M181.624,331.965h-18.891h-0.004h-0.004h-18.891v9.469h18.891h0.009h18.891V331.965
							L181.624,331.965z M143.5,331.965h-18.891h-0.004h-0.004h-18.891v9.469h18.891h0.008H143.5V331.965L143.5,331.965z
							 M105.376,331.965H86.485H86.48h-0.004H67.586v9.469h18.891h0.009h18.891V331.965L105.376,331.965z M467.552,322.21H448.66
							h-0.003h-0.005h-18.891v9.468h18.891h0.008h18.892V322.21L467.552,322.21z M429.428,322.21h-18.89h-0.006h-0.004h-18.892
							v9.468h18.892h0.01h18.89V322.21L429.428,322.21z M391.304,322.21h-18.891h-0.005h-0.004h-18.891v9.468h18.891h0.009h18.891
							V322.21L391.304,322.21z M353.181,322.21h-18.892h-0.004h-0.004H315.39v9.468h18.892h0.008h18.892V322.21L353.181,322.21z
							 M315.056,322.21h-18.889h-0.006h-0.004h-18.892v9.468h18.892h0.01h18.889V322.21L315.056,322.21z M276.933,322.21h-18.891
							h-0.004h-0.005h-18.89v9.468h18.89h0.009h18.891V322.21L276.933,322.21z M238.809,322.21h-18.891h-0.005h-0.004h-18.89v9.468
							h18.89h0.009h18.891V322.21L238.809,322.21z M200.686,322.21h-18.891h-0.004h-0.004h-18.891v9.468h18.891h0.008h18.891V322.21
							L200.686,322.21z M162.562,322.21h-18.891h-0.004h-0.004h-18.891v9.468h18.891h0.009h18.891V322.21L162.562,322.21z
							 M124.438,322.21h-18.891h-0.004h-0.005H86.647v9.468h18.891h0.009h18.891V322.21L124.438,322.21z M86.314,322.21H67.423
							h-0.004h-0.004H48.524v9.468h18.891h0.008h18.891V322.21L86.314,322.21z M448.489,312.453h-18.891h-0.005h-0.004h-18.891
							v9.468h18.891h0.009h18.891V312.453L448.489,312.453z M410.365,312.453h-18.891h-0.004h-0.004h-18.891v9.468h18.891h0.008
							h18.891V312.453L410.365,312.453z M372.242,312.453h-18.892h-0.004h-0.005h-18.891v9.468h18.891h0.009h18.892V312.453
							L372.242,312.453z M334.118,312.453h-18.891h-0.005h-0.004h-18.892v9.468h18.892h0.009h18.891V312.453L334.118,312.453z
							 M295.995,312.453h-18.892H277.1h-0.004h-18.891v9.468h18.891h0.008h18.892V312.453L295.995,312.453z M257.87,312.453h-18.89
							h-0.004h-0.004h-18.891v9.468h18.891h0.008h18.89V312.453L257.87,312.453z M219.747,312.453h-18.891h-0.004h-0.004h-18.891
							v9.468h18.891h0.008h18.891V312.453L219.747,312.453z M181.624,312.453h-18.891h-0.004h-0.004h-18.891v9.468h18.891h0.009
							h18.891V312.453L181.624,312.453z M143.5,312.453h-18.891h-0.004h-0.004h-18.891v9.468h18.891h0.008H143.5V312.453
							L143.5,312.453z M105.376,312.453H86.485H86.48h-0.004H67.586v9.468h18.891h0.009h18.891V312.453L105.376,312.453z
							 M467.552,302.696H448.66h-0.003h-0.005h-18.891v9.47h18.891h0.008h18.892V302.696L467.552,302.696z M429.428,302.696h-18.89
							h-0.006h-0.004h-18.892v9.47h18.892h0.01h18.89V302.696L429.428,302.696z M391.304,302.696h-18.891h-0.005h-0.004h-18.891
							v9.47h18.891h0.009h18.891V302.696L391.304,302.696z M353.181,302.696h-18.892h-0.004h-0.004H315.39v9.47h18.892h0.008h18.892
							V302.696L353.181,302.696z M315.056,302.696h-18.889h-0.006h-0.004h-18.892v9.47h18.892h0.01h18.889V302.696L315.056,302.696z
							 M276.933,302.696h-18.891h-0.004h-0.005h-18.89v9.47h18.89h0.009h18.891V302.696L276.933,302.696z M238.809,302.696h-18.891
							h-0.005h-0.004h-18.89v9.47h18.89h0.009h18.891V302.696L238.809,302.696z M200.686,302.696h-18.891h-0.004h-0.004h-18.891
							v9.47h18.891h0.008h18.891V302.696L200.686,302.696z M162.562,302.696h-18.891h-0.004h-0.004h-18.891v9.47h18.891h0.009
							h18.891V302.696L162.562,302.696z M124.438,302.696h-18.891h-0.004h-0.005H86.647v9.47h18.891h0.009h18.891V302.696
							L124.438,302.696z M86.314,302.696H67.423h-0.004h-0.004H48.524v9.47h18.891h0.008h18.891V302.696L86.314,302.696z
							 M448.489,292.941h-18.891h-0.005h-0.004h-18.891v9.469h18.891h0.009h18.891V292.941L448.489,292.941z M410.365,292.941
							h-18.891h-0.004h-0.004h-18.891v9.469h18.891h0.008h18.891V292.941L410.365,292.941z M372.242,292.941h-18.892h-0.004h-0.005
							h-18.891v9.469h18.891h0.009h18.892V292.941L372.242,292.941z M334.118,292.941h-18.891h-0.005h-0.004h-18.892v9.469h18.892
							h0.009h18.891V292.941L334.118,292.941z M295.995,292.941h-18.892H277.1h-0.004h-18.891v9.469h18.891h0.008h18.892V292.941
							L295.995,292.941z M257.87,292.941h-18.89h-0.004h-0.004h-18.891v9.469h18.891h0.008h18.89V292.941L257.87,292.941z
							 M219.747,292.941h-18.891h-0.004h-0.004h-18.891v9.469h18.891h0.008h18.891V292.941L219.747,292.941z M181.624,292.941
							h-18.891h-0.004h-0.004h-18.891v9.469h18.891h0.009h18.891V292.941L181.624,292.941z M143.5,292.941h-18.891h-0.004h-0.004
							h-18.891v9.469h18.891h0.008H143.5V292.941L143.5,292.941z M105.376,292.941H86.485H86.48h-0.004H67.586v9.469h18.891h0.009
							h18.891V292.941L105.376,292.941z M467.552,283.184H448.66h-0.003h-0.005h-18.891v9.469h18.891h0.008h18.892V283.184
							L467.552,283.184z M429.428,283.184h-18.89h-0.006h-0.004h-18.892v9.469h18.892h0.01h18.89V283.184L429.428,283.184z
							 M391.304,283.184h-18.891h-0.005h-0.004h-18.891v9.469h18.891h0.009h18.891V283.184L391.304,283.184z M353.181,283.184
							h-18.892h-0.004h-0.004H315.39v9.469h18.892h0.008h18.892V283.184L353.181,283.184z M315.056,283.184h-18.889h-0.006h-0.004
							h-18.892v9.469h18.892h0.01h18.889V283.184L315.056,283.184z M276.933,283.184h-18.891h-0.004h-0.005h-18.89v9.469h18.89
							h0.009h18.891V283.184L276.933,283.184z M238.809,283.184h-18.891h-0.005h-0.004h-18.89v9.469h18.89h0.009h18.891V283.184
							L238.809,283.184z M200.686,283.184h-18.891h-0.004h-0.004h-18.891v9.469h18.891h0.008h18.891V283.184L200.686,283.184z
							 M162.562,283.184h-18.891h-0.004h-0.004h-18.891v9.469h18.891h0.009h18.891V283.184L162.562,283.184z M124.438,283.184
							h-18.891h-0.004h-0.005H86.647v9.469h18.891h0.009h18.891V283.184L124.438,283.184z M86.314,283.184H67.423h-0.004h-0.004
							H48.524v9.469h18.891h0.008h18.891V283.184L86.314,283.184z M448.489,273.428h-18.891h-0.005h-0.004h-18.891v9.468h18.891
							h0.009h18.891V273.428L448.489,273.428z M410.365,273.428h-18.891h-0.004h-0.004h-18.891v9.468h18.891h0.008h18.891V273.428
							L410.365,273.428z M372.242,273.428h-18.892h-0.004h-0.005h-18.891v9.468h18.891h0.009h18.892V273.428L372.242,273.428z
							 M334.118,273.428h-18.891h-0.005h-0.004h-18.892v9.468h18.892h0.009h18.891V273.428L334.118,273.428z M295.995,273.428
							h-18.892H277.1h-0.004h-18.891v9.468h18.891h0.008h18.892V273.428L295.995,273.428z M257.87,273.428h-18.89h-0.004h-0.004
							h-18.891v9.468h18.891h0.008h18.89V273.428L257.87,273.428z M219.747,273.428h-18.891h-0.004h-0.004h-18.891v9.468h18.891
							h0.008h18.891V273.428L219.747,273.428z M181.624,273.428h-18.891h-0.004h-0.004h-18.891v9.468h18.891h0.009h18.891V273.428
							L181.624,273.428z M143.5,273.428h-18.891h-0.004h-0.004h-18.891v9.468h18.891h0.008H143.5V273.428L143.5,273.428z
							 M105.376,273.428H86.485H86.48h-0.004H67.586v9.468h18.891h0.009h18.891V273.428L105.376,273.428z M467.552,263.672H448.66
							h-0.003h-0.005h-18.891v9.468h18.891h0.008h18.892V263.672L467.552,263.672z M429.428,263.672h-18.89h-0.006h-0.004h-18.892
							v9.468h18.892h0.01h18.89V263.672L429.428,263.672z M391.304,263.672h-18.891h-0.005h-0.004h-18.891v9.468h18.891h0.009
							h18.891V263.672L391.304,263.672z M353.181,263.672h-18.892h-0.004h-0.004H315.39v9.468h18.892h0.008h18.892V263.672
							L353.181,263.672z M315.056,263.672h-18.889h-0.006h-0.004h-18.892v9.468h18.892h0.01h18.889V263.672L315.056,263.672z
							 M276.933,263.672h-18.891h-0.004h-0.005h-18.89v9.468h18.89h0.009h18.891V263.672L276.933,263.672z M238.809,263.672h-18.891
							h-0.005h-0.004h-18.89v9.468h18.89h0.009h18.891V263.672L238.809,263.672z M200.686,263.672h-18.891h-0.004h-0.004h-18.891
							v9.468h18.891h0.008h18.891V263.672L200.686,263.672z M162.562,263.672h-18.891h-0.004h-0.004h-18.891v9.468h18.891h0.009
							h18.891V263.672L162.562,263.672z M124.438,263.672h-18.891h-0.004h-0.005H86.647v9.468h18.891h0.009h18.891V263.672
							L124.438,263.672z M86.314,263.672H67.423h-0.004h-0.004H48.524v9.468h18.891h0.008h18.891V263.672L86.314,263.672z
							 M448.489,253.919h-18.891h-0.005h-0.004h-18.891v9.467h18.891h0.009h18.891V253.919L448.489,253.919z M410.365,253.919
							h-18.891h-0.004h-0.004h-18.891v9.467h18.891h0.008h18.891V253.919L410.365,253.919z M372.242,253.919h-18.892h-0.004h-0.005
							h-18.891v9.467h18.891h0.009h18.892V253.919L372.242,253.919z M334.118,253.919h-18.891h-0.005h-0.004h-18.892v9.467h18.892
							h0.009h18.891V253.919L334.118,253.919z M295.995,253.919h-18.892H277.1h-0.004h-18.891v9.467h18.891h0.008h18.892V253.919
							L295.995,253.919z M257.87,253.919h-18.89h-0.004h-0.004h-18.891v9.467h18.891h0.008h18.89V253.919L257.87,253.919z
							 M219.747,253.919h-18.891h-0.004h-0.004h-18.891v9.467h18.891h0.008h18.891V253.919L219.747,253.919z M181.624,253.919
							h-18.891h-0.004h-0.004h-18.891v9.467h18.891h0.009h18.891V253.919L181.624,253.919z M143.5,253.919h-18.891h-0.004h-0.004
							h-18.891v9.467h18.891h0.008H143.5V253.919L143.5,253.919z M105.376,253.919H86.485H86.48h-0.004H67.586v9.467h18.891h0.009
							h18.891V253.919L105.376,253.919z M467.552,244.161H448.66h-0.003h-0.005h-18.891v9.467h18.891h0.008h18.892V244.161
							L467.552,244.161z M429.428,244.161h-18.89h-0.006h-0.004h-18.892v9.467h18.892h0.01h18.89V244.161L429.428,244.161z
							 M391.304,244.161h-18.891h-0.005h-0.004h-18.891v9.467h18.891h0.009h18.891V244.161L391.304,244.161z M353.181,244.161
							h-18.892h-0.004h-0.004H315.39v9.467h18.892h0.008h18.892V244.161L353.181,244.161z M315.056,244.161h-18.889h-0.006h-0.004
							h-18.892v9.467h18.892h0.01h18.889V244.161L315.056,244.161z M276.933,244.161h-18.891h-0.004h-0.005h-18.89v9.467h18.89
							h0.009h18.891V244.161L276.933,244.161z M238.809,244.161h-18.891h-0.005h-0.004h-18.89v9.467h18.89h0.009h18.891V244.161
							L238.809,244.161z M200.686,244.161h-18.891h-0.004h-0.004h-18.891v9.467h18.891h0.008h18.891V244.161L200.686,244.161z
							 M162.562,244.161h-18.891h-0.004h-0.004h-18.891v9.467h18.891h0.009h18.891V244.161L162.562,244.161z M124.438,244.161
							h-18.891h-0.004h-0.005H86.647v9.467h18.891h0.009h18.891V244.161L124.438,244.161z M86.314,244.161H67.423h-0.004h-0.004
							H48.524v9.467h18.891h0.008h18.891V244.161L86.314,244.161z M448.489,234.404h-18.891h-0.005h-0.004h-18.891v9.468h18.891
							h0.009h18.891V234.404L448.489,234.404z M410.365,234.404h-18.891h-0.004h-0.004h-18.891v9.468h18.891h0.008h18.891V234.404
							L410.365,234.404z M372.242,234.404h-18.892h-0.004h-0.005h-18.891v9.468h18.891h0.009h18.892V234.404L372.242,234.404z
							 M334.118,234.404h-18.891h-0.005h-0.004h-18.892v9.468h18.892h0.009h18.891V234.404L334.118,234.404z M295.995,234.404
							h-18.892H277.1h-0.004h-18.891v9.468h18.891h0.008h18.892V234.404L295.995,234.404z M257.87,234.404h-18.89h-0.004h-0.004
							h-18.891v9.468h18.891h0.008h18.89V234.404L257.87,234.404z M219.747,234.404h-18.891h-0.004h-0.004h-18.891v9.468h18.891
							h0.008h18.891V234.404L219.747,234.404z M181.624,234.404h-18.891h-0.004h-0.004h-18.891v9.468h18.891h0.009h18.891V234.404
							L181.624,234.404z M143.5,234.404h-18.891h-0.004h-0.004h-18.891v9.468h18.891h0.008H143.5V234.404L143.5,234.404z
							 M105.376,234.404H86.485H86.48h-0.004H67.586v9.468h18.891h0.009h18.891V234.404L105.376,234.404z M467.552,224.649H448.66
							h-0.003h-0.005h-18.891v9.468h18.891h0.008h18.892V224.649L467.552,224.649z M429.428,224.649h-18.89h-0.006h-0.004h-18.892
							v9.468h18.892h0.01h18.89V224.649L429.428,224.649z M391.304,224.649h-18.891h-0.005h-0.004h-18.891v9.468h18.891h0.009
							h18.891V224.649L391.304,224.649z M353.181,224.649h-18.892h-0.004h-0.004H315.39v9.468h18.892h0.008h18.892V224.649
							L353.181,224.649z M315.056,224.649h-18.889h-0.006h-0.004h-18.892v9.468h18.892h0.01h18.889V224.649L315.056,224.649z
							 M276.933,224.649h-18.891h-0.004h-0.005h-18.89v9.468h18.89h0.009h18.891V224.649L276.933,224.649z M238.809,224.649h-18.891
							h-0.005h-0.004h-18.89v9.468h18.89h0.009h18.891V224.649L238.809,224.649z M200.686,224.649h-18.891h-0.004h-0.004h-18.891
							v9.468h18.891h0.008h18.891V224.649L200.686,224.649z M162.562,224.649h-18.891h-0.004h-0.004h-18.891v9.468h18.891h0.009
							h18.891V224.649L162.562,224.649z M124.438,224.649h-18.891h-0.004h-0.005H86.647v9.468h18.891h0.009h18.891V224.649
							L124.438,224.649z M86.314,224.649H67.423h-0.004h-0.004H48.524v9.468h18.891h0.008h18.891V224.649L86.314,224.649z
							 M448.489,214.893h-18.891h-0.005h-0.004h-18.891v9.469h18.891h0.009h18.891V214.893L448.489,214.893z M410.365,214.893
							h-18.891h-0.004h-0.004h-18.891v9.469h18.891h0.008h18.891V214.893L410.365,214.893z M372.242,214.893h-18.892h-0.004h-0.005
							h-18.891v9.469h18.891h0.009h18.892V214.893L372.242,214.893z M334.118,214.893h-18.891h-0.005h-0.004h-18.892v9.469h18.892
							h0.009h18.891V214.893L334.118,214.893z M295.995,214.893h-18.892H277.1h-0.004h-18.891v9.469h18.891h0.008h18.892V214.893
							L295.995,214.893z M257.87,214.893h-18.89h-0.004h-0.004h-18.891v9.469h18.891h0.008h18.89V214.893L257.87,214.893z
							 M219.747,214.893h-18.891h-0.004h-0.004h-18.891v9.469h18.891h0.008h18.891V214.893L219.747,214.893z M181.624,214.893
							h-18.891h-0.004h-0.004h-18.891v9.469h18.891h0.009h18.891V214.893L181.624,214.893z M143.5,214.893h-18.891h-0.004h-0.004
							h-18.891v9.469h18.891h0.008H143.5V214.893L143.5,214.893z M105.376,214.893H86.485H86.48h-0.004H67.586v9.469h18.891h0.009
							h18.891V214.893L105.376,214.893z M467.552,205.136H448.66h-0.003h-0.005h-18.891v9.468h18.891h0.008h18.892V205.136
							L467.552,205.136z M429.428,205.136h-18.89h-0.006h-0.004h-18.892v9.468h18.892h0.01h18.89V205.136L429.428,205.136z
							 M391.304,205.136h-18.891h-0.005h-0.004h-18.891v9.468h18.891h0.009h18.891V205.136L391.304,205.136z M353.181,205.136
							h-18.892h-0.004h-0.004H315.39v9.468h18.892h0.008h18.892V205.136L353.181,205.136z M315.056,205.136h-18.889h-0.006h-0.004
							h-18.892v9.468h18.892h0.01h18.889V205.136L315.056,205.136z M276.933,205.136h-18.891h-0.004h-0.005h-18.89v9.468h18.89
							h0.009h18.891V205.136L276.933,205.136z M238.809,205.136h-18.891h-0.005h-0.004h-18.89v9.468h18.89h0.009h18.891V205.136
							L238.809,205.136z M200.686,205.136h-18.891h-0.004h-0.004h-18.891v9.468h18.891h0.008h18.891V205.136L200.686,205.136z
							 M162.562,205.136h-18.891h-0.004h-0.004h-18.891v9.468h18.891h0.009h18.891V205.136L162.562,205.136z M124.438,205.136
							h-18.891h-0.004h-0.005H86.647v9.468h18.891h0.009h18.891V205.136L124.438,205.136z M86.314,205.136H67.423h-0.004h-0.004
							H48.524v9.468h18.891h0.008h18.891V205.136L86.314,205.136z M448.489,195.38h-18.891h-0.005h-0.004h-18.891v9.468h18.891
							h0.009h18.891V195.38L448.489,195.38z M410.365,195.38h-18.891h-0.004h-0.004h-18.891v9.468h18.891h0.008h18.891V195.38
							L410.365,195.38z M372.242,195.38h-18.892h-0.004h-0.005h-18.891v9.468h18.891h0.009h18.892V195.38L372.242,195.38z
							 M334.118,195.38h-18.891h-0.005h-0.004h-18.892v9.468h18.892h0.009h18.891V195.38L334.118,195.38z M295.995,195.38h-18.892
							H277.1h-0.004h-18.891v9.468h18.891h0.008h18.892V195.38L295.995,195.38z M257.87,195.38h-18.89h-0.004h-0.004h-18.891v9.468
							h18.891h0.008h18.89V195.38L257.87,195.38z M219.747,195.38h-18.891h-0.004h-0.004h-18.891v9.468h18.891h0.008h18.891V195.38
							L219.747,195.38z M181.624,195.38h-18.891h-0.004h-0.004h-18.891v9.468h18.891h0.009h18.891V195.38L181.624,195.38z
							 M143.5,195.38h-18.891h-0.004h-0.004h-18.891v9.468h18.891h0.008H143.5V195.38L143.5,195.38z M105.376,195.38H86.485H86.48
							h-0.004H67.586v9.468h18.891h0.009h18.891V195.38L105.376,195.38z M467.552,185.625H448.66h-0.003h-0.005h-18.891v9.468
							h18.891h0.008h18.892V185.625L467.552,185.625z M429.428,185.625h-18.89h-0.006h-0.004h-18.892v9.468h18.892h0.01h18.89
							V185.625L429.428,185.625z M391.304,185.625h-18.891h-0.005h-0.004h-18.891v9.468h18.891h0.009h18.891V185.625
							L391.304,185.625z M353.181,185.625h-18.892h-0.004h-0.004H315.39v9.468h18.892h0.008h18.892V185.625L353.181,185.625z
							 M315.056,185.625h-18.889h-0.006h-0.004h-18.892v9.468h18.892h0.01h18.889V185.625L315.056,185.625z M276.933,185.625
							h-18.891h-0.004h-0.005h-18.89v9.468h18.89h0.009h18.891V185.625L276.933,185.625z M238.809,185.625h-18.891h-0.005h-0.004
							h-18.89v9.468h18.89h0.009h18.891V185.625L238.809,185.625z M200.686,185.625h-18.891h-0.004h-0.004h-18.891v9.468h18.891
							h0.008h18.891V185.625L200.686,185.625z M162.562,185.625h-18.891h-0.004h-0.004h-18.891v9.468h18.891h0.009h18.891V185.625
							L162.562,185.625z M124.438,185.625h-18.891h-0.004h-0.005H86.647v9.468h18.891h0.009h18.891V185.625L124.438,185.625z
							 M86.314,185.625H67.423h-0.004h-0.004H48.524v9.468h18.891h0.008h18.891V185.625L86.314,185.625z M448.489,175.869h-18.891
							h-0.005h-0.004h-18.891v9.468h18.891h0.009h18.891V175.869L448.489,175.869z M410.365,175.869h-18.891h-0.004h-0.004h-18.891
							v9.468h18.891h0.008h18.891V175.869L410.365,175.869z M372.242,175.869h-18.892h-0.004h-0.005h-18.891v9.468h18.891h0.009
							h18.892V175.869L372.242,175.869z M334.118,175.869h-18.891h-0.005h-0.004h-18.892v9.468h18.892h0.009h18.891V175.869
							L334.118,175.869z M295.995,175.869h-18.892H277.1h-0.004h-18.891v9.468h18.891h0.008h18.892V175.869L295.995,175.869z
							 M257.87,175.869h-18.89h-0.004h-0.004h-18.891v9.468h18.891h0.008h18.89V175.869L257.87,175.869z M219.747,175.869h-18.891
							h-0.004h-0.004h-18.891v9.468h18.891h0.008h18.891V175.869L219.747,175.869z M181.624,175.869h-18.891h-0.004h-0.004h-18.891
							v9.468h18.891h0.009h18.891V175.869L181.624,175.869z M143.5,175.869h-18.891h-0.004h-0.004h-18.891v9.468h18.891h0.008H143.5
							V175.869L143.5,175.869z M105.376,175.869H86.485H86.48h-0.004H67.586v9.468h18.891h0.009h18.891V175.869L105.376,175.869z
							 M467.552,166.113H448.66h-0.003h-0.005h-18.891v9.467h18.891h0.008h18.892V166.113L467.552,166.113z M429.428,166.113h-18.89
							h-0.006h-0.004h-18.892v9.467h18.892h0.01h18.89V166.113L429.428,166.113z M391.304,166.113h-18.891h-0.005h-0.004h-18.891
							v9.467h18.891h0.009h18.891V166.113L391.304,166.113z M353.181,166.113h-18.892h-0.004h-0.004H315.39v9.467h18.892h0.008
							h18.892V166.113L353.181,166.113z M315.056,166.113h-18.889h-0.006h-0.004h-18.892v9.467h18.892h0.01h18.889V166.113
							L315.056,166.113z M276.933,166.113h-18.891h-0.004h-0.005h-18.89v9.467h18.89h0.009h18.891V166.113L276.933,166.113z
							 M238.809,166.113h-18.891h-0.005h-0.004h-18.89v9.467h18.89h0.009h18.891V166.113L238.809,166.113z M200.686,166.113h-18.891
							h-0.004h-0.004h-18.891v9.467h18.891h0.008h18.891V166.113L200.686,166.113z M162.562,166.113h-18.891h-0.004h-0.004h-18.891
							v9.467h18.891h0.009h18.891V166.113L162.562,166.113z M124.438,166.113h-18.891h-0.004h-0.005H86.647v9.467h18.891h0.009
							h18.891V166.113L124.438,166.113z M86.314,166.113H67.423h-0.004h-0.004H48.524v9.467h18.891h0.008h18.891V166.113
							L86.314,166.113z M448.489,156.356h-18.891h-0.005h-0.004h-18.891v9.469h18.891h0.009h18.891V156.356L448.489,156.356z
							 M410.365,156.356h-18.891h-0.004h-0.004h-18.891v9.469h18.891h0.008h18.891V156.356L410.365,156.356z M372.242,156.356
							h-18.892h-0.004h-0.005h-18.891v9.469h18.891h0.009h18.892V156.356L372.242,156.356z M334.118,156.356h-18.891h-0.005h-0.004
							h-18.892v9.469h18.892h0.009h18.891V156.356L334.118,156.356z M295.995,156.356h-18.892H277.1h-0.004h-18.891v9.469h18.891
							h0.008h18.892V156.356L295.995,156.356z M257.87,156.356h-18.89h-0.004h-0.004h-18.891v9.469h18.891h0.008h18.89V156.356
							L257.87,156.356z M219.747,156.356h-18.891h-0.004h-0.004h-18.891v9.469h18.891h0.008h18.891V156.356L219.747,156.356z
							 M181.624,156.356h-18.891h-0.004h-0.004h-18.891v9.469h18.891h0.009h18.891V156.356L181.624,156.356z M143.5,156.356h-18.891
							h-0.004h-0.004h-18.891v9.469h18.891h0.008H143.5V156.356L143.5,156.356z M105.376,156.356H86.485H86.48h-0.004H67.586v9.469
							h18.891h0.009h18.891V156.356L105.376,156.356z M467.552,146.601H448.66h-0.003h-0.005h-18.891v9.468h18.891h0.008h18.892
							V146.601L467.552,146.601z M429.428,146.601h-18.89h-0.006h-0.004h-18.892v9.468h18.892h0.01h18.89V146.601L429.428,146.601z
							 M391.304,146.601h-18.891h-0.005h-0.004h-18.891v9.468h18.891h0.009h18.891V146.601L391.304,146.601z M353.181,146.601
							h-18.892h-0.004h-0.004H315.39v9.468h18.892h0.008h18.892V146.601L353.181,146.601z M315.056,146.601h-18.889h-0.006h-0.004
							h-18.892v9.468h18.892h0.01h18.889V146.601L315.056,146.601z M276.933,146.601h-18.891h-0.004h-0.005h-18.89v9.468h18.89
							h0.009h18.891V146.601L276.933,146.601z M238.809,146.601h-18.891h-0.005h-0.004h-18.89v9.468h18.89h0.009h18.891V146.601
							L238.809,146.601z M200.686,146.601h-18.891h-0.004h-0.004h-18.891v9.468h18.891h0.008h18.891V146.601L200.686,146.601z
							 M162.562,146.601h-18.891h-0.004h-0.004h-18.891v9.468h18.891h0.009h18.891V146.601L162.562,146.601z M124.438,146.601
							h-18.891h-0.004h-0.005H86.647v9.468h18.891h0.009h18.891V146.601L124.438,146.601z M86.314,146.601H67.423h-0.004h-0.004
							H48.524v9.468h18.891h0.008h18.891V146.601L86.314,146.601z M448.489,136.845h-18.891h-0.005h-0.004h-18.891v9.468h18.891
							h0.009h18.891V136.845L448.489,136.845z M410.365,136.845h-18.891h-0.004h-0.004h-18.891v9.468h18.891h0.008h18.891V136.845
							L410.365,136.845z M372.242,136.845h-18.892h-0.004h-0.005h-18.891v9.468h18.891h0.009h18.892V136.845L372.242,136.845z
							 M334.118,136.845h-18.891h-0.005h-0.004h-18.892v9.468h18.892h0.009h18.891V136.845L334.118,136.845z M295.995,136.845
							h-18.892H277.1h-0.004h-18.891v9.468h18.891h0.008h18.892V136.845L295.995,136.845z M257.87,136.845h-18.89h-0.004h-0.004
							h-18.891v9.468h18.891h0.008h18.89V136.845L257.87,136.845z M219.747,136.845h-18.891h-0.004h-0.004h-18.891v9.468h18.891
							h0.008h18.891V136.845L219.747,136.845z M181.624,136.845h-18.891h-0.004h-0.004h-18.891v9.468h18.891h0.009h18.891V136.845
							L181.624,136.845z M143.5,136.845h-18.891h-0.004h-0.004h-18.891v9.468h18.891h0.008H143.5V136.845L143.5,136.845z
							 M105.376,136.845H86.485H86.48h-0.004H67.586v9.468h18.891h0.009h18.891V136.845L105.376,136.845z M467.552,127.088H448.66
							h-0.003h-0.005h-18.891v9.468h18.891h0.008h18.892V127.088L467.552,127.088z M429.428,127.088h-18.89h-0.006h-0.004h-18.892
							v9.468h18.892h0.01h18.89V127.088L429.428,127.088z M391.304,127.088h-18.891h-0.005h-0.004h-18.891v9.468h18.891h0.009
							h18.891V127.088L391.304,127.088z M353.181,127.088h-18.892h-0.004h-0.004H315.39v9.468h18.892h0.008h18.892V127.088
							L353.181,127.088z M315.056,127.088h-18.889h-0.006h-0.004h-18.892v9.468h18.892h0.01h18.889V127.088L315.056,127.088z
							 M276.933,127.088h-18.891h-0.004h-0.005h-18.89v9.468h18.89h0.009h18.891V127.088L276.933,127.088z M238.809,127.088h-18.891
							h-0.005h-0.004h-18.89v9.468h18.89h0.009h18.891V127.088L238.809,127.088z M200.686,127.088h-18.891h-0.004h-0.004h-18.891
							v9.468h18.891h0.008h18.891V127.088L200.686,127.088z M162.562,127.088h-18.891h-0.004h-0.004h-18.891v9.468h18.891h0.009
							h18.891V127.088L162.562,127.088z M124.438,127.088h-18.891h-0.004h-0.005H86.647v9.468h18.891h0.009h18.891V127.088
							L124.438,127.088z M86.314,127.088H67.423h-0.004h-0.004H48.524v9.468h18.891h0.008h18.891V127.088L86.314,127.088z
							 M448.489,117.332h-18.891h-0.005h-0.004h-18.891v9.468h18.891h0.009h18.891V117.332L448.489,117.332z M410.365,117.332
							h-18.891h-0.004h-0.004h-18.891v9.468h18.891h0.008h18.891V117.332L410.365,117.332z M372.242,117.332h-18.892h-0.004h-0.005
							h-18.891v9.468h18.891h0.009h18.892V117.332L372.242,117.332z M334.118,117.332h-18.891h-0.005h-0.004h-18.892v9.468h18.892
							h0.009h18.891V117.332L334.118,117.332z M295.995,117.332h-18.892H277.1h-0.004h-18.891v9.468h18.891h0.008h18.892V117.332
							L295.995,117.332z M257.87,117.332h-18.89h-0.004h-0.004h-18.891v9.468h18.891h0.008h18.89V117.332L257.87,117.332z
							 M219.747,117.332h-18.891h-0.004h-0.004h-18.891v9.468h18.891h0.008h18.891V117.332L219.747,117.332z M181.624,117.332
							h-18.891h-0.004h-0.004h-18.891v9.468h18.891h0.009h18.891V117.332L181.624,117.332z M143.5,117.332h-18.891h-0.004h-0.004
							h-18.891v9.468h18.891h0.008H143.5V117.332L143.5,117.332z M105.376,117.332H86.485H86.48h-0.004H67.586v9.468h18.891h0.009
							h18.891V117.332L105.376,117.332z M467.552,107.577H448.66h-0.003h-0.005h-18.891v9.468h18.891h0.008h18.892V107.577
							L467.552,107.577z M429.428,107.577h-18.89h-0.006h-0.004h-18.892v9.468h18.892h0.01h18.89V107.577L429.428,107.577z
							 M391.304,107.577h-18.891h-0.005h-0.004h-18.891v9.468h18.891h0.009h18.891V107.577L391.304,107.577z M353.181,107.577
							h-18.892h-0.004h-0.004H315.39v9.468h18.892h0.008h18.892V107.577L353.181,107.577z M315.056,107.577h-18.889h-0.006h-0.004
							h-18.892v9.468h18.892h0.01h18.889V107.577L315.056,107.577z M276.933,107.577h-18.891h-0.004h-0.005h-18.89v9.468h18.89
							h0.009h18.891V107.577L276.933,107.577z M238.809,107.577h-18.891h-0.005h-0.004h-18.89v9.468h18.89h0.009h18.891V107.577
							L238.809,107.577z M200.686,107.577h-18.891h-0.004h-0.004h-18.891v9.468h18.891h0.008h18.891V107.577L200.686,107.577z
							 M162.562,107.577h-18.891h-0.004h-0.004h-18.891v9.468h18.891h0.009h18.891V107.577L162.562,107.577z M124.438,107.577
							h-18.891h-0.004h-0.005H86.647v9.468h18.891h0.009h18.891V107.577L124.438,107.577z M86.314,107.577H67.423h-0.004h-0.004
							H48.524v9.468h18.891h0.008h18.891V107.577L86.314,107.577z M448.489,97.82h-18.891h-0.005h-0.004h-18.891v9.469h18.891h0.009
							h18.891V97.82L448.489,97.82z M410.365,97.82h-18.891h-0.004h-0.004h-18.891v9.469h18.891h0.008h18.891V97.82L410.365,97.82z
							 M372.242,97.82h-18.892h-0.004h-0.005h-18.891v9.469h18.891h0.009h18.892V97.82L372.242,97.82z M334.118,97.82h-18.891
							h-0.005h-0.004h-18.892v9.469h18.892h0.009h18.891V97.82L334.118,97.82z M295.995,97.82h-18.892H277.1h-0.004h-18.891v9.469
							h18.891h0.008h18.892V97.82L295.995,97.82z M257.87,97.82h-18.89h-0.004h-0.004h-18.891v9.469h18.891h0.008h18.89V97.82
							L257.87,97.82z M219.747,97.82h-18.891h-0.004h-0.004h-18.891v9.469h18.891h0.008h18.891V97.82L219.747,97.82z M181.624,97.82
							h-18.891h-0.004h-0.004h-18.891v9.469h18.891h0.009h18.891V97.82L181.624,97.82z M143.5,97.82h-18.891h-0.004h-0.004h-18.891
							v9.469h18.891h0.008H143.5V97.82L143.5,97.82z M105.376,97.82H86.485H86.48h-0.004H67.586v9.469h18.891h0.009h18.891V97.82
							L105.376,97.82z M467.552,88.064H448.66h-0.003h-0.005h-18.891v9.468h18.891h0.008h18.892V88.064L467.552,88.064z
							 M429.428,88.064h-18.89h-0.006h-0.004h-18.892v9.468h18.892h0.01h18.89V88.064L429.428,88.064z M391.304,88.064h-18.891
							h-0.005h-0.004h-18.891v9.468h18.891h0.009h18.891V88.064L391.304,88.064z M353.181,88.064h-18.892h-0.004h-0.004H315.39
							v9.468h18.892h0.008h18.892V88.064L353.181,88.064z M315.056,88.064h-18.889h-0.006h-0.004h-18.892v9.468h18.892h0.01h18.889
							V88.064L315.056,88.064z M276.933,88.064h-18.891h-0.004h-0.005h-18.89v9.468h18.89h0.009h18.891V88.064L276.933,88.064z
							 M238.809,88.064h-18.891h-0.005h-0.004h-18.89v9.468h18.89h0.009h18.891V88.064L238.809,88.064z M200.686,88.064h-18.891
							h-0.004h-0.004h-18.891v9.468h18.891h0.008h18.891V88.064L200.686,88.064z M162.562,88.064h-18.891h-0.004h-0.004h-18.891
							v9.468h18.891h0.009h18.891V88.064L162.562,88.064z M124.438,88.064h-18.891h-0.004h-0.005H86.647v9.468h18.891h0.009h18.891
							V88.064L124.438,88.064z M86.314,88.064H67.423h-0.004h-0.004H48.524v9.468h18.891h0.008h18.891V88.064L86.314,88.064z
							 M448.489,78.309h-18.891h-0.005h-0.004h-18.891v9.468h18.891h0.009h18.891V78.309L448.489,78.309z M410.365,78.309h-18.891
							h-0.004h-0.004h-18.891v9.468h18.891h0.008h18.891V78.309L410.365,78.309z M372.242,78.309h-18.892h-0.004h-0.005h-18.891
							v9.468h18.891h0.009h18.892V78.309L372.242,78.309z M334.118,78.309h-18.891h-0.005h-0.004h-18.892v9.468h18.892h0.009h18.891
							V78.309L334.118,78.309z M295.995,78.309h-18.892H277.1h-0.004h-18.891v9.468h18.891h0.008h18.892V78.309L295.995,78.309z
							 M257.87,78.309h-18.89h-0.004h-0.004h-18.891v9.468h18.891h0.008h18.89V78.309L257.87,78.309z M219.747,78.309h-18.891
							h-0.004h-0.004h-18.891v9.468h18.891h0.008h18.891V78.309L219.747,78.309z M181.624,78.309h-18.891h-0.004h-0.004h-18.891
							v9.468h18.891h0.009h18.891V78.309L181.624,78.309z M143.5,78.309h-18.891h-0.004h-0.004h-18.891v9.468h18.891h0.008H143.5
							V78.309L143.5,78.309z M105.376,78.309H86.485H86.48h-0.004H67.586v9.468h18.891h0.009h18.891V78.309L105.376,78.309z
							 M467.552,68.553H448.66h-0.003h-0.005h-18.891v9.468h18.891h0.008h18.892V68.553L467.552,68.553z M429.428,68.553h-18.89
							h-0.006h-0.004h-18.892v9.468h18.892h0.01h18.89V68.553L429.428,68.553z M391.304,68.553h-18.891h-0.005h-0.004h-18.891v9.468
							h18.891h0.009h18.891V68.553L391.304,68.553z M353.181,68.553h-18.892h-0.004h-0.004H315.39v9.468h18.892h0.008h18.892V68.553
							L353.181,68.553z M315.056,68.553h-18.889h-0.006h-0.004h-18.892v9.468h18.892h0.01h18.889V68.553L315.056,68.553z
							 M276.933,68.553h-18.891h-0.004h-0.005h-18.89v9.468h18.89h0.009h18.891V68.553L276.933,68.553z M238.809,68.553h-18.891
							h-0.005h-0.004h-18.89v9.468h18.89h0.009h18.891V68.553L238.809,68.553z M200.686,68.553h-18.891h-0.004h-0.004h-18.891v9.468
							h18.891h0.008h18.891V68.553L200.686,68.553z M162.562,68.553h-18.891h-0.004h-0.004h-18.891v9.468h18.891h0.009h18.891
							V68.553L162.562,68.553z M124.438,68.553h-18.891h-0.004h-0.005H86.647v9.468h18.891h0.009h18.891V68.553L124.438,68.553z
							 M86.314,68.553H67.423h-0.004h-0.004H48.524v9.468h18.891h0.008h18.891V68.553L86.314,68.553z M448.489,58.797h-18.891
							h-0.005h-0.004h-18.891v9.468h18.891h0.009h18.891V58.797L448.489,58.797z M410.365,58.797h-18.891h-0.004h-0.004h-18.891
							v9.468h18.891h0.008h18.891V58.797L410.365,58.797z M372.242,58.797h-18.892h-0.004h-0.005h-18.891v9.468h18.891h0.009h18.892
							V58.797L372.242,58.797z M334.118,58.797h-18.891h-0.005h-0.004h-18.892v9.468h18.892h0.009h18.891V58.797L334.118,58.797z
							 M295.995,58.797h-18.892H277.1h-0.004h-18.891v9.468h18.891h0.008h18.892V58.797L295.995,58.797z M257.87,58.797h-18.89
							h-0.004h-0.004h-18.891v9.468h18.891h0.008h18.89V58.797L257.87,58.797z M219.747,58.797h-18.891h-0.004h-0.004h-18.891v9.468
							h18.891h0.008h18.891V58.797L219.747,58.797z M181.624,58.797h-18.891h-0.004h-0.004h-18.891v9.468h18.891h0.009h18.891
							V58.797L181.624,58.797z M143.5,58.797h-18.891h-0.004h-0.004h-18.891v9.468h18.891h0.008H143.5V58.797L143.5,58.797z
							 M105.376,58.797H86.485H86.48h-0.004H67.586v9.468h18.891h0.009h18.891V58.797z"/>
					</g>
				</g>
				<path style="fill-rule:evenodd;clip-rule:evenodd;fill:#94CDE3;" d="M99.521,402.71c-35.564-14.982-51.077-43.553-51.776-74.468
					H468.29c-0.809,20.999-9.951,43.179-32.247,65.553l-84.257,13.629H154.705L99.521,402.71z"/>
			</g>
			<path style="fill-rule:evenodd;clip-rule:evenodd;fill:#FFFFFF;" d="M345.218,194.681c1.749,0,3.424,0.315,4.974,0.89
				c0.7-0.771,1.71-1.255,2.833-1.255c0.524,0,1.022,0.105,1.478,0.296c0.251-3.296,3.003-5.891,6.364-5.891
				c1.457,0,2.802,0.489,3.876,1.313c0.689-0.946,1.805-1.563,3.064-1.563c0.213,0,0.418,0.018,0.618,0.051
				c-0.426-0.994-0.66-2.089-0.66-3.239c0-4.548,3.688-8.236,8.236-8.236c0.847,0,1.663,0.127,2.433,0.366
				c0.598-1.273,1.89-2.155,3.39-2.155l0.109,0.003c-0.019-0.297-0.029-0.596-0.029-0.898c0-8.175,6.628-14.803,14.803-14.803
				c8.177,0,14.802,6.628,14.802,14.803c0,0.115-0.002,0.229-0.004,0.342c0.714-0.18,1.464-0.277,2.233-0.277
				c1.53,0,2.975,0.38,4.24,1.05c2.156-2.944,5.639-4.855,9.569-4.855c6.549,0,11.857,5.308,11.857,11.857
				c0,1.287-0.206,2.527-0.586,3.687c0.119-0.007,0.238-0.011,0.358-0.011c3.225,0,5.838,2.614,5.838,5.838
				c0,0.38-0.035,0.75-0.104,1.108c0.04-0.001,0.082-0.002,0.121-0.002c1.823,0,3.307,1.446,3.366,3.253
				c0.506-0.095,1.027-0.146,1.562-0.146c2.105,0,4.076,0.732,5.493,2.074c3.793,3.588-0.349,4.52-4.338,4.52h-5.205h-4.085h-83.721
				h-6.534h-10.736c-4.159,0-10.103,0.681-5.973-3.669C337.46,196.39,341.139,194.681,345.218,194.681z"/>
			<g>
				<path style="fill-rule:evenodd;clip-rule:evenodd;fill:#FFFFFF;" d="M307.077,123.43h2.97c0.543,0,0.988,0.443,0.988,0.988
					v2.968c0,0.543-0.445,0.988-0.988,0.988h-2.97c-0.543,0-0.987-0.445-0.987-0.988v-2.968
					C306.09,123.873,306.534,123.43,307.077,123.43z"/>
				<path style="fill-rule:evenodd;clip-rule:evenodd;fill:#FFFFFF;" d="M317.214,123.43h2.97c0.542,0,0.987,0.443,0.987,0.988
					v2.968c0,0.543-0.445,0.988-0.987,0.988h-2.97c-0.543,0-0.988-0.445-0.988-0.988v-2.968
					C316.226,123.873,316.671,123.43,317.214,123.43z"/>
				<path style="fill-rule:evenodd;clip-rule:evenodd;fill:#FFFFFF;" d="M327.351,123.43h2.968c0.543,0,0.988,0.443,0.988,0.988
					v2.968c0,0.543-0.445,0.988-0.988,0.988h-2.968c-0.544,0-0.988-0.445-0.988-0.988v-2.968
					C326.362,123.873,326.807,123.43,327.351,123.43z"/>
				<path style="fill-rule:evenodd;clip-rule:evenodd;fill:#FFFFFF;" d="M337.486,123.43h2.969c0.543,0,0.988,0.443,0.988,0.988
					v2.968c0,0.543-0.445,0.988-0.988,0.988h-2.969c-0.543,0-0.989-0.445-0.989-0.988v-2.968
					C336.497,123.873,336.943,123.43,337.486,123.43z"/>
			</g>
			<path style="fill-rule:evenodd;clip-rule:evenodd;fill:#FFFFFF;" d="M293.015,109.3c1.205,0,2.359,0.217,3.428,0.614
				c0.482-0.532,1.178-0.866,1.952-0.866c0.362,0,0.704,0.073,1.018,0.204c0.174-2.271,2.07-4.059,4.385-4.059
				c1.005,0,1.932,0.337,2.673,0.904c0.474-0.652,1.243-1.077,2.111-1.077c0.144,0,0.287,0.013,0.424,0.034
				c-0.293-0.684-0.454-1.438-0.454-2.231c0-3.134,2.54-5.675,5.676-5.675c0.583,0,1.146,0.088,1.677,0.252
				c0.411-0.878,1.303-1.484,2.335-1.484l0.074,0.001c-0.012-0.205-0.019-0.411-0.019-0.618c0-5.633,4.565-10.2,10.2-10.2
				c5.633,0,10.2,4.567,10.2,10.2c0,0.079-0.002,0.158-0.004,0.236c0.493-0.125,1.008-0.191,1.539-0.191
				c1.056,0,2.049,0.262,2.921,0.724c1.488-2.028,3.888-3.347,6.595-3.347c4.514,0,8.172,3.659,8.172,8.171
				c0,0.888-0.143,1.741-0.404,2.541c0.082-0.005,0.163-0.007,0.246-0.007c2.223,0,4.023,1.8,4.023,4.023
				c0,0.261-0.025,0.516-0.071,0.763c0.027-0.001,0.056-0.001,0.084-0.001c1.255,0,2.278,0.997,2.318,2.243
				c0.349-0.066,0.709-0.101,1.076-0.101c1.452,0,2.808,0.504,3.784,1.429c2.615,2.472-0.239,3.114-2.989,3.114h-3.586h-2.814
				h-57.691h-4.503h-7.397c-2.865,0-6.961,0.47-4.117-2.528C287.67,110.478,290.204,109.3,293.015,109.3z"/>
			<path style="fill-rule:evenodd;clip-rule:evenodd;fill:#FFFFFF;" d="M120.342,320.806c-1.57,0-3.074,0.283-4.464,0.8
				c-0.629-0.692-1.537-1.126-2.545-1.126c-0.47,0-0.917,0.093-1.325,0.265c-0.225-2.959-2.697-5.29-5.714-5.29
				c-1.31,0-2.516,0.44-3.482,1.179c-0.617-0.849-1.619-1.401-2.75-1.401c-0.188,0-0.374,0.016-0.554,0.045
				c0.382-0.893,0.594-1.876,0.594-2.907c0-4.084-3.311-7.395-7.395-7.395c-0.761,0-1.494,0.114-2.186,0.328
				c-0.536-1.143-1.696-1.936-3.042-1.936l-0.098,0.002c0.016-0.266,0.024-0.533,0.024-0.804c0-7.34-5.949-13.29-13.289-13.29
				c-7.34,0-13.289,5.95-13.289,13.29c0,0.103,0.001,0.204,0.003,0.307c-0.641-0.162-1.313-0.25-2.004-0.25
				c-1.375,0-2.67,0.342-3.807,0.943c-1.937-2.643-5.062-4.359-8.591-4.359c-5.879,0-10.646,4.767-10.646,10.645
				c0,1.158,0.186,2.271,0.526,3.314c-0.107-0.009-0.214-0.012-0.322-0.012c-2.896,0-5.243,2.349-5.243,5.242
				c0,0.341,0.033,0.674,0.095,0.995c-0.036-0.002-0.073-0.002-0.11-0.002c-1.636,0-2.968,1.298-3.021,2.922
				c-0.455-0.086-0.923-0.132-1.403-0.132c-1.891,0-3.658,0.655-4.931,1.861c-3.406,3.22,0.312,4.058,3.895,4.058h4.672h3.667
				h75.165h5.867h9.639c3.734,0,9.068,0.611,5.362-3.293C127.306,322.341,124.003,320.806,120.342,320.806z"/>
		</g>
		<path style="fill-rule:evenodd;clip-rule:evenodd;fill:#387286;" d="M471.868,386.063H38.177c-4.457,0-8.102,3.646-8.102,8.102
			l0,0c0,4.456,3.646,8.103,8.102,8.103h38.667c4.572,0,8.313,3.74,8.313,8.311l0,0c0,4.571-3.741,8.312-8.313,8.312H60.905
			c-2.839,0-5.163,2.325-5.163,5.163l0,0c0,2.842,2.323,5.164,5.163,5.164c110.328,0,239.822,0,350.149,0
			c4.641,0,8.438-3.797,8.438-8.438l0,0c0-4.642-3.797-8.439-8.438-8.439h-38.573c-2.77,0-5.038-2.268-5.038-5.037l0,0
			c0-2.771,2.268-5.037,5.038-5.037h99.387c4.453,0,8.102-3.647,8.102-8.103l0,0C479.97,389.708,476.321,386.063,471.868,386.063
			L471.868,386.063z M434.795,429.218c-4.607,0-8.376-3.77-8.376-8.374v-0.126c0-4.605,3.769-8.376,8.376-8.376l0,0
			c4.606,0,8.375,3.77,8.375,8.376v0.126C443.17,425.45,439.401,429.218,434.795,429.218L434.795,429.218z"/>
		<path style="fill-rule:evenodd;clip-rule:evenodd;fill:#2B5C6E;" d="M282.295,386.063H179.863
			c-0.081,0.115-0.163,0.232-0.242,0.351c-6.399,9.598-16.197,34.393-16.197,34.393c88.981-24.895,89.08-24.994,89.08-24.994
			l99.115,26.559c0,0-2.037-11.362-10.235-14.761c-8.197-3.399-46.989-16.396-48.589-16.997
			C292.289,390.422,288.052,388.549,282.295,386.063z"/>
		<g>
			<g>
				<g>
					<path style="fill-rule:evenodd;clip-rule:evenodd;fill:#387286;" d="M422.929,243.186
						c13.445-13.688,23.447,3.701,22.049,21.156c-1.323,16.55-15.589,73.334-12.943,97.222h-5.464
						C413.209,330.931,405.716,260.711,422.929,243.186z"/>
					<path style="fill-rule:evenodd;clip-rule:evenodd;fill:#92B8C9;" d="M428.579,361.564
						c-13.006-48.283,3.459-115.023,3.515-115.251c0.101-0.413,0.518-0.668,0.933-0.567c0.415,0.1,0.669,0.518,0.567,0.933
						c-0.055,0.227-16.54,67.044-3.434,114.886H428.579z"/>
				</g>
				<g>
					<path style="fill-rule:evenodd;clip-rule:evenodd;fill:#5293AA;" d="M456.097,273.356c14.168-7.507,17.741,8.871,12.218,22.422
						c-4.577,11.229-24.799,44.445-32.446,65.786h-7.2C428.055,332.071,439.372,282.216,456.097,273.356z"/>
					<path style="fill-rule:evenodd;clip-rule:evenodd;fill:#E6F2F0;" d="M431.299,361.564
						c4.686-39.888,31.213-83.244,31.309-83.401c0.185-0.306,0.582-0.402,0.886-0.218c0.305,0.186,0.402,0.582,0.217,0.887
						c-0.094,0.157-26.45,43.232-31.132,82.732H431.299z"/>
				</g>
				<g>
					<path style="fill-rule:evenodd;clip-rule:evenodd;fill:#FFFFFF;" d="M396.216,292.288c-13.731-5.998-15.908,9.517-9.808,21.755
						c4.127,8.28,19.004,29.485,29.021,47.521h11.432C422.953,334.278,410.41,298.487,396.216,292.288z"/>
					<path style="fill-rule:evenodd;clip-rule:evenodd;fill:#94CDE3;" d="M422.779,361.564
						c-9.75-33.059-32.201-64.214-32.291-64.339c-0.194-0.271-0.571-0.334-0.842-0.14c-0.272,0.193-0.335,0.569-0.142,0.841
						c0.09,0.125,22.305,30.955,32.032,63.638H422.779z"/>
				</g>
			</g>
			<g>
				<path style="fill-rule:evenodd;clip-rule:evenodd;fill:#1E1850;" d="M444.455,350.65h-40.232c-1.203,0-2.186,0.983-2.186,2.188
					v9.934c0,1.204,0.983,2.189,2.186,2.189h40.232c1.204,0,2.188-0.984,2.188-2.189v-9.934
					C446.643,351.633,445.659,350.65,444.455,350.65z"/>
				<polygon style="fill-rule:evenodd;clip-rule:evenodd;fill:#1E1850;" points="437.557,358.73 411.124,358.73 404.224,364.958 
					409.861,386.673 424.34,386.673 438.818,386.673 444.455,364.958 				"/>
				<polygon style="fill-rule:evenodd;clip-rule:evenodd;fill:#17152D;" points="404.224,364.958 405.382,369.421 441.393,376.759 
					444.455,364.958 				"/>
			</g>
		</g>
		<g>
			<path style="fill-rule:evenodd;clip-rule:evenodd;fill:#E6AD83;" d="M301.052,186.916l-0.831-2.4l4.257-14.062l-40.134-54.022
				c0,0-1.112-1.499-1.777-1.8c-0.667-0.299-6.397-1.859-6.397-6.298c0-4.439,0-33.952,0-35.271c0-1.319,1.842-2.279,2.563-2.279
				c0.724,0,0.724,2.639,0.724,4.199c0,0,1.304-0.43,1.304,0.959c0,1.389,1.248,7.949,1.581,10.348
				c0.334,2.4,7.053,18.657,7.941,20.336c0.888,1.679,45.941,46.55,49.496,50.029c3.554,3.479,6.106,7.199,5.886,10.797
				c-0.222,3.599-5.292,38.272-5.292,38.272L301.052,186.916z"/>
			<path style="fill-rule:evenodd;clip-rule:evenodd;fill:#ADB3D9;" d="M268.658,220.558c-8.57-3.704-16.86-3.704-25.43,0
				l1.485,3.957h22.459L268.658,220.558z"/>
			<path style="fill-rule:evenodd;clip-rule:evenodd;fill:#CB6459;" d="M266.684,198.75l-0.308,7.221c0,0,0,14.794,0,17.041
				c0,1.086,1.012,2.652,2.799,4.016c-1.564,1.696-4.475,4.71-7.443,7.039h-11.128c-2.97-2.329-5.879-5.343-7.443-7.039
				c1.786-1.363,2.798-2.93,2.798-4.016c0-2.247,0-17.041,0-17.041l-0.308-7.221c0,0,5.177,0.929,10.517,2.238
				C261.508,199.679,266.684,198.75,266.684,198.75z"/>
			<path style="fill-rule:evenodd;clip-rule:evenodd;fill:#E3A030;" d="M259.404,235.378l-2.042,0.296h-1.193h-0.226h-0.226h-1.193
				l-2.042-0.296l-12.032-11.386l-18.239-0.584c0,0-5.726,28.04-5.726,50.1l0.566,9.607c0.169,2.611,0.34,5.125,0.511,7.545
				l0.103,4.906c0,0-1.814,38.466-1.385,40.12c0.428,1.65,3.895,5.59,3.895,5.59c-0.137,1.044-0.286,2.155-0.445,3.321
				c6.24,2.614,17.837,5.978,35.988,5.823l0.226,0.001l0.226-0.001c18.15,0.155,29.748-3.209,35.987-5.823
				c-0.159-1.166-0.309-2.277-0.444-3.321c0,0,3.467-3.939,3.895-5.59c0.428-1.654-1.386-40.12-1.386-40.12l0.102-4.906
				c0.171-2.42,0.342-4.934,0.511-7.545l0.567-9.607c0-22.061-5.726-50.1-5.726-50.1l-18.24,0.584L259.404,235.378z"/>
			<path style="fill-rule:evenodd;clip-rule:evenodd;fill:#EFD37E;" d="M258.932,233.491l-1.846,0.267h-2.284l-1.847-0.267
				l-7.302-6.912l-1.092,0.338l-2.34,3.077c0,0,5.327,12.349,5.641,12.766c0.312,0.417,0.868,0.626,1.666-0.347
				c0.8-0.974,3.32-4.152,3.32-4.152s0.727-0.769,1.069,0.098c0.342,0.866,4.108-1.514,4.108-1.514l0.267,0.835
				c0,0,0.574-0.696,1.14,0.208c0.565,0.903,3.352,4.786,3.544,4.96c0.191,0.173,1.042,0.747,1.633-0.469
				c0.54-1.11,6.878-15.336,7.983-17.819l-2.785-1.359L258.932,233.491z"/>
			<path style="fill-rule:evenodd;clip-rule:evenodd;fill:#EFD37E;" d="M258.932,233.491l-1.846,0.267h-2.284l-1.847-0.267
				l-0.726-0.688l-1.536,2.654c0,0,3.427,1.112,3.427,4.123c0,3.011,0,108.352,0,108.352l1.822,4.523l1.822-4.523
				c0,0,0-105.341,0-108.352c0-3.011,3.428-4.123,3.428-4.123l-1.535-2.654L258.932,233.491z"/>
			<path style="fill-rule:evenodd;clip-rule:evenodd;fill:#EFD37E;" d="M253.696,232.602l1.105-0.185c0,0,0.217,0.233,0.248,0.631
				c0.031,0.398,0.057,1.569,0.057,1.569c-0.403,0.145-2.571,0.587-2.502,0.279C252.621,234.826,253.696,232.602,253.696,232.602z"
				/>
			<path style="fill-rule:evenodd;clip-rule:evenodd;fill:#EFD37E;" d="M258.19,232.602l-1.104-0.185c0,0-0.217,0.233-0.249,0.631
				c-0.031,0.398-0.056,1.569-0.056,1.569c0.403,0.319,2.569,0.587,2.501,0.279C259.267,234.826,258.19,232.602,258.19,232.602z"/>
			<path style="fill-rule:evenodd;clip-rule:evenodd;fill:#FFFFFF;" d="M268.658,220.558c0.123,0.106,1.492,2.507,2.202,3.659
				c0,0,0.644,0.949,0.172,2.541c-0.476,1.593-6.677,14.673-6.677,14.673s-0.44,0.695-1.151,0.017
				c-0.713-0.677-6.118-9.03-6.118-9.03l10.251-10.81C267.817,220.997,268.536,220.45,268.658,220.558z"/>
			<path style="fill-rule:evenodd;clip-rule:evenodd;fill:#FFFFFF;" d="M243.229,220.558c-0.085,0.041-1.491,2.507-2.203,3.659
				c0,0-0.644,0.949-0.17,2.541c0.476,1.593,6.676,14.673,6.676,14.673s0.441,0.695,1.152,0.017c0.712-0.677,6.118-9.03,6.118-9.03
				l-10.252-10.81C243.866,220.801,243.314,220.516,243.229,220.558z"/>
			<path style="fill-rule:evenodd;clip-rule:evenodd;fill:#EFD37E;" d="M225.102,271.217h20.225c0.266,0,0.482,0.215,0.482,0.482
				v1.293c0,0.266-0.216,0.482-0.482,0.482h-20.225c-0.266,0-0.481-0.217-0.481-0.482v-1.293
				C224.621,271.432,224.836,271.217,225.102,271.217z"/>
			<path style="fill-rule:evenodd;clip-rule:evenodd;fill:#17152D;" d="M338.175,332.005c0,0-65.226,13.205-83.152,13.205
				c-17.928,0-83.154-13.205-83.154-13.205l3.232,12.807l79.922,23.202l79.923-23.202L338.175,332.005z"/>
			<path style="fill-rule:evenodd;clip-rule:evenodd;fill:#DE9273;" d="M194.752,384.44l3.513-0.451c0,0,4.641-1.272,6.099-1.736
				c1.459-0.464,5.502,0.399,6.828,7.159c1.326,6.763-2.188,8.156-6.099,9.15c-3.911,0.994-13.921,3.979-13.921,3.979
				S186.2,391.866,194.752,384.44z"/>
			<path style="fill-rule:evenodd;clip-rule:evenodd;fill:#EFD37E;" d="M191.175,400.121c0,0,0.829-0.165,2.685-0.165
				c1.856,0,1.956,1.191,2.154,2.186c0.199,0.994,1.028,3.581-2.055,4.807c-3.083,1.225-21.444,7.757-21.444,7.757l-3.383-1.758
				C169.132,412.948,179.209,403.667,191.175,400.121z"/>
			<path style="fill-rule:evenodd;clip-rule:evenodd;fill:#E3A030;" d="M187.25,374.399c0,0,4.622,1.922,10.257,6.563
				c0,0,1.425,1.392,0.63,3.413c-0.796,2.022-8.651,5.403-5.867,16.674c0,0,0.663,1.789-1.259,2.451
				c-1.923,0.664-15.116,5.9-16.772,7.029c-1.658,1.126-1.591,2.452-1.724,4.176c-0.133,1.725-2.785,1.325-7.558,6.364
				c-4.773,5.038-9.624,7.69-13.406,5.07c0,0-1.709-0.63-2.239-2.685c-0.53-2.056,1.06-8.684,1.06-8.684l20.485-29.767
				L187.25,374.399z"/>
			<path style="fill-rule:evenodd;clip-rule:evenodd;fill:#FFFFFF;" d="M187.25,374.399c0,0-9.017,10.938-11.403,14.055
				c-2.386,3.115-6.165,3.979-9.811,7.888c-3.647,3.912-11.867,14.585-14.453,20.153c-2.585,5.568-1.126,8.751-0.033,9.646
				c0,0-2.006,0.564-2.42,0.415c-0.414-0.148-1.774-3.349-1.973-6.331c-0.199-2.983,4.441-13.059,9.081-19.292
				c4.641-6.23,10.011-11.204,14.784-17.368c4.773-6.165,8.022-11.104,9.48-12.431c1.458-1.326,2.154-1.26,2.85-1.193
				c0.696,0.066,3.547,2.851,3.878,3.315C187.564,373.719,187.25,374.399,187.25,374.399z"/>
			<path style="fill-rule:evenodd;clip-rule:evenodd;fill:#A5A7A9;" d="M150.227,426.461c-0.469,0.094-0.922,0.156-1.096,0.094
				c-0.414-0.148-1.774-3.349-1.973-6.331c-0.199-2.983,4.441-13.059,9.081-19.292c4.641-6.23,10.011-11.204,14.784-17.368
				c4.773-6.165,8.022-11.104,9.48-12.431c1.458-1.326,2.154-1.26,2.85-1.193c0.201,0.02,0.581,0.265,1.026,0.614
				c0,0-1.789-0.531-5.137,3.844c-3.348,4.376-9.458,13.067-17.535,21.745c-8.076,8.677-12.994,19.157-13.59,23.932
				C147.937,421.52,148.857,423.878,150.227,426.461z"/>
			<path style="fill-rule:evenodd;clip-rule:evenodd;fill:#1E1850;" d="M200.585,381.723c0,0,126.222-46.008,132.585-48.397
				c6.365-2.386,15.383-2.916,17.9,4.906c2.52,7.822,4.244,25.854-19.356,32.485c-23.603,6.628-124.501,29.301-127.948,29.831
				c-3.447,0.53-4.565-14.242-4.271-16.899C199.496,383.65,199.755,382.219,200.585,381.723z"/>
			<path style="fill-rule:evenodd;clip-rule:evenodd;fill:#DE9273;" d="M315.292,384.44l-3.514-0.451c0,0-4.641-1.272-6.098-1.736
				c-1.461-0.464-5.503,0.399-6.829,7.159c-1.327,6.763,2.188,8.156,6.099,9.15c3.911,0.994,13.922,3.979,13.922,3.979
				S323.845,391.866,315.292,384.44z"/>
			<path style="fill-rule:evenodd;clip-rule:evenodd;fill:#EFD37E;" d="M318.869,400.121c0,0-0.828-0.165-2.685-0.165
				c-1.856,0-1.956,1.191-2.154,2.186c-0.199,0.994-1.028,3.581,2.055,4.807c3.083,1.225,21.444,7.757,21.444,7.757l3.383-1.758
				C340.912,412.948,330.835,403.667,318.869,400.121z"/>
			<path style="fill-rule:evenodd;clip-rule:evenodd;fill:#E3A030;" d="M322.795,374.399c0,0-4.624,1.922-10.259,6.563
				c0,0-1.425,1.392-0.629,3.413c0.794,2.022,8.65,5.403,5.866,16.674c0,0-0.663,1.789,1.26,2.451
				c1.923,0.664,15.115,5.9,16.772,7.029c1.657,1.126,1.591,2.452,1.724,4.176c0.132,1.725,2.784,1.325,7.558,6.364
				c4.774,5.038,9.624,7.69,13.406,5.07c0,0,1.709-0.63,2.238-2.685c0.53-2.056-1.061-8.684-1.061-8.684l-20.484-29.767
				L322.795,374.399z"/>
			<path style="fill-rule:evenodd;clip-rule:evenodd;fill:#FFFFFF;" d="M322.795,374.399c0,0,9.015,10.938,11.401,14.055
				c2.388,3.115,6.166,3.979,9.813,7.888c3.647,3.912,11.865,14.585,14.451,20.153c2.585,5.568,1.129,8.751,0.033,9.646
				c0,0,2.005,0.564,2.42,0.415c0.414-0.148,1.774-3.349,1.973-6.331c0.198-2.983-4.441-13.059-9.082-19.292
				c-4.641-6.23-10.011-11.204-14.782-17.368c-4.774-6.165-8.022-11.104-9.481-12.431c-1.458-1.326-2.154-1.26-2.851-1.193
				c-0.695,0.066-3.547,2.851-3.878,3.315C322.48,373.719,322.795,374.399,322.795,374.399z"/>
			<path style="fill-rule:evenodd;clip-rule:evenodd;fill:#A5A7A9;" d="M359.817,426.461c0.469,0.094,0.922,0.156,1.096,0.094
				c0.414-0.148,1.774-3.349,1.973-6.331c0.198-2.983-4.441-13.059-9.082-19.292c-4.641-6.23-10.011-11.204-14.782-17.368
				c-4.774-6.165-8.022-11.104-9.481-12.431c-1.458-1.326-2.154-1.26-2.851-1.193c-0.2,0.02-0.581,0.265-1.026,0.614
				c0,0,1.789-0.531,5.137,3.844c3.349,4.376,9.46,13.067,17.536,21.745c8.076,8.677,12.994,19.157,13.591,23.932
				C362.106,421.52,361.187,423.878,359.817,426.461z"/>
			<path style="fill-rule:evenodd;clip-rule:evenodd;fill:#28265B;" d="M309.458,381.723c0,0-126.223-46.008-132.587-48.397
				c-6.364-2.386-15.38-2.916-17.9,4.906c-2.519,7.822-4.243,25.854,19.358,32.485c23.601,6.628,124.5,29.301,127.947,29.831
				c3.448,0.53,4.564-14.242,4.272-16.899C310.549,383.65,310.288,382.219,309.458,381.723z"/>
			<g>
				<path style="fill-rule:evenodd;clip-rule:evenodd;fill:#CB6459;" d="M230.446,184.712c-0.176,0.023-0.35,0.052-0.523,0.088
					l-0.005,0.002h0.001c-3.179,0.665-5.594,3.455-5.659,6.84c-0.074,3.935,3.056,7.187,6.991,7.261
					c3.936,0.075,7.188-3.056,7.262-6.99c0.044-2.288-0.995-4.343-2.645-5.679c0.181,2.104-0.154,4.709-2.839,4.97l0.078-4.11
					C233.139,185.431,231.587,184.666,230.446,184.712z"/>
				<path style="fill-rule:evenodd;clip-rule:evenodd;fill:#CB6459;" d="M281.889,184.712c0.176,0.023,0.35,0.052,0.522,0.088
					l0.005,0.002h-0.001c3.179,0.665,5.595,3.455,5.659,6.84c0.073,3.935-3.058,7.187-6.992,7.261
					c-3.936,0.075-7.186-3.056-7.262-6.99c-0.044-2.288,0.997-4.343,2.645-5.679c-0.181,2.104,0.153,4.709,2.838,4.97l-0.077-4.11
					C279.195,185.431,280.747,184.666,281.889,184.712z"/>
			</g>
			<path style="fill-rule:evenodd;clip-rule:evenodd;fill:#E6AD83;" d="M256.169,149.108L256.169,149.108
				c-13.422,0-24.404,10.981-24.404,24.402v22.195c0,13.422,10.982,24.403,24.404,24.403l0,0c13.419,0,24.401-10.981,24.401-24.403
				v-22.195C280.57,160.089,269.588,149.108,256.169,149.108z"/>
			<g>
				<path style="fill-rule:evenodd;clip-rule:evenodd;fill:#CB6459;" d="M270.001,196.913c-1.771-0.033-3.234,1.376-3.268,3.148
					c-0.035,1.771,1.375,3.237,3.147,3.27c1.771,0.034,3.236-1.376,3.27-3.148C273.183,198.411,271.773,196.946,270.001,196.913z"/>
				<path style="fill-rule:evenodd;clip-rule:evenodd;fill:#CB6459;" d="M242.4,196.389c-1.771-0.034-3.235,1.375-3.27,3.146
					c-0.033,1.773,1.375,3.237,3.148,3.27c1.772,0.034,3.235-1.376,3.27-3.148C245.583,197.886,244.173,196.423,242.4,196.389z"/>
			</g>
			<path style="fill-rule:evenodd;clip-rule:evenodd;fill:#1E1850;" d="M241.053,185.016c-0.427,0.213-0.948,0.04-1.161-0.387
				c-0.213-0.427-0.041-0.948,0.385-1.161c2.297-1.183,5.367-1.321,7.62,0.031c0.409,0.245,0.544,0.779,0.298,1.188
				c-0.244,0.409-0.779,0.543-1.188,0.299C245.183,183.891,242.9,184.133,241.053,185.016z"/>
			<path style="fill-rule:evenodd;clip-rule:evenodd;fill:#1E1850;" d="M272.208,185.017c-1.849-0.884-4.133-1.127-5.954-0.032
				c-0.41,0.245-0.947,0.11-1.19-0.299c-0.245-0.409-0.111-0.943,0.297-1.188c2.254-1.352,5.324-1.213,7.618-0.031
				c0.428,0.213,0.602,0.735,0.387,1.162C273.153,185.055,272.633,185.229,272.208,185.017z"/>
			<path style="fill-rule:evenodd;clip-rule:evenodd;fill:#1E1850;" d="M246.211,166.96c-2.628,0-7.708,1.245-7.708,6.492
				c0,5.247-0.996,9.408-4.342,9.408c0,0,0,1.815,0,4.117c0,2.301-0.225,4.629-2.396,4.629c0-4.951-1.509-6.896-1.509-6.896
				s0-6.623,0-12.413c0-5.79,1.628-13.57,9.228-18.908c9.833-6.906,23.538-6.906,33.37,0c7.601,5.338,9.229,13.118,9.229,18.908
				c0,5.79,0,12.413,0,12.413s-1.509,1.945-1.509,6.896c-2.173,0-2.397-2.328-2.397-4.629c0-2.302,0-4.117,0-4.117
				c-3.349,0-4.343-4.161-4.343-9.408c0-5.247-5.079-6.492-7.708-6.492C259.489,166.96,252.85,166.96,246.211,166.96z"/>
			<g>
				<path style="fill-rule:evenodd;clip-rule:evenodd;fill:#1E1850;" d="M266.235,189.548c-0.005-0.425-0.353-0.766-0.778-0.76
					c-0.424,0.004-0.766,0.354-0.76,0.779c0.011,1.021,0.44,1.945,1.119,2.608c0.683,0.667,1.615,1.071,2.639,1.06
					c1.022-0.012,1.943-0.44,2.608-1.12c0.665-0.683,1.07-1.616,1.06-2.638c-0.007-0.425-0.354-0.766-0.781-0.76
					c-0.425,0.005-0.766,0.354-0.759,0.778c0.006,0.601-0.23,1.147-0.615,1.546c-0.391,0.397-0.933,0.647-1.532,0.654
					c-0.601,0.007-1.146-0.229-1.545-0.614C266.493,190.69,266.243,190.148,266.235,189.548z"/>
				<path style="fill-rule:evenodd;clip-rule:evenodd;fill:#1E1850;" d="M241.752,189.809c-0.005-0.425-0.355-0.766-0.779-0.76
					c-0.425,0.005-0.766,0.354-0.761,0.78c0.013,1.023,0.44,1.944,1.12,2.609c0.683,0.666,1.616,1.07,2.638,1.059
					c1.023-0.013,1.945-0.441,2.609-1.121c0.667-0.683,1.072-1.616,1.06-2.639c-0.005-0.424-0.355-0.765-0.78-0.76
					c-0.425,0.005-0.766,0.354-0.761,0.778c0.009,0.602-0.228,1.148-0.614,1.545c-0.391,0.399-0.932,0.648-1.532,0.655
					c-0.6,0.008-1.147-0.229-1.545-0.614C242.009,190.951,241.76,190.41,241.752,189.809z"/>
			</g>
			<path style="fill-rule:evenodd;clip-rule:evenodd;fill:#D47E67;" d="M253.995,202.064c-0.008-0.425-0.355-0.766-0.78-0.761
				c-0.425,0.005-0.765,0.354-0.761,0.779c0.013,1.023,0.44,1.946,1.12,2.609c0.683,0.666,1.617,1.07,2.639,1.059
				c1.023-0.013,1.944-0.44,2.608-1.12c0.666-0.684,1.07-1.616,1.059-2.638c-0.005-0.425-0.353-0.766-0.779-0.761
				c-0.426,0.006-0.766,0.354-0.76,0.779c0.007,0.601-0.229,1.147-0.615,1.546c-0.391,0.397-0.931,0.647-1.532,0.654
				c-0.601,0.007-1.146-0.229-1.545-0.614C254.251,203.206,254.002,202.665,253.995,202.064z"/>
			<path style="fill-rule:evenodd;clip-rule:evenodd;fill:#E3A030;" d="M282.718,223.631c0,0,2.273-0.515,3.329-2.435
				c1.054-1.918,11.775-37.4,11.775-37.4s0.666-0.54,1.166-0.42c0.498,0.12,21.502,14.456,28.389,20.455c0,0,0.777,0.6,0.223,2.4
				c-0.557,1.799-32.1,60.826-32.1,60.826s-3.012,6.45-3.274,11.255c0,0-15.829-22.291-15.829-23.731
				C276.396,253.141,282.718,223.631,282.718,223.631z"/>
			<path style="fill-rule:evenodd;clip-rule:evenodd;fill:#E6AD83;" d="M211.285,186.916l0.831-2.4l-4.256-14.062l40.134-54.022
				c0,0,1.111-1.499,1.779-1.8c0.665-0.299,6.397-1.859,6.397-6.298c0-4.439,0-33.952,0-35.271c0-1.319-1.842-2.279-2.565-2.279
				c-0.723,0-0.723,2.639-0.723,4.199c0,0-1.305-0.43-1.305,0.959c0,1.389-1.249,7.949-1.581,10.348
				c-0.333,2.4-7.052,18.657-7.942,20.336c-0.889,1.679-45.94,46.55-49.495,50.029c-3.554,3.479-6.109,7.199-5.887,10.797
				c0.222,3.599,5.292,38.272,5.292,38.272L211.285,186.916z"/>
			<path style="fill-rule:evenodd;clip-rule:evenodd;fill:#E3A030;" d="M229.619,223.631c0,0-2.273-0.515-3.328-2.435
				c-1.055-1.918-11.775-37.4-11.775-37.4s-0.667-0.54-1.167-0.42c-0.499,0.12-21.502,14.456-28.388,20.455c0,0-0.778,0.6-0.223,2.4
				c0.555,1.799,32.099,60.826,32.099,60.826s3.011,6.45,3.273,11.255c0,0,15.83-22.291,15.83-23.731
				C235.94,253.141,229.619,223.631,229.619,223.631z"/>
		</g>
		<g>
			<path style="fill-rule:evenodd;clip-rule:evenodd;fill:#5293AA;" d="M121.418,185.504c17.641,0,32.029-14.388,32.029-32.028
				c0-17.642-14.388-32.03-32.029-32.03c-17.642,0-32.03,14.388-32.03,32.03C89.388,171.117,103.776,185.504,121.418,185.504z"/>
			<g>
				<rect x="108.597" y="151.417" style="fill-rule:evenodd;clip-rule:evenodd;fill:#FFF58B;" width="26.173" height="4.119"/>
				<path style="fill-rule:evenodd;clip-rule:evenodd;fill:#EFD37E;" d="M103.765,146.003L103.765,146.003
					c1.534,0,2.79,1.255,2.79,2.79v9.367c0,1.534-1.255,2.79-2.79,2.79l0,0c-1.535,0-2.79-1.256-2.79-2.79v-9.367
					C100.975,147.258,102.229,146.003,103.765,146.003z"/>
				<path style="fill-rule:evenodd;clip-rule:evenodd;fill:#FFF58B;" d="M106.372,142.914L106.372,142.914
					c-1.534,0-2.789,1.255-2.789,2.789v15.545c0,1.534,1.255,2.789,2.789,2.789l0,0c1.535,0,2.79-1.254,2.79-2.789v-15.545
					C109.161,144.169,107.906,142.914,106.372,142.914z"/>
				<path style="fill-rule:evenodd;clip-rule:evenodd;fill:#E3A030;" d="M109.062,140.521L109.062,140.521
					c1.535,0,2.79,1.255,2.79,2.79v20.327c0,1.535-1.255,2.79-2.789,2.79h0c-1.535,0-2.79-1.255-2.79-2.79v-20.327
					C106.271,141.777,107.527,140.521,109.062,140.521z"/>
				<path style="fill-rule:evenodd;clip-rule:evenodd;fill:#EFD37E;" d="M139.071,146.003L139.071,146.003
					c-1.535,0-2.791,1.255-2.791,2.79v9.367c0,1.534,1.256,2.79,2.791,2.79l0,0c1.534,0,2.79-1.256,2.79-2.79v-9.367
					C141.86,147.258,140.605,146.003,139.071,146.003z"/>
				<path style="fill-rule:evenodd;clip-rule:evenodd;fill:#FFF58B;" d="M136.463,142.914L136.463,142.914
					c1.535,0,2.79,1.255,2.79,2.789v15.545c0,1.534-1.255,2.789-2.79,2.789l0,0c-1.534,0-2.789-1.254-2.789-2.789v-15.545
					C133.673,144.169,134.929,142.914,136.463,142.914z"/>
				<path style="fill-rule:evenodd;clip-rule:evenodd;fill:#E3A030;" d="M133.773,140.521L133.773,140.521
					c-1.535,0-2.79,1.255-2.79,2.79v20.327c0,1.535,1.255,2.79,2.79,2.79l0,0c1.534,0,2.79-1.255,2.79-2.79v-20.327
					C136.563,141.777,135.308,140.521,133.773,140.521z"/>
			</g>
		</g>
		<g>
			<path style="fill-rule:evenodd;clip-rule:evenodd;fill:#FFF58B;" d="M362.959,285.607c19.671,0,35.715-16.042,35.715-35.715
				c0-19.67-16.044-35.714-35.715-35.714c-19.67,0-35.715,16.044-35.715,35.714C327.244,269.565,343.289,285.607,362.959,285.607z"
				/>
			<g>
				<g>
					<path style="fill-rule:evenodd;clip-rule:evenodd;fill:#387286;" d="M361.837,235.2c0.279-2.539,1.43-7.355,3.052-7.684
						c0.944-0.191,2.164,0.203,1.159,2.429c-0.978,2.171-2.574,5.728-2.682,11.346C363.271,246.329,361.517,238.103,361.837,235.2z"
						/>
					<path style="fill-rule:evenodd;clip-rule:evenodd;fill:#387286;" d="M362.455,237.153c-0.313-4.153-3.839-7.362-8.934-7.299
						c-5.098,0.063-6.545,0.692-6.545,0.692S351.255,240.866,362.455,237.153z"/>
					<path style="fill-rule:evenodd;clip-rule:evenodd;fill:#D1544B;" d="M358.325,272.324c2.948,0.319,3.721-1.629,4.725-1.629
						c1.024,0,2.285,1.948,4.604,1.629c5.77-0.792,23.963-25.7,8.977-33.572c-3.744-1.967-9.5,0.635-13.643,3.426
						c-3.611-2.434-8.51-5.123-12.048-3.768C333.472,245.101,351.319,271.569,358.325,272.324z"/>
				</g>
				<path style="fill-rule:evenodd;clip-rule:evenodd;fill:#CC342A;" d="M376.39,238.634c3.498,7.883,1.339,15.322-3.195,20.883
					c-9.783,11.999-21.95,7.533-21.912,7.581c2.535,2.994,5.174,5.025,7.043,5.226c2.948,0.319,3.721-1.629,4.725-1.629
					c1.024,0,2.285,1.948,4.604,1.629c5.77-0.792,23.963-25.7,8.977-33.572C376.553,238.71,376.473,238.671,376.39,238.634z"/>
				<path style="fill-rule:evenodd;clip-rule:evenodd;fill:#FFFFFF;" d="M354.794,241.406c-4.383-0.288-8.363,2.828-8.595,7.616
					c-0.231,4.79,2.365,3.635,3.059,0.693c0.691-2.943,3.23-5.482,7.441-5.25C360.91,244.695,357.68,241.58,354.794,241.406
					L354.794,241.406z M348.809,253.624c0.817,0,1.479,0.663,1.479,1.48c0,0.816-0.662,1.477-1.479,1.477
					c-0.815,0-1.478-0.66-1.478-1.477C347.331,254.287,347.993,253.624,348.809,253.624z"/>
				<path style="fill-rule:evenodd;clip-rule:evenodd;fill:#FFFFFF;" d="M359.229,234.601c-2.392-4.388-7.148-3.364-10.796-3.6
					c4.718-1.097,9.972-0.557,12.679,3.509C361.843,235.975,359.965,236.071,359.229,234.601z"/>
			</g>
		</g>
		<g>
			<path style="fill-rule:evenodd;clip-rule:evenodd;fill:#FFF58B;" d="M255.284,308.205c18.577,0,33.73-15.151,33.73-33.727
				c0-18.577-15.152-33.73-33.73-33.73c-18.578,0-33.729,15.152-33.729,33.73C221.556,293.053,236.707,308.205,255.284,308.205z"/>
			<g>
				<g>
					<path style="fill-rule:evenodd;clip-rule:evenodd;fill:#D1544B;" d="M238.323,264.708L238.323,264.708
						c3.826-3.824,10.085-3.824,13.909,0l3.049,3.05l3.049-3.05c3.824-3.824,10.083-3.824,13.907,0l0,0
						c9.889,9.889-4.822,21.427-16.956,28.07C244.208,287.697,228.423,274.608,238.323,264.708z"/>
					<path style="fill-rule:evenodd;clip-rule:evenodd;fill:#CC342A;" d="M271.798,264.296c3.731,9.803-4.261,18.151-13.185,22.99
						c-4.365,2.367-9.163,2.372-9.127,2.395c1.619,1.015,3.344,1.917,4.896,2.672c0.302,0.147,0.602,0.289,0.898,0.426
						c0.902-0.494,1.818-1.016,2.739-1.562c11.447-6.79,23.369-17.357,14.217-26.509
						C272.096,264.566,271.948,264.427,271.798,264.296z"/>
				</g>
				<path style="fill-rule:evenodd;clip-rule:evenodd;fill:#FFFFFF;" d="M259.806,279.154c0-0.313,0.254-0.566,0.565-0.566
					c0.313,0,0.567,0.254,0.567,0.566c0,1.409-0.644,2.682-1.685,3.602c-1.021,0.9-2.427,1.459-3.973,1.459
					c-1.548,0-2.951-0.559-3.974-1.459c-1.04-0.92-1.683-2.192-1.683-3.602c0-0.313,0.252-0.566,0.566-0.566
					c0.312,0,0.566,0.254,0.566,0.566c0,1.072,0.497,2.049,1.298,2.756c0.82,0.724,1.96,1.172,3.227,1.172
					c1.265,0,2.405-0.448,3.226-1.172C259.309,281.203,259.806,280.226,259.806,279.154z"/>
				<path style="fill-rule:evenodd;clip-rule:evenodd;fill:#FFFFFF;" d="M250.759,275.008c0,0.314-0.253,0.567-0.567,0.567
					c-0.313,0-0.565-0.254-0.565-0.567c0-0.393-0.16-0.75-0.418-1.009c-0.257-0.257-0.615-0.416-1.008-0.416
					c-0.394,0-0.751,0.159-1.01,0.416c-0.257,0.259-0.416,0.616-0.416,1.009c0,0.314-0.254,0.567-0.566,0.567
					c-0.313,0-0.566-0.254-0.566-0.567c0-0.704,0.286-1.346,0.749-1.809c0.464-0.462,1.104-0.749,1.809-0.749
					c0.704,0,1.344,0.287,1.806,0.749l0.003,0.003C250.472,273.666,250.759,274.305,250.759,275.008z"/>
				<path style="fill-rule:evenodd;clip-rule:evenodd;fill:#FFFFFF;" d="M265.039,275.008c0,0.314-0.253,0.567-0.565,0.567
					s-0.567-0.254-0.567-0.567c0-0.393-0.159-0.75-0.415-1.009c-0.259-0.257-0.616-0.416-1.01-0.416
					c-0.395,0-0.75,0.159-1.009,0.416c-0.258,0.259-0.417,0.616-0.417,1.009c0,0.314-0.254,0.567-0.565,0.567
					c-0.313,0-0.567-0.254-0.567-0.567c0-0.704,0.286-1.346,0.75-1.809c0.465-0.462,1.105-0.749,1.809-0.749
					c0.705,0,1.344,0.287,1.806,0.749l0.004,0.003C264.753,273.666,265.039,274.305,265.039,275.008z"/>
				<path style="fill-rule:evenodd;clip-rule:evenodd;fill:#FFFFFF;" d="M244.37,263.789c-3.479-0.229-6.638,2.244-6.821,6.043
					c-0.183,3.801,1.877,2.885,2.427,0.55c0.55-2.334,2.563-4.349,5.905-4.167C249.223,266.398,246.659,263.926,244.37,263.789
					L244.37,263.789z M239.621,273.484c0.647,0,1.173,0.525,1.173,1.174c0,0.648-0.526,1.173-1.173,1.173
					c-0.648,0-1.173-0.524-1.173-1.173C238.447,274.009,238.973,273.484,239.621,273.484z"/>
			</g>
		</g>
		<g>
			
				<ellipse transform="matrix(0.0039 -1 1 0.0039 -114.2159 385.9206)" style="fill-rule:evenodd;clip-rule:evenodd;fill:#387286;" cx="136.61" cy="250.293" rx="35.715" ry="35.715"/>
			<g>
				<g>
					<path style="fill-rule:evenodd;clip-rule:evenodd;fill:#FFFFFF;" d="M124.872,231.459h23.478c0.774,0,1.497,0.591,1.406,1.302
						l-4.464,35.062c-0.091,0.711-0.634,1.303-1.406,1.303h-14.301c-0.773,0-1.311-0.592-1.406-1.303l-4.713-35.062
						C123.37,232.05,124.098,231.459,124.872,231.459z"/>
					<path style="fill-rule:evenodd;clip-rule:evenodd;fill:#B0DAED;" d="M138.739,247.421c-4.391-2.103-8.125-1.875-10.74-0.477
						l2.631,19.579h12.202l2.396-18.814C142.948,248.223,140.606,248.316,138.739,247.421z"/>
				</g>
				<g>
					<path style="fill-rule:evenodd;clip-rule:evenodd;fill:#FFFFFF;" d="M129.985,249.329c-0.153,2.049,0.285,6.288,0.613,8.814
						c0.413,3.193,2.128,2.543,1.952,0.532c-0.14-1.588-0.244-7.796-1.273-9.803C130.678,247.706,130.069,248.21,129.985,249.329z"
						/>
					<path style="fill-rule:evenodd;clip-rule:evenodd;fill:#FFFFFF;" d="M133.023,262.018c-0.083-0.943-1.623-1.227-1.774-0.282
						C130.933,263.705,133.193,263.962,133.023,262.018z"/>
				</g>
			</g>
		</g>
	</g>
</g>
</svg>
