<?xml version="1.0" encoding="utf-8"?>
<!-- Generator: Adobe Illustrator 27.5.0, SVG Export Plug-In . SVG Version: 6.00 Build 0)  -->
<svg version="1.1" xmlns="http://www.w3.org/2000/svg" xmlns:xlink="http://www.w3.org/1999/xlink" x="0px" y="0px"
	 viewBox="0 0 500 500" style="enable-background:new 0 0 500 500;" xml:space="preserve">
<g id="Background_complete">
	<g>
		<path style="fill:#E0E0E0;" d="M104.924,71.261v36.658h-10.16l-13.93-16.653v16.653H68.79V71.261h10.16l13.93,16.653V71.261
			H104.924z"/>
	</g>
	<g>
		<path style="fill:#E0E0E0;" d="M420.278,262.933c0-8.349,6.576-14.414,15.556-14.414s15.557,6.065,15.557,14.414
			c0,8.35-6.577,14.414-15.557,14.414S420.278,271.282,420.278,262.933z M442.017,262.933c0-4.293-2.757-6.892-6.184-6.892
			c-3.426,0-6.183,2.599-6.183,6.892s2.757,6.893,6.183,6.893C439.26,269.825,442.017,267.226,442.017,262.933z"/>
	</g>
	<g>
		<path style="fill:#E0E0E0;" d="M85.428,331.443c0,6.38-4.883,10.397-12.563,10.397h-3.978v6.773h-9.294v-27.568h13.272
			C80.544,321.045,85.428,325.063,85.428,331.443z M76.055,331.443c0-2.009-1.221-3.23-3.781-3.23h-3.387v6.459h3.387
			C74.833,334.672,76.055,333.452,76.055,331.443z"/>
	</g>
	<g>
		<g>
			<g>
				<path style="fill:#E0E0E0;" d="M403.916,101.895c4.299,3.907,8.221,8.184,12.077,12.503c1.887,2.207,27.207,32.839,29.022,35.1
					l2.76,3.373c1.119,1.208,1.594,2.95,1.286,4.714c-0.285,1.952-1.943,3.471-3.787,3.469c-1.674,0.059-3.209-0.71-4.151-2.079
					l-2.681-3.439c-1.808-2.273-26.888-33.131-28.634-35.463c-3.406-4.742-7.773-8.712-10.718-13.871
					c-0.684-1.144,0.732-3.58,1.881-4.409C401.919,101.107,403.132,101.149,403.916,101.895L403.916,101.895z"/>
			</g>
			<g>
				<path style="fill:#F0F0F0;" d="M400.794,47.657c11.778,12.144,14.474,30.457,6.697,45.48c-1.957,3.785-4.523,7.222-7.597,10.173
					c-15.631,15.132-40.57,14.728-55.702-0.904c-15.132-15.631-14.728-40.57,0.904-55.702c15.63-15.131,40.565-14.728,55.698,0.899
					L400.794,47.657z"/>
				<path style="fill:#FAFAFA;enable-background:new    ;" d="M363.22,37.131l-1.202,74.555c-0.573-0.149-1.125-0.288-1.688-0.459
					c-3.607-1.089-7.032-2.709-10.162-4.807l0,0l1.038-64.383C354.899,39.724,358.963,38.064,363.22,37.131z"/>
				<path style="fill:#FAFAFA;enable-background:new    ;" d="M387.567,39.791l-1.149,70.087c-5.398,2.29-11.253,3.299-17.105,2.949
					l1.231-76.528C376.411,36.142,382.236,37.337,387.567,39.791z"/>
				<path style="fill:#E0E0E0;" d="M340.765,42.852c-17.481,16.982-17.885,44.92-0.903,62.401
					c16.982,17.481,44.92,17.885,62.401,0.903c17.444-16.947,17.889-44.812,0.994-62.306c-16.93-17.531-44.867-18.019-62.398-1.089
					C340.828,42.791,340.797,42.822,340.765,42.852z M398.34,102.24c-15.245,14.766-39.574,14.378-54.34-0.867
					s-14.378-39.574,0.867-54.34c15.217-14.739,39.491-14.383,54.27,0.795c14.787,15.225,14.432,39.554-0.793,54.341
					c-0.017,0.016-0.033,0.033-0.05,0.049L398.34,102.24z"/>
			</g>
		</g>
	</g>
	<g>
		<g>
			<g>
				<g>
					<g>
						<path style="fill:#E0E0E0;" d="M443.92,309.355H263.174c-3.232,0-5.862-2.63-5.862-5.862V40.219
							c0-3.232,2.63-5.862,5.862-5.862H443.92c3.232,0,5.862,2.629,5.862,5.862v263.273
							C449.783,306.725,447.153,309.355,443.92,309.355z M263.174,34.607c-3.095,0-5.612,2.518-5.612,5.612v263.273
							c0,3.095,2.518,5.612,5.612,5.612H443.92c3.095,0,5.612-2.517,5.612-5.612V40.219c0-3.094-2.518-5.612-5.612-5.612H263.174z"
							/>
					</g>
				</g>
				<g>
					<g>
						<path style="fill:#E0E0E0;" d="M235.493,309.355H54.746c-3.232,0-5.862-2.63-5.862-5.862V40.219
							c0-3.232,2.629-5.862,5.862-5.862h180.747c3.232,0,5.862,2.629,5.862,5.862v263.273
							C241.355,306.725,238.725,309.355,235.493,309.355z M54.746,34.607c-3.094,0-5.612,2.518-5.612,5.612v263.273
							c0,3.095,2.518,5.612,5.612,5.612h180.747c3.095,0,5.612-2.517,5.612-5.612V40.219c0-3.094-2.518-5.612-5.612-5.612H54.746z"
							/>
					</g>
				</g>
			</g>
			<g>
				<g>
					<rect x="0" y="370.424" style="fill:#E0E0E0;" width="500" height="0.25"/>
				</g>
			</g>
		</g>
		<rect x="51.672" y="384.689" style="fill:#E0E0E0;" width="16.06" height="0.25"/>
		<rect x="170.352" y="381.979" style="fill:#E0E0E0;" width="53.53" height="0.25"/>
		<rect x="68.732" y="393.979" style="fill:#E0E0E0;" width="36.25" height="0.25"/>
		<rect x="378.352" y="381.849" style="fill:#E0E0E0;" width="43.19" height="0.25"/>
		<rect x="430.452" y="381.849" style="fill:#E0E0E0;" width="6.33" height="0.25"/>
		<rect x="316.212" y="388.079" style="fill:#E0E0E0;" width="53.89" height="0.25"/>
	</g>
	<path style="fill:#E0E0E0;" d="M58.202,218.994c-2.687,4.09-4.493,8.584-5.455,13.219l-7.382,0.695l-0.001,14.295l7.383,0.695
		c0.962,4.634,2.769,9.127,5.455,13.219l-4.715,5.694l10.109,10.108l5.695-4.714c4.091,2.686,8.584,4.493,13.218,5.454l0.695,7.383
		l14.295-0.001l0.695-7.381c4.634-0.963,9.128-2.769,13.219-5.455l5.695,4.714l10.109-10.108l-4.715-5.695
		c2.686-4.091,4.493-8.584,5.454-13.219l7.381-0.695l0.001-14.295l-7.381-0.696c-0.962-4.634-2.77-9.127-5.456-13.218l4.715-5.695
		l-10.109-10.108l-5.694,4.715c-4.092-2.686-8.585-4.494-13.219-5.456l-0.695-7.382l-14.296,0.001l-0.695,7.382
		c-4.634,0.962-9.127,2.768-13.218,5.455l-5.695-4.715l-10.109,10.109L58.202,218.994z M104.036,226.372
		c7.557,7.557,7.557,19.811,0,27.368c-7.558,7.558-19.812,7.557-27.369,0c-7.558-7.558-7.557-19.811,0.001-27.369
		C84.225,218.815,96.478,218.814,104.036,226.372z"/>
	<path style="fill:#E0E0E0;" d="M386.258,358.72c-1.493,2.273-2.497,4.77-3.032,7.346l-4.102,0.386l0,7.944l4.103,0.386
		c0.534,2.575,1.539,5.072,3.031,7.346l-2.62,3.164l5.617,5.617l3.165-2.62c2.274,1.493,4.77,2.497,7.346,3.031l0.386,4.103
		l7.944-0.001l0.387-4.102c2.575-0.535,5.073-1.539,7.346-3.031l3.164,2.62l5.618-5.617l-2.62-3.165
		c1.492-2.274,2.496-4.77,3.031-7.346l4.102-0.386l0.001-7.944l-4.102-0.387c-0.535-2.575-1.539-5.072-3.032-7.345l2.62-3.165
		l-5.617-5.617l-3.164,2.62c-2.274-1.493-4.771-2.497-7.346-3.032l-0.386-4.102l-7.944,0l-0.386,4.102
		c-2.575,0.535-5.072,1.538-7.345,3.031l-3.165-2.62l-5.617,5.618L386.258,358.72z M411.728,362.82c4.199,4.2,4.2,11.009,0,15.209
		c-4.2,4.2-11.009,4.2-15.209,0c-4.2-4.2-4.2-11.009,0-15.209C400.719,358.621,407.529,358.62,411.728,362.82z"/>
</g>
<g id="Background_simple" style="display:none;">
	<g style="display:inline;">
		<path style="fill:#407BFF;" d="M171.758,38.301c-25.809,3.407-50.697,10.661-72.77,22.038
			c-26.016,13.41-52.597,34.301-44.746,61.627c14.494,50.447,84.028,51.366,70.144,85.285c-15.726,38.421-5.18,83.49,65.385,96.022
			c134.027,23.804,296.046-115.479,250.541-192.014C411.982,63.612,308.8,20.211,171.758,38.301z"/>
		<path style="opacity:0.9;fill:#FFFFFF;" d="M171.758,38.301c-25.809,3.407-50.697,10.661-72.77,22.038
			c-26.016,13.41-52.597,34.301-44.746,61.627c14.494,50.447,84.028,51.366,70.144,85.285c-15.726,38.421-5.18,83.49,65.385,96.022
			c134.027,23.804,296.046-115.479,250.541-192.014C411.982,63.612,308.8,20.211,171.758,38.301z"/>
	</g>
</g>
<g id="Shadow">
	<g>
		<g>
			<ellipse style="fill:#F5F5F5;" cx="257.562" cy="455.068" rx="196.748" ry="5.776"/>
		</g>
	</g>
</g>
<g id="Speech_Bubble_2_00000093174985059241865090000000436443586793003696_">
	<g>
		<g>
			<g>
				<path style="fill:#407BFF;" d="M421.685,118.064c9.632-3.971,20.708,0.505,24.737,9.998c4.03,9.493-0.512,20.408-10.145,24.38
					c-7.436,3.066-15.719,1.082-20.969-4.344l-5.675,0.184l2.043-5.559c-0.042-0.095-0.095-0.183-0.135-0.279
					C407.51,132.95,412.052,122.035,421.685,118.064z"/>
			</g>
			<path style="fill:none;stroke:#407BFF;stroke-width:0.5;stroke-linecap:round;stroke-linejoin:round;stroke-miterlimit:10;" d="
				M440.788,117.709c-4.861-3.708-11.672-4.774-17.459-2.732"/>
			<path style="fill:none;stroke:#407BFF;stroke-width:0.5;stroke-linecap:round;stroke-linejoin:round;stroke-miterlimit:10;" d="
				M420.708,116.006c-0.904,0.246-1.755,0.678-2.483,1.261"/>
		</g>
		<g>
			<path style="fill:#FFFFFF;" d="M428.376,144.158c-0.711,0-1.304-0.226-1.781-0.679c-0.476-0.452-0.715-1.003-0.715-1.653
				c0-0.649,0.234-1.192,0.702-1.627c0.468-0.435,1.066-0.653,1.794-0.653c0.728,0,1.326,0.218,1.794,0.653
				c0.468,0.436,0.702,0.978,0.702,1.627c0,0.65-0.238,1.201-0.715,1.653C429.68,143.931,429.087,144.158,428.376,144.158z
				 M429.988,137.726h-3.224l-0.806-11.71h4.836L429.988,137.726z"/>
		</g>
	</g>
</g>
<g id="Speech_Bubble_1">
	<g>
		<g>
			<g>
				<g>
					<path style="fill:#407BFF;" d="M54.605,163.193c-9.161-7.062-10.998-20.196-4.102-29.336
						c6.896-9.14,19.912-10.825,29.073-3.763c7.072,5.452,9.757,14.518,7.451,22.576l3.324,5.356l-6.48,1.118
						c-0.068,0.093-0.123,0.192-0.193,0.285C76.783,168.57,63.766,170.254,54.605,163.193z"/>
				</g>
				<path style="fill:none;stroke:#407BFF;stroke-width:0.5;stroke-linecap:round;stroke-linejoin:round;stroke-miterlimit:10;" d="
					M81.273,126.423c-5.396-4.117-12.958-5.3-19.383-3.033"/>
				<path style="fill:none;stroke:#407BFF;stroke-width:0.5;stroke-linecap:round;stroke-linejoin:round;stroke-miterlimit:10;" d="
					M58.981,124.532c-1.004,0.273-1.948,0.753-2.756,1.4"/>
			</g>
		</g>
		<g>
			
				<rect x="65.707" y="138.208" transform="matrix(0.7071 0.7071 -0.7071 0.7071 123.5628 -5.0277)" style="fill:#FFFFFF;" width="4.287" height="16.871"/>
			
				<rect x="65.707" y="138.208" transform="matrix(0.6818 -0.7316 0.7316 0.6818 -85.6873 96.304)" style="fill:#FFFFFF;" width="4.287" height="16.871"/>
		</g>
	</g>
</g>
<g id="Document">
	<g>
		<path style="fill:#407BFF;" d="M359.475,404.201H131.03c-3.728,0-6.751-3.023-6.751-6.751V82.66c0-3.728,3.022-6.751,6.751-6.751
			h228.445c3.728,0,6.751,3.022,6.751,6.751v314.79C366.226,401.179,363.204,404.201,359.475,404.201z"/>
		<g>
			<polygon style="fill:#EBEBEB;" points="143.216,84.877 132.551,84.877 132.551,395.856 356.259,397.62 362.439,390.489 
				357.024,97.137 			"/>
			<polygon style="fill:#E0E0E0;" points="362.439,390.489 141.244,390.489 141.244,84.877 132.551,84.877 132.551,397.62 
				356.259,397.62 			"/>
			<polygon style="opacity:0.2;" points="132.551,397.62 141.244,390.489 362.439,390.489 356.259,397.62 			"/>
			<path style="fill:#FFFFFF;stroke:#263238;stroke-miterlimit:10;" d="M381.497,380.457H162.931
				c-21.294-49.156-25.062-174.21-21.687-295.58h217.012C356.484,206.178,360.761,315.1,381.497,380.457z"/>
			<g>
				<path style="fill:#263238;" d="M179.652,134.051h-13.197V122.1h41.587v11.951h-13.197v33.764h-15.193V134.051z"/>
			</g>
			<g>
				<g>
					<path style="fill:#263238;" d="M220.738,153.588c30.091,0,60.181,0,90.272,0c8.479,0,16.957,0,25.436,0
						c0.965,0,0.967-1.5,0-1.5c-30.091,0-60.181,0-90.272,0c-8.479,0-16.957,0-25.436,0
						C219.773,152.088,219.771,153.588,220.738,153.588L220.738,153.588z"/>
				</g>
			</g>
			<g>
				<g>
					<path style="fill:#263238;" d="M170.69,184.879c21.552,0,43.103,0,64.655,0s43.103,0,64.655,0c12.149,0,24.297,0,36.446,0
						c0.965,0,0.967-1.5,0-1.5c-21.552,0-43.103,0-64.655,0s-43.103,0-64.655,0c-12.149,0-24.298,0-36.446,0
						C169.725,183.379,169.723,184.879,170.69,184.879L170.69,184.879z"/>
				</g>
			</g>
			<g>
				<g>
					<path style="fill:#263238;" d="M170.69,212.221c11.953,0,23.907,0,35.86,0c6.249,0,12.499,0,18.748,0
						c8.631,0,17.263,0,25.894,0c0.965,0,0.967-1.5,0-1.5c-11.954,0-23.907,0-35.86,0c-6.249,0-12.499,0-18.748,0
						c-8.631,0-17.262,0-25.894,0C169.725,210.721,169.723,212.221,170.69,212.221L170.69,212.221z"/>
				</g>
			</g>
			<g>
				<g>
					<path style="fill:#263238;" d="M173.904,239.564c15.528,0,31.055,0,46.583,0c11.948,0,23.896,0,35.843,0
						c9.941,0,19.882,0,29.823,0c0.965,0,0.967-1.5,0-1.5c-15.528,0-31.055,0-46.583,0c-11.948,0-23.896,0-35.843,0
						c-9.941,0-19.882,0-29.823,0C172.939,238.064,172.937,239.564,173.904,239.564L173.904,239.564z"/>
				</g>
			</g>
			<g>
				<g>
					<path style="fill:#263238;" d="M177.118,266.906c9.327,0,18.654,0,27.981,0c2.062,0,4.124,0,6.186,0c7.669,0,15.337,0,23.006,0
						c0.965,0,0.967-1.5,0-1.5c-9.327,0-18.654,0-27.981,0c-2.062,0-4.124,0-6.186,0c-7.669,0-15.337,0-23.006,0
						C176.153,265.406,176.151,266.906,177.118,266.906L177.118,266.906z"/>
				</g>
			</g>
			<g>
				<g>
					<path style="fill:#263238;" d="M244.244,266.906c13.493,0,26.986,0,40.479,0c8.704,0,17.408,0,26.111,0
						c9.195,0,18.391,0,27.586,0c0.965,0,0.967-1.5,0-1.5c-13.493,0-26.986,0-40.479,0c-8.704,0-17.408,0-26.111,0
						c-9.195,0-18.391,0-27.586,0C243.279,265.406,243.277,266.906,244.244,266.906L244.244,266.906z"/>
				</g>
			</g>
			<g>
				<g>
					<path style="fill:#407BFF;" d="M180.332,294.249c10.563,0,21.126,0,31.69,0c4.033,0,8.066,0,12.099,0
						c8.122,0,16.243,0,24.365,0c0.965,0,0.967-1.5,0-1.5c-10.563,0-21.126,0-31.69,0c-4.033,0-8.066,0-12.099,0
						c-8.122,0-16.243,0-24.365,0C179.367,292.749,179.365,294.249,180.332,294.249L180.332,294.249z"/>
				</g>
			</g>
			<g>
				<g>
					<path style="fill:#263238;" d="M183.546,321.591c15.06,0,30.12,0,45.18,0c11.202,0,22.404,0,33.606,0c9.77,0,19.539,0,29.309,0
						c0.965,0,0.967-1.5,0-1.5c-15.06,0-30.12,0-45.18,0c-11.202,0-22.404,0-33.606,0c-9.77,0-19.539,0-29.309,0
						C182.581,320.091,182.58,321.591,183.546,321.591L183.546,321.591z"/>
				</g>
			</g>
			<g>
				<g>
					<path style="fill:#263238;" d="M189.078,351.933c18.236,0,36.472,0,54.707,0c6.141,0,12.283,0,18.424,0
						c0.965,0,0.967-1.5,0-1.5c-18.236,0-36.472,0-54.708,0c-6.141,0-12.283,0-18.424,0
						C188.112,350.433,188.111,351.933,189.078,351.933L189.078,351.933z"/>
				</g>
			</g>
			<g>
				<g>
					<path style="fill:#407BFF;" d="M283.88,133.406c-6.704-1.197-13.584-1.033-20.212,0.55c-5.899,1.408-12.243,3.835-16.508,8.32
						c-3.818,4.015-5.8,10.371-3.006,15.505c2.568,4.718,8.19,6.485,13.174,7.168c6.827,0.935,13.843,0.651,20.602-0.658
						c5.806-1.124,12.653-2.787,16.873-7.248c3.482-3.68,4.463-9.064,3.556-13.934c-0.941-5.052-4.026-8.864-8.383-11.452
						c-5.408-3.213-11.863-4.011-18.039-3.404c-7.693,0.756-15.232,3.069-22.149,6.487c-0.866,0.428-0.106,1.722,0.757,1.295
						c5.681-2.807,11.76-4.786,18.014-5.825c5.505-0.914,11.234-1.018,16.565,0.837c4.192,1.459,8.347,4.169,10.391,8.221
						c2.095,4.154,2.325,9.54,0.269,13.754c-2.455,5.031-7.965,7.15-13.029,8.582c-6.155,1.74-12.556,2.532-18.949,2.359
						c-5.146-0.139-11.133-0.552-15.453-3.686c-4.724-3.427-4.948-9.738-2.054-14.461c3.365-5.493,10.072-8.296,16.012-9.957
						c6.878-1.923,14.144-2.26,21.173-1.005C284.425,135.021,284.83,133.576,283.88,133.406L283.88,133.406z"/>
				</g>
			</g>
			<g>
				<g>
					<path style="fill:#407BFF;" d="M265.643,334.687c-10.692-1.608-21.902,0.112-31.481,5.203
						c-3.942,2.095-8.219,6.319-5.96,11.173c2.196,4.719,8.255,5.46,12.736,6.494c11.413,2.635,23.206,4.808,34.918,2.95
						c4.677-0.742,10.25-1.94,13.928-5.147c3.506-3.059,3.125-7.591,0.087-10.837c-3.734-3.99-9.672-5.859-14.916-6.7
						c-5.835-0.935-11.764-0.744-17.644-0.489c-0.962,0.042-0.967,1.542,0,1.5c9.085-0.395,18.946-0.799,27.218,3.626
						c3.443,1.842,8.314,5.859,5.608,10.221c-2.292,3.695-7.838,4.955-11.759,5.826c-10.187,2.263-20.754,1.035-30.859-1.039
						c-2.623-0.538-5.233-1.134-7.84-1.744c-2.444-0.573-5.063-1.014-7.253-2.306c-1.888-1.114-3.455-3.031-3.316-5.331
						c0.157-2.616,2.128-4.648,4.22-5.984c4.497-2.872,9.912-4.618,15.12-5.628c5.525-1.071,11.231-1.18,16.795-0.344
						C266.189,336.276,266.596,334.83,265.643,334.687L265.643,334.687z"/>
				</g>
			</g>
			<g>
				<g>
					<path style="fill:#407BFF;" d="M304.774,341.279c15.213,0,30.426,0,45.639,0c0.965,0,0.967-1.5,0-1.5
						c-15.213,0-30.426,0-45.639,0C303.809,339.779,303.807,341.279,304.774,341.279L304.774,341.279z"/>
				</g>
			</g>
			<g>
				<g>
					<path style="fill:#407BFF;" d="M307.965,345.165c13.511,0,27.021,0,40.532,0c0.965,0,0.967-1.5,0-1.5
						c-13.511,0-27.021,0-40.532,0C307,343.665,306.998,345.165,307.965,345.165L307.965,345.165z"/>
				</g>
			</g>
		</g>
		<path style="fill:#263238;" d="M289.856,95.716h-78.731V78.501c0-4.202,3.406-7.608,7.608-7.608h63.515
			c4.202,0,7.608,3.406,7.608,7.608V95.716z"/>
		<polygon style="fill:#263238;" points="236.172,73.601 232.498,61.798 270.767,61.798 266.466,74.081 		"/>
		<path style="fill:none;stroke:#407BFF;stroke-width:0.75;stroke-linejoin:round;stroke-miterlimit:10;" d="M150.823,71.261
			c18.526,0,37.053,0,55.579,0"/>
		<g>
			<g>
				<g>
					<path style="fill:#407BFF;" d="M194.367,195.666c8.635-6.724,16.738-14.106,25.373-20.83c0.761-0.592-0.308-1.647-1.061-1.061
						c-8.635,6.724-16.738,14.106-25.373,20.83C192.545,195.198,193.613,196.252,194.367,195.666L194.367,195.666z"/>
				</g>
			</g>
			<g>
				<g>
					<path style="fill:#407BFF;" d="M192.2,175.056c-0.249-0.016-0.144-0.041,0.118,0.124c0.281,0.176,0.548,0.374,0.811,0.575
						c0.751,0.574,1.471,1.191,2.187,1.806c2.243,1.926,4.428,3.922,6.603,5.924c4.606,4.239,9.152,8.545,13.677,12.871
						c1.029,0.984,2.057,1.969,3.082,2.957c0.695,0.67,1.757-0.389,1.061-1.061c-7.649-7.379-15.297-14.827-23.362-21.752
						c-0.841-0.723-1.689-1.442-2.578-2.107c-0.466-0.349-0.993-0.799-1.6-0.839C191.236,173.492,191.24,174.993,192.2,175.056
						L192.2,175.056z"/>
				</g>
			</g>
		</g>
		<g>
			<g>
				<path style="fill:#263238;" d="M259.996,294.249c9.375,0,18.75,0,28.125,0c14.913,0,29.827,0,44.74,0c3.384,0,6.769,0,10.153,0
					c0.965,0,0.967-1.5,0-1.5c-9.375,0-18.75,0-28.125,0c-14.913,0-29.827,0-44.74,0c-3.384,0-6.769,0-10.153,0
					C259.031,292.749,259.029,294.249,259.996,294.249L259.996,294.249z"/>
			</g>
		</g>
		<g>
			<g>
				<path style="fill:#263238;" d="M304.774,321.591c4.916,0,9.832,0,14.747,0c7.845,0,15.69,0,23.535,0c1.814,0,3.628,0,5.441,0
					c0.965,0,0.967-1.5,0-1.5c-4.916,0-9.831,0-14.747,0c-7.845,0-15.69,0-23.535,0c-1.814,0-3.628,0-5.441,0
					C303.809,320.091,303.807,321.591,304.774,321.591L304.774,321.591z"/>
			</g>
		</g>
		<g>
			<g>
				<path style="fill:#263238;" d="M301.042,239.564c10.915,0,21.831,0,32.746,0c1.544,0,3.088,0,4.632,0c0.965,0,0.967-1.5,0-1.5
					c-10.915,0-21.831,0-32.746,0c-1.544,0-3.088,0-4.632,0C300.077,238.064,300.076,239.564,301.042,239.564L301.042,239.564z"/>
			</g>
		</g>
		<g>
			<g>
				<path style="fill:#407BFF;" d="M260.828,212.221c9.505,0,19.009,0,28.514,0c1.336,0,2.673,0,4.009,0c0.965,0,0.967-1.5,0-1.5
					c-9.504,0-19.009,0-28.513,0c-1.337,0-2.673,0-4.009,0C259.863,210.721,259.861,212.221,260.828,212.221L260.828,212.221z"/>
			</g>
		</g>
		<g>
			<g>
				<path style="fill:#263238;" d="M304.774,212.051c9.822,0,19.645,0,29.467,0c1.393,0,2.786,0,4.18,0c0.965,0,0.967-1.5,0-1.5
					c-9.822,0-19.645,0-29.467,0c-1.393,0-2.786,0-4.18,0C303.809,210.551,303.807,212.051,304.774,212.051L304.774,212.051z"/>
			</g>
		</g>
		<g>
			<g>
				<g>
					<path style="fill:#407BFF;" d="M341.708,253.913c3.712,3.345,5.788,8.279,5.46,13.284c-0.321,4.899-3.023,9.52-7.061,12.282
						c-0.792,0.542-0.043,1.842,0.757,1.295c4.403-3.012,7.295-7.876,7.775-13.2c0.494-5.483-1.801-11.054-5.87-14.722
						C342.053,252.208,340.989,253.266,341.708,253.913L341.708,253.913z"/>
				</g>
			</g>
			<g>
				<g>
					<path style="fill:#407BFF;" d="M349.425,276.832c-1.427,0.604-2.855,1.208-4.283,1.812c-0.714,0.302-1.428,0.604-2.141,0.906
						c-0.552,0.233-1.157,0.571-1.766,0.612c-0.53,0.035-0.576-0.346-0.534-0.796c0.062-0.678,0.257-1.361,0.392-2.029
						c0.31-1.539,0.621-3.079,0.931-4.618c0.19-0.943-1.255-1.346-1.446-0.399c-0.367,1.822-0.735,3.644-1.102,5.466
						c-0.267,1.323-0.693,3.295,1.057,3.796c0.672,0.192,1.399,0.018,2.031-0.233c0.821-0.327,1.63-0.688,2.445-1.033
						c1.725-0.73,3.45-1.46,5.175-2.189c0.376-0.159,0.451-0.707,0.269-1.026C350.23,276.712,349.796,276.675,349.425,276.832
						L349.425,276.832z"/>
				</g>
			</g>
		</g>
		
			<line style="fill:none;stroke:#407BFF;stroke-width:0.75;stroke-linejoin:round;stroke-miterlimit:10;" x1="147.678" y1="71.261" x2="139.033" y2="71.261"/>
	</g>
</g>
<g id="Character_2">
	<g>
		<g>
			<g>
				<path style="fill:#407BFF;" d="M440.626,356.434c-5.554-6.626-5.432-15.874,0.272-20.655c5.704-4.781,14.831-3.285,20.385,3.341
					c5.554,6.626,5.432,15.874-0.272,20.655C455.306,364.555,446.18,363.06,440.626,356.434z"/>
				<path style="opacity:0.4;enable-background:new    ;" d="M440.626,356.434c-5.554-6.626-5.432-15.874,0.272-20.655
					c5.704-4.781,14.831-3.285,20.385,3.341c5.554,6.626,5.432,15.874-0.272,20.655C455.306,364.555,446.18,363.06,440.626,356.434z
					"/>
			</g>
			<polygon style="fill:#407BFF;" points="288.39,174.857 280.24,145.577 309.031,157.556 460.535,338.305 439.894,355.607 			"/>
			<path style="fill:#EF8274;" d="M287.846,148.729c-0.642,2.937-2.449,4.476-5.453,4.596l5.997,21.532c0,0,5.677,3.157,5.361-3.962
				c0,0,6.199,2.096,5.886-4.933c0,0,5.384,1.294,5.135-4.304c0,0,4.482,0.865,4.26-4.103L287.846,148.729z"/>
			<path style="opacity:0.3;fill:#FFFFFF;" d="M299.726,165.926l152.612,179.671l4.805-4.028
				c0.577-0.865-152.283-179.946-152.283-179.946C305.11,167.22,299.726,165.926,299.726,165.926z"/>
			<path style="opacity:0.3;fill:#FFFFFF;" d="M293.818,170.945c0.175,3.925-1.473,4.725-2.987,4.653l151.545,178.415l4.805-4.028
				c0.549-0.823-137.999-163.209-151.263-178.752C294.776,171.266,293.818,170.945,293.818,170.945z"/>
			
				<rect x="436.439" y="345.083" transform="matrix(-0.7664 0.6424 -0.6424 -0.7664 1019.2678 324.0889)" style="fill:#263238;" width="28.528" height="4.603"/>
		</g>
		<g>
			<g>
				<g>
					<g>
						<path style="fill:#FFB463;" d="M404.103,425.443l0.02,18.934l-9.531,0.683l-3.35-17.787
							C395.602,424.369,399.891,423.676,404.103,425.443z"/>
					</g>
				</g>
			</g>
			<g>
				<g>
					<g>
						<g>
							<path style="fill:#263238;" d="M403.792,442.276c0.938,2.499,0.999,12.723,0.999,12.723l-20.203,0.022
								c-1.2-3.697,0.657-6.221,3.013-6.556c1.013-0.143,2.204-1.181,3.072-2.089c0.006-0.117,1.241-5.797,2.005-6.068
								c0,0,0.526-0.591,0.974-0.001c0.448,0.589,0.837,2.509,0.837,2.509C397.643,438.905,400.734,439.427,403.792,442.276z"/>
						</g>
					</g>
				</g>
			</g>
			<g>
				<g>
					<g>
						<path style="fill:#FFFFFF;" d="M404.037,445.244c-2.283-0.84-4.732-0.521-6.723,0.876c-0.348,0.245-0.679-0.327-0.333-0.569
							c2.12-1.488,4.8-1.837,7.231-0.942C404.608,444.754,404.437,445.392,404.037,445.244L404.037,445.244z"/>
					</g>
				</g>
			</g>
			<g>
				<g>
					<path style="fill:#FFFFFF;" d="M384.649,453.525C384.649,453.525,384.649,453.525,384.649,453.525l19.906-0.021
						c0.182,0,0.33-0.148,0.33-0.33c0-0.182-0.148-0.329-0.33-0.329c0,0,0,0,0,0l-19.906,0.022c-0.182,0-0.33,0.148-0.33,0.33
						C384.319,453.378,384.467,453.525,384.649,453.525z"/>
				</g>
			</g>
		</g>
		<g>
			<g>
				<g>
					<g>
						<g>
							<path style="fill:#FFB463;" d="M362.621,422.974l0.023,21.369l-9.171,0.698l-4.512-20.002
								C352.644,422.305,356.92,420.966,362.621,422.974z"/>
						</g>
					</g>
				</g>
			</g>
			<g>
				<g>
					<g>
						<g>
							<g>
								<path style="fill:#263238;" d="M363.006,442.32c0.938,2.498,0.999,12.722,0.999,12.722l-23.21,0.025
									c-1.2-3.697,1.308-5.889,3.664-6.224c1.013-0.143,4.56-1.517,5.429-2.424c0.006-0.118,1.241-5.797,2.005-6.068
									c0,0,0.526-0.591,0.974-0.001c0.448,0.589,0.837,2.509,0.837,2.509C356.858,438.948,359.948,439.471,363.006,442.32z"/>
							</g>
						</g>
					</g>
				</g>
			</g>
			<g>
				<g>
					<g>
						<g>
							<path style="fill:#FFFFFF;" d="M362.887,445.289c-2.283-0.84-4.732-0.521-6.723,0.875c-0.348,0.245-0.679-0.327-0.333-0.569
								c2.12-1.488,4.8-1.837,7.231-0.942C363.458,444.798,363.287,445.436,362.887,445.289L362.887,445.289z"/>
						</g>
					</g>
				</g>
			</g>
			<g>
				<g>
					<g>
						<path style="fill:#FFFFFF;" d="M340.794,453.573C340.794,453.573,340.794,453.573,340.794,453.573l22.976-0.025
							c0.182,0,0.33-0.148,0.33-0.33c0-0.182-0.148-0.329-0.33-0.329c0,0,0,0,0,0l-22.975,0.025c-0.182,0-0.33,0.148-0.33,0.33
							C340.464,453.425,340.611,453.573,340.794,453.573z"/>
					</g>
				</g>
			</g>
		</g>
		<g>
			<g>
				<g>
					<path style="fill:#263238;" d="M405.92,435.957l-18.754,1.113c-4.208-15.207-8.366-69.734-8.796-86.104
						c-0.514-19.56-6.793-68.651-1.241-78.866c5.553-10.215,30.669-2.08,30.669-2.08s-3.13,59.774-1.878,78.837
						C407.004,365.38,408.682,413.947,405.92,435.957z"/>
				</g>
			</g>
			<g>
				<g>
					<g>
						<path style="fill:#263238;" d="M368.464,435.957l-18.592,1.113c-2.263-16.835-11.357-78.142-10.61-89.886
							c0.912-14.345,11.681-76.437,15.685-81.224c4.004-4.788,33.321,7.622,33.321,7.622s-12.049,53.394-21.549,76.488
							C364.746,354.867,369.991,415.482,368.464,435.957z"/>
					</g>
				</g>
			</g>
			<g style="opacity:0.3;">
				<g>
					<path style="fill:#FFFFFF;" d="M381.148,309.313c0.356-0.872,0.713-1.744,1.044-2.632c1.767-4.745,3.104-9.684,4.165-14.722
						c3.058-0.364,6.079-1.112,9.023-2.236c0.373-0.142,0.213-0.853-0.162-0.71c-4.656,1.778-9.494,2.603-14.376,2.451
						c-0.393-0.012-0.392,0.724,0,0.736c1.629,0.051,3.253-0.017,4.869-0.181c-1.064,5.005-2.396,9.916-4.171,14.624
						c-1.777,4.714-3.933,9.199-6.159,13.62c-0.205,0.406,0.323,0.776,0.526,0.372c1.64-3.257,3.236-6.553,4.676-9.945
						c0.133,4.046,0.536,16.549,0.989,33.114c0.783,28.586,6.791,75.065,8.47,87.6h0.618c-1.653-12.337-7.695-58.985-8.479-87.625
						C381.646,324.199,381.181,310.283,381.148,309.313z"/>
				</g>
				<g>
					<path style="fill:#FFFFFF;" d="M403.37,348.346c-5.407-0.354-10.821-0.178-16.204,0.526c-0.387,0.051-0.389,0.787,0,0.736
						c5.383-0.704,10.798-0.88,16.204-0.526C403.763,349.108,403.761,348.372,403.37,348.346z"/>
				</g>
				<g>
					<path style="fill:#FFFFFF;" d="M342.601,348.41c0.42-8.974,9.674-47.067,9.768-47.45c0.047-0.195-0.045-0.4-0.207-0.457
						c-0.161-0.057-0.331,0.054-0.379,0.249c-0.382,1.57-9.368,38.558-9.791,47.616c-0.364,7.791,9.285,79.82,9.695,82.883
						c0.024,0.181,0.154,0.309,0.301,0.309c0.016,0,0.033-0.001,0.049-0.005c0.166-0.033,0.279-0.222,0.252-0.423
						C352.188,430.384,342.24,356.121,342.601,348.41z"/>
				</g>
				<g>
					<path style="fill:#FFFFFF;" d="M347.859,297.016c6.971-3.178,9.225-12.415,10.884-20.314c0.097-0.46-0.491-0.655-0.588-0.196
						c-1.598,7.602-3.719,16.727-10.459,19.8C347.333,296.472,347.492,297.183,347.859,297.016z"/>
				</g>
				<g>
					<path style="fill:#FFFFFF;" d="M363.465,349.054c-4.531-0.344-9.062-0.689-13.593-1.033c-0.392-0.03-0.39,0.707,0,0.737
						c4.531,0.344,9.062,0.689,13.593,1.033C363.857,349.821,363.855,349.084,363.465,349.054z"/>
				</g>
			</g>
		</g>
		<g>
			<path style="fill:#263238;" d="M370.373,150.632c-0.452-0.107-0.928,0.393-1.071,1.083c-0.143,0.69,0.107,1.309,0.559,1.416
				c0.452,0.107,0.928-0.393,1.071-1.083C371.123,151.358,370.826,150.739,370.373,150.632z"/>
			<path style="fill:#F98412;" d="M369.1,159.762c-1.198,0.063-2.362-0.407-3.178-1.286c1.733-1.531,3.246-3.294,4.499-5.237
				L369.1,159.762z"/>
			<path style="fill:#263238;" d="M373.92,148.585c-0.698-0.792-1.733-1.204-2.785-1.107l0,0c-0.225,0.029-0.434-0.122-0.476-0.345
				c-0.036-0.227,0.119-0.439,0.345-0.476c1.343-0.155,2.676,0.356,3.571,1.369c0.159,0.162,0.159,0.421,0,0.583
				c-0.078,0.073-0.179,0.115-0.286,0.119C374.15,148.75,374.009,148.695,373.92,148.585z"/>
			<path style="fill:#FFB463;" d="M378.467,172.188c1.238,4.975,1.428,10.26-5.713,11.962c0,0-6.844,6.487,6.249,6.487
				c11.891,0,13.641-6.487,13.641-6.487c-4.475-4.261-3.225-15.986-1.976-22.377L378.467,172.188z"/>
			<path style="fill:#FFB463;" d="M394.556,149.777c-1.257-6.412-7.474-10.591-13.887-9.334
				c-8.999,1.69-12.712,14.057-12.439,22.056c0.298,8.879,9.986,14.902,17.771,9.653c5.19-3.488,6.082-8.499,8.332-16.89
				C394.837,153.477,394.913,151.598,394.556,149.777z"/>
			<path style="fill:#263238;" d="M399.856,148.764c1.752-1.04,1.947-5.372-0.131-7.952c0.244,1.523,0.103,2.753-0.211,3.745
				c-0.738-2.541-3.124-5.24-5.586-5.733c-5.951-1.19-10.522-6.546-12.438-9.427c-0.917,3.131,1.678,6.106,1.678,6.106
				c-1.845-0.048-6.951-2.428-7.892-4.618c-0.581,2.291-0.28,4.718,0.845,6.797c-2.381-0.517-4.869,0.045-6.797,1.535
				c1.596-0.094,3.148,0.546,4.214,1.738c-1.271,0.31-2.598,0.31-3.868,0c1.525,2.402,3.849,4.115,7.058,4.787
				c-2.957,1.968-1.297,6.753-0.559,9.52c-3.285,4.511,1.547,7.868,2.726,11.522c0.905,2.904,8.011,4.606,11.332,3.083
				c1.738-0.786,1.916-2.726,4.571-5.749c2.136-2.433,5.884-7.213,5.058-12.808c0.503,0.579,1.06,1.384,1.631,2.524
				C401.573,151.787,400.835,149.501,399.856,148.764z"/>
			<path style="fill:#FFB463;" d="M376.706,150.858c-2.512,0.738-3.868,4.368-4.011,6.689c-0.167,2.547,1.535,4.237,3.809,2.547
				c1.732-1.302,2.987-3.139,3.571-5.225C380.717,152.358,379.217,150.12,376.706,150.858z"/>
		</g>
		<g>
			<path style="fill:#263238;" d="M372.805,183.865c0,0,3.074-1.258,1.681-3.722c4.523-1.321,15.303-1.204,17.684-0.502
				c2.178,0.643,4.077,3.033,3.113,4.807L372.805,183.865z"/>
			<path style="opacity:0.8;fill:#FFFFFF;" d="M372.805,183.865c0,0,3.074-1.258,1.681-3.722c4.523-1.321,15.303-1.204,17.684-0.502
				c2.178,0.643,4.077,3.033,3.113,4.807L372.805,183.865z"/>
		</g>
		<g>
			<path style="fill:#FFB463;" d="M409.565,217.486c0,0.001,6.976,12.254,6.846,12.814l-20.469,14.112l2.146,6.646
				c0,0,27.184-9.11,29.703-17.861c2.519-8.75-8.352-24.925-8.352-24.925L409.565,217.486z"/>
			<g>
				<g>
					<g>
						<g>
							<g>
								<g>
									<g>
										<g>
											<path style="fill:#FFB463;" d="M400.472,243.796c0,0-1.524-2.507-3.887-3.054c-2.363-0.547-4.105-1.613-5.89-1.898
												c-1.785-0.285-0.214,1.581,0.823,2.405c1.037,0.824,2.204,1.768,1.459,2.447c-0.744,0.679-9.204,2.557-10.129,3.616
												c-0.926,1.059,0.538,1.183,0.538,1.183s-2.042,0.512-2.06,1.376c-0.005,0.224,0.349,0.754,1.316,0.667
												c2.176-0.196,6.722-0.844,6.722-0.844c-0.262,0.032-5.815,1.232-6.624,1.52c-1.056,0.377-1.363,1.093-1.124,1.699
												c0.339,0.862,7.276-0.391,7.605-0.239c0,0-4.018,0.588-4.434,1.708c-0.416,1.12,2.133,0.888,4.342,0.257
												c2.025-0.579,6.149-1.184,8.15-1.972c2.466-0.971,3.904-2.177,4.031-4.659
												C401.439,245.522,400.472,243.796,400.472,243.796z"/>
										</g>
									</g>
								</g>
							</g>
						</g>
					</g>
					
						<path style="opacity:0.3;fill:none;stroke:#000000;stroke-width:0.25;stroke-linecap:round;stroke-linejoin:round;stroke-miterlimit:10;" d="
						M383.641,248.374c1.647-0.369,3.311-0.663,4.985-0.88"/>
					
						<path style="opacity:0.3;fill:none;stroke:#000000;stroke-width:0.25;stroke-linecap:round;stroke-linejoin:round;stroke-miterlimit:10;" d="
						M390.789,252.497c-1.018-1.928-1.453-4.159-1.234-6.329"/>
					
						<path style="opacity:0.3;fill:none;stroke:#000000;stroke-width:0.25;stroke-linecap:round;stroke-linejoin:round;stroke-miterlimit:10;" d="
						M393.796,244.411c0.321,0.829,0.938,1.539,1.713,1.972c0.776,0.433,1.704,0.586,2.578,0.425"/>
				</g>
			</g>
		</g>
		<g>
			<g>
				<path style="fill:#263238;" d="M398.059,205.326c1.463,6.054,4.473,11.624,8.737,16.164l16.45-12.545
					c0,0-10.422-22.291-18.624-24.172C396.243,182.844,395.25,194.351,398.059,205.326z"/>
			</g>
			<path style="opacity:0.8;fill:#FFFFFF;" d="M398.059,205.326c1.463,6.054,4.473,11.624,8.737,16.164l16.45-12.545
				c0,0-10.422-22.291-18.624-24.172C396.243,182.844,395.25,194.351,398.059,205.326z"/>
		</g>
		<path style="opacity:0.2;enable-background:new    ;" d="M397.631,203.362c0.119,0.643,0.262,1.297,0.428,1.952
			c1.463,6.054,4.473,11.624,8.737,16.164l0.726-0.559c-0.298-6.975-1.797-14.998-6.249-19.402L397.631,203.362z"/>
		<g>
			<path style="fill:#263238;" d="M403.477,184.393c8.332,2.071,7.142,14.215,7.142,25.986c0,18.049,0.178,48.296-0.631,65.65
				c-0.019,1.283-3.374,2.647-4.546,2.853c-10.046,1.389-37.887,1.737-47.123-0.257c-1.076-0.266-9.204-1.876-9.271-3.067
				c12.244-19.961,4.629-73.437,5.26-79.869c0.667-6.664,2.869-8.683,5.154-9.803C368.387,181.485,397.359,182.836,403.477,184.393z
				"/>
			<path style="opacity:0.8;fill:#FFFFFF;" d="M403.477,184.393c8.332,2.071,7.142,14.215,7.142,25.986
				c0,18.049,0.178,48.296-0.631,65.65c-0.019,1.283-3.374,2.647-4.546,2.853c-10.046,1.389-37.887,1.737-47.123-0.257
				c-1.076-0.266-9.204-1.876-9.271-3.067c12.244-19.961,4.629-73.437,5.26-79.869c0.667-6.664,2.869-8.683,5.154-9.803
				C368.387,181.485,397.359,182.836,403.477,184.393z"/>
		</g>
		<path style="fill:#FFB463;" d="M355.483,198.612c-0.429,2.047-0.893,4.285-1.393,6.463c-0.5,2.178-1.048,4.333-1.595,6.475
			c-1.055,4.192-2.358,8.318-3.904,12.355c-0.689,1.786-1.529,3.511-2.512,5.154c-0.342,0.589-0.741,1.143-1.19,1.654l-0.321,0.333
			l-0.345,0.321c-0.179,0.202-0.226,0.333-0.512,0.452c-0.491,0.108-1.003,0.058-1.464-0.143c-0.774-0.302-1.506-0.702-2.178-1.19
			c-0.417-0.25-0.821-0.56-1.19-0.845c-0.133-0.103-0.276-0.218-0.418-0.333c-0.941-4.991-7.022-7.011-7.022-7.011l-5.344-2.457
			l0.059,9.123l1.654,2.178l4.709,2.326c0.062,0.162,0.126,0.322,0.195,0.483c0.274,0.643,0.607,1.274,0.952,1.904
			c0.771,1.324,1.734,2.528,2.857,3.571c1.356,1.285,2.983,2.249,4.761,2.821c2.061,0.629,4.253,0.686,6.344,0.167
			c0.501-0.118,0.994-0.27,1.476-0.452c0.468-0.174,0.925-0.377,1.369-0.607c0.887-0.481,1.717-1.06,2.476-1.726
			c1.229-1.059,2.332-2.258,3.285-3.571c1.579-2.22,2.938-4.588,4.059-7.07c2.047-4.524,3.738-9.2,5.059-13.986
			c0.667-2.333,1.238-4.63,1.774-7.011c0.536-2.381,1.024-4.63,1.428-7.142L355.483,198.612z"/>
		<g>
			<path style="fill:#263238;" d="M352.543,193.673c-2.957,7.09-5.113,14.488-6.428,22.056l18.818,9.832
				c0,0,16.914-16.14,9.772-30.424C370.623,186.912,358.03,181.496,352.543,193.673z"/>
			<path style="opacity:0.8;fill:#FFFFFF;" d="M352.543,193.673c-2.957,7.09-5.113,14.488-6.428,22.056l18.818,9.832
				c0,0,16.914-16.14,9.772-30.424C370.623,186.912,358.03,181.496,352.543,193.673z"/>
		</g>
	</g>
</g>
<g id="Character_1">
	<g>
		<g>
			<polygon style="fill:#EF8274;" points="120.08,423.656 117.218,445.877 110.486,445.877 108.757,424.068 			"/>
			<g>
				<path style="fill:#263238;" d="M120.036,441.175h-3.008c-0.681,0-1.311,0.344-1.713,0.894c-1.735,2.369-3.039,1.474-4.926-0.754
					c-1.2-0.14-1.523,1.237-1.62,1.607l-2.249,8.181c-0.195,0.683,0.2,1.395,0.883,1.591c0.121,0.035,0.247,0.052,0.374,0.049
					c3.653,0,5.382,0,9.929,0h13.907c3.791,0,4.577-3.82,3.015-4.174c-7.022-1.552-11.994-3.618-14.165-5.661
					C120.06,442.55,120.473,442.283,120.036,441.175z"/>
				<path style="fill:#407BFF;" d="M126.181,443.452c0.317-0.228,0.506-0.592,0.511-0.982c0.027-0.209-0.069-0.415-0.245-0.53
					c-0.943-0.668-4.704,1.09-5.127,1.297c-0.047,0.017-0.084,0.054-0.101,0.101c-0.031,0.087,0.014,0.182,0.101,0.214
					c0.924,0.219,1.869,0.34,2.819,0.363C124.851,443.981,125.567,443.819,126.181,443.452z M126.21,442.224
					c0.077,0.048,0.116,0.138,0.098,0.226c-0.016,0.281-0.152,0.543-0.373,0.717c-0.854,0.638-2.917,0.363-4.027,0.157
					C123.47,442.636,125.69,441.861,126.21,442.224z"/>
				<path style="fill:#407BFF;" d="M121.447,443.589c1.13-0.471,3.496-2.328,3.369-3.31c-0.02-0.206-0.167-0.452-0.678-0.521
					c-2.062-0.236-2.946,3.467-2.946,3.624c-0.02,0.063-0.001,0.133,0.049,0.177c0.038,0.011,0.079,0.011,0.118,0L121.447,443.589z
					 M124.069,440.063c0.383,0.039,0.383,0.177,0.383,0.226c0.108,0.599-1.611,2.141-2.838,2.789
					c0.255-0.864,1.011-3.025,2.318-3.025L124.069,440.063z"/>
			</g>
		</g>
		<g>
			<polygon style="fill:#EF8274;" points="89.301,422.499 82.741,444.8 76.078,444.411 77.486,420.21 			"/>
			<g>
				<path style="fill:#263238;" d="M86.076,441.53h-3.009c-0.681,0-1.311,0.344-1.713,0.894c-1.735,2.369-3.039,1.474-4.926-0.754
					c-1.2-0.14-1.523,1.237-1.62,1.607l-2.249,8.181c-0.195,0.683,0.2,1.395,0.883,1.591c0.121,0.035,0.247,0.051,0.374,0.049
					c3.653,0,5.382,0,9.929,0h13.907c3.791,0,4.577-3.82,3.015-4.174c-7.022-1.552-11.994-3.618-14.165-5.661
					C86.101,442.905,86.514,442.637,86.076,441.53z"/>
				<path style="fill:#407BFF;" d="M92.221,443.806c0.317-0.228,0.506-0.592,0.511-0.982c0.026-0.209-0.069-0.415-0.246-0.53
					c-0.943-0.668-4.704,1.09-5.127,1.296c-0.047,0.017-0.084,0.054-0.101,0.101c-0.031,0.087,0.014,0.182,0.101,0.214
					c0.924,0.219,1.869,0.341,2.819,0.363C90.891,444.336,91.607,444.174,92.221,443.806z M92.251,442.578
					c0.077,0.048,0.116,0.138,0.098,0.226c-0.016,0.281-0.152,0.543-0.373,0.717c-0.854,0.638-2.917,0.363-4.027,0.157
					C89.511,442.991,91.73,442.215,92.251,442.578z"/>
				<path style="fill:#407BFF;" d="M87.488,443.944c1.129-0.471,3.496-2.328,3.369-3.31c-0.02-0.206-0.167-0.452-0.678-0.52
					c-2.062-0.236-2.946,3.467-2.946,3.624c-0.02,0.063-0.001,0.133,0.049,0.177c0.038,0.011,0.079,0.011,0.118,0L87.488,443.944z
					 M90.11,440.418c0.383,0.039,0.383,0.177,0.383,0.226c0.108,0.599-1.611,2.141-2.838,2.789c0.255-0.864,1.012-3.025,2.318-3.025
					L90.11,440.418z"/>
			</g>
		</g>
		<path style="fill:#407BFF;" d="M123.805,257.418c0,0,8.094,16.268,0.309,46.181s-35.071,134.6-35.071,134.6l-16.533-1.986
			c0,0,1.422-37.696,13.752-67.839c0,0,6.894-58.879,5.783-60.656c-2.015-8.426-4.095-17.343-0.615-30.107
			c1.361-5.463,3.285-10.874,5.656-15.98c2.29-4.579,1.614-6.308,1.614-6.308L123.805,257.418z"/>
		<path style="opacity:0.5;" d="M123.805,257.418c0,0,8.094,16.268,0.309,46.181s-35.071,134.6-35.071,134.6l-16.533-1.986
			c0,0,1.422-37.696,13.752-67.839c0,0,6.894-58.879,5.783-60.656c-2.015-8.426-4.095-17.343-0.615-30.107
			c1.361-5.463,3.285-10.874,5.656-15.98c2.29-4.579,1.614-6.308,1.614-6.308L123.805,257.418z"/>
		<path style="opacity:0.5;" d="M103.818,298.28c0,0,6.142,11.827,8.925,13.795c2.37,1.676,1.427,21.336,1.584,26.896
			c0.012,0.417,0.028,2.099,0.028,2.099l-2.509,9.631c0.192-0.551,0.452-17.304-1.549-34.915
			C109.622,309.856,103.818,305.039,103.818,298.28z"/>
		<path style="fill:#407BFF;" d="M134.463,254.923c0.258,2.011,0.805,3.973,1.626,5.827c2.736,6.949,5.724,28.803,5.06,39.862
			c-1.265,22.925,0.788,29.5-6.285,72.052c-2.667,16.044-8.734,37.003-13.703,66.172H105.6c0,0,0.712-36.531,7.913-68.688
			c0,0,2.53-45.311-1.236-57.126c-2.633-8.22-10.051-16.176-8.151-33.554c1.9-17.378,6.514-23.32,6.514-23.32L134.463,254.923z"/>
		<path style="opacity:0.5;" d="M134.463,254.923c0.258,2.011,0.805,3.973,1.626,5.827c2.736,6.949,5.724,28.803,5.06,39.862
			c0.072,13.719-0.279,43.657-6.285,72.052c-7.206,34.067-13.703,66.172-13.703,66.172H105.6c0,0,0.712-36.531,7.913-68.688
			c0,0,2.53-45.311-1.236-57.126c-2.633-8.22-10.051-16.176-8.151-33.554c1.9-17.378,6.514-23.32,6.514-23.32L134.463,254.923z"/>
		<path style="fill:#EF8274;" d="M82.775,217.43c0,0-13.406,27.567-7.808,29.834c5.598,2.267,24.465,3.537,24.465,3.537l8.231,7.876
			l4.762-3.102l-1.202-8.014l-10.818-2.29l-14.447-4.488c-1.199-0.402-1.845-1.7-1.443-2.899c0.021-0.061,0.044-0.121,0.069-0.181
			l6.983-15.318L82.775,217.43z"/>
		<g>
			<path style="fill:#263238;" d="M118.579,170.905c-0.08-0.724,0.243-1.364,0.728-1.405c0.484-0.041,0.922,0.502,1,1.237
				s-0.243,1.364-0.728,1.405C119.095,172.183,118.646,171.638,118.579,170.905z"/>
			<path style="fill:#D7504D;" d="M118.312,171.95l4.716,4.331c-1.041,1.111-2.545,1.665-4.058,1.497L118.312,171.95z"/>
			<path style="fill:#263238;" d="M117.118,169.318c0.141-0.02,0.265-0.106,0.332-0.231c0.477-0.987,1.397-1.687,2.476-1.884
				c0.232-0.026,0.4-0.235,0.374-0.468c0,0,0,0,0,0c-0.02-0.237-0.227-0.414-0.464-0.397c-1.367,0.229-2.54,1.102-3.151,2.345
				c-0.114,0.201-0.046,0.457,0.153,0.574l0,0C116.918,169.317,117.021,169.339,117.118,169.318z"/>
			<path style="fill:#EF8274;" d="M93.414,174.227c2.059,9.054,2.739,12.932,8.129,16.871c7.854,3.623,18.807,1.415,19.481-8.093
				c0.618-8.542-2.85-21.883-12.42-24.103c-6.817-1.587-13.629,2.653-15.216,9.47C92.94,170.299,92.949,172.304,93.414,174.227
				L93.414,174.227z"/>
			<path style="opacity:0.2;enable-background:new    ;" d="M111.074,188.718c0,0,5.898,2.332,9.275-2.577
				c-1.589,4.147-5.649,6.237-10.136,6.552l-1.291-1.3l1.188-2.032L111.074,188.718z"/>
			<path style="fill:#EF8274;" d="M97.445,200.705c0,0,5.759-1.647,3.741-12.426c0,0,4.975-3.438,9.052-0.873
				c4.077,2.565-1.279,11.203,3.639,13.558C113.877,200.964,110.517,204.213,97.445,200.705z"/>
			<path style="fill:#263238;" d="M112.633,175.425c-1.123-1.559,2.045-4.181,1.244-5.928c0.132-4.596-0.751-4.195-0.608-9.1
				c0.143-4.905-5.301-2.877-5.301-2.877s-11.705-3.485-15.497,8.642c-5.597,6.019-5.255,15.436,0.764,21.033
				c2.753,2.56,6.373,3.983,10.132,3.984l0.821-0.04c3.379-0.468,6.075-3.055,6.68-6.413L112.633,175.425z"/>
			<path style="fill:#407BFF;" d="M95.087,169.549c0.313-2.863-0.017-5.248-2.88-5.561c-2.863-0.313-3.449,1.989-3.762,4.852
				c-0.313,2.863-0.211,5.219,2.654,5.521C93.964,174.663,94.762,172.41,95.087,169.549z"/>
			<path style="fill:#EF8274;" d="M110.205,174.434c1.611,1.003,2.753,2.61,3.169,4.461c0.544,2.423-1.695,3.57-3.984,2.777
				c-2.038-0.701-4.75-2.836-4.282-5.265c0.34-1.75,2.034-2.894,3.785-2.554C109.368,173.946,109.816,174.144,110.205,174.434z"/>
			<path style="fill:#263238;" d="M112.541,156.523c-0.99,0.986-2.071,2.48-1.417,3.771c0.368,0.74,1.207,1.123,1.69,1.802
				c0.461,0.8,0.654,1.727,0.551,2.645c-0.037,3.341-0.344,6.673-0.918,9.965c2.95-3.497,6.098-7.191,6.995-11.694
				c0.308-1.338,0.273-2.732-0.102-4.053c-0.404-1.329-1.405-2.394-2.707-2.879C115.335,155.661,112.541,156.523,112.541,156.523z"
				/>
		</g>
		<path style="fill:#EF8274;" d="M138.838,214.707l11.691,11.154c0.843,0.811,2.184,0.785,2.995-0.058
			c0.033-0.034,0.064-0.069,0.094-0.105l14.677-17.322l5.919-9.337l1.364-1.003l8.817-4.913c0.399-0.222,0.902-0.096,1.148,0.289
			l0,0c0.263,0.411,0.133,0.958-0.286,1.207l-5.127,3.052l0.925,2.655l0,0c1.134,2.516,0.263,5.484-2.051,6.988l-7.184,4.671
			c0,0-9.777,22.311-16.316,26.193c-5.192,3.086-24.323-16.987-24.323-16.987L138.838,214.707z"/>
		<g>
			<path style="fill:#407BFF;" d="M86.782,207.436c-0.267-0.804,0.4-2.535-0.404-2.268c-0.259,0.086-1.746,1.596-1.926,1.802
				c-1.397,1.557-3.715,4.633-6.119,10.952l-2.439,6.514l12.433,8.563l4.682-7.132L86.782,207.436z"/>
			<path style="opacity:0.2;enable-background:new    ;" d="M85.431,215.083l1.362-1.751l2.667,2.015l3.549,10.521l-4.682,7.132
				l-2.381-1.637C86.679,224.642,85.431,215.083,85.431,215.083z"/>
			<path style="fill:#407BFF;" d="M134.246,257.269c-14.196,2.759-30.475,1.626-36.439,1.065
				c-1.351-0.137,1.145-16.027-13.188-44.819c-1.461-2.719-0.848-6.087,1.477-8.117c9.754-8.071,27.475-7.762,35.604-7.109
				c2.876,0.202,5.492,1.735,7.075,4.144c2.829,4.793,4.736,10.074,5.621,15.569c0.957,5.227,1.505,10.521,1.637,15.833
				C136.409,246.405,134.887,257.143,134.246,257.269z"/>
			<path style="opacity:0.2;enable-background:new    ;" d="M136.032,233.835c-4.579-0.87-11.013-17.756-11.013-17.756l9.376,1.923
				C135.352,223.23,135.899,228.523,136.032,233.835z"/>
			<path style="fill:#407BFF;" d="M123.92,198.77c3.538,1.076,11.322,4.579,23.526,16.096l-11.354,15.136
				c-3.712-3.98-8.511-8.426-11.072-13.922c-2.321-4.871-3.495-10.208-3.434-15.604c0.014-0.999,0.834-1.798,1.833-1.784
				C123.588,198.694,123.757,198.72,123.92,198.77z"/>
		</g>
		<g>
			<path style="fill:#263238;" d="M92.047,168.818l-0.102-2.595c-3.702-2.962-9.653-2.562-12.925,0.87
				c-2.146,2.25-3.068,5.394-3.574,8.462c-0.506,3.068-0.674,6.214-1.636,9.17c-0.963,2.957-2.903,5.801-5.818,6.882
				c-2.171,0.805-4.653,0.558-6.753,1.534c-3.178,1.477-4.532,5.916-2.719,8.915c1.699,2.811,5.81,3.746,8.612,2.102
				c-0.91,0.888-0.764,2.739,0.279,3.632c1.219,1.044,3.029,1.027,4.586,0.637c3.633-0.911,6.764-3.63,8.174-7.1
				c0.452,1.245,1.908,1.91,3.228,1.799c1.32-0.111,2.508-0.842,3.533-1.68c4.494-3.674,6.677-9.59,7.075-15.381
				C94.402,180.273,93.222,174.503,92.047,168.818z"/>
		</g>
	</g>
</g>
</svg>
